<svg xmlns="http://www.w3.org/2000/svg" viewBox="0 0 512 512" role="img" aria-label="part-registry icon">
  <!-- A stylised QR-square + corner finder block. Minimal, scales
       crisply at any size; works as both home-screen icon and
       favicon. Per ADR-013: PWA installability is mandatory; this is
       the install glyph. -->
  <rect width="512" height="512" rx="96" fill="#1f6feb"/>
  <g fill="#ffffff">
    <!-- top-left finder block -->
    <rect x="64"  y="64"  width="128" height="128" rx="16"/>
    <rect x="96"  y="96"  width="64"  height="64"  rx="8" fill="#1f6feb"/>
    <rect x="112" y="112" width="32"  height="32"  fill="#ffffff"/>
    <!-- top-right finder block -->
    <rect x="320" y="64"  width="128" height="128" rx="16"/>
    <rect x="352" y="96"  width="64"  height="64"  rx="8" fill="#1f6feb"/>
    <rect x="368" y="112" width="32"  height="32"  fill="#ffffff"/>
    <!-- bottom-left finder block -->
    <rect x="64"  y="320" width="128" height="128" rx="16"/>
    <rect x="96"  y="352" width="64"  height="64"  rx="8" fill="#1f6feb"/>
    <rect x="112" y="368" width="32"  height="32"  fill="#ffffff"/>
    <!-- data modules -->
    <rect x="240" y="64"  width="32" height="32"/>
    <rect x="240" y="128" width="32" height="32"/>
    <rect x="240" y="192" width="32" height="32"/>
    <rect x="64"  y="240" width="32" height="32"/>
    <rect x="128" y="240" width="32" height="32"/>
    <rect x="192" y="240" width="32" height="32"/>
    <rect x="256" y="240" width="32" height="32"/>
    <rect x="320" y="240" width="32" height="32"/>
    <rect x="384" y="240" width="32" height="32"/>
    <rect x="448" y="240" width="32" height="32"/>
    <rect x="240" y="320" width="32" height="32"/>
    <rect x="304" y="320" width="32" height="32"/>
    <rect x="368" y="320" width="32" height="32"/>
    <rect x="432" y="320" width="32" height="32"/>
    <rect x="240" y="384" width="32" height="32"/>
    <rect x="368" y="384" width="32" height="32"/>
    <rect x="240" y="448" width="32" height="32"/>
    <rect x="304" y="448" width="32" height="32"/>
    <rect x="432" y="448" width="32" height="32"/>
  </g>
</svg>
