<svg xmlns="http://www.w3.org/2000/svg" width="36.000mm" height="18.000mm" viewBox="0 0 36.000 18.000">
<rect x="2.483" y="2.483" width="0.621" height="0.621" fill="#000"/>
<rect x="3.103" y="2.483" width="0.621" height="0.621" fill="#000"/>
<rect x="3.724" y="2.483" width="0.621" height="0.621" fill="#000"/>
<rect x="4.345" y="2.483" width="0.621" height="0.621" fill="#000"/>
<rect x="4.966" y="2.483" width="0.621" height="0.621" fill="#000"/>
<rect x="5.586" y="2.483" width="0.621" height="0.621" fill="#000"/>
<rect x="6.207" y="2.483" width="0.621" height="0.621" fill="#000"/>
<rect x="8.069" y="2.483" width="0.621" height="0.621" fill="#000"/>
<rect x="9.310" y="2.483" width="0.621" height="0.621" fill="#000"/>
<rect x="9.931" y="2.483" width="0.621" height="0.621" fill="#000"/>
<rect x="11.172" y="2.483" width="0.621" height="0.621" fill="#000"/>
<rect x="11.793" y="2.483" width="0.621" height="0.621" fill="#000"/>
<rect x="12.414" y="2.483" width="0.621" height="0.621" fill="#000"/>
<rect x="13.034" y="2.483" width="0.621" height="0.621" fill="#000"/>
<rect x="13.655" y="2.483" width="0.621" height="0.621" fill="#000"/>
<rect x="14.276" y="2.483" width="0.621" height="0.621" fill="#000"/>
<rect x="14.897" y="2.483" width="0.621" height="0.621" fill="#000"/>
<rect x="2.483" y="3.103" width="0.621" height="0.621" fill="#000"/>
<rect x="6.207" y="3.103" width="0.621" height="0.621" fill="#000"/>
<rect x="7.448" y="3.103" width="0.621" height="0.621" fill="#000"/>
<rect x="8.690" y="3.103" width="0.621" height="0.621" fill="#000"/>
<rect x="9.931" y="3.103" width="0.621" height="0.621" fill="#000"/>
<rect x="11.172" y="3.103" width="0.621" height="0.621" fill="#000"/>
<rect x="14.897" y="3.103" width="0.621" height="0.621" fill="#000"/>
<rect x="2.483" y="3.724" width="0.621" height="0.621" fill="#000"/>
<rect x="3.724" y="3.724" width="0.621" height="0.621" fill="#000"/>
<rect x="4.345" y="3.724" width="0.621" height="0.621" fill="#000"/>
<rect x="4.966" y="3.724" width="0.621" height="0.621" fill="#000"/>
<rect x="6.207" y="3.724" width="0.621" height="0.621" fill="#000"/>
<rect x="8.069" y="3.724" width="0.621" height="0.621" fill="#000"/>
<rect x="9.931" y="3.724" width="0.621" height="0.621" fill="#000"/>
<rect x="11.172" y="3.724" width="0.621" height="0.621" fill="#000"/>
<rect x="12.414" y="3.724" width="0.621" height="0.621" fill="#000"/>
<rect x="13.034" y="3.724" width="0.621" height="0.621" fill="#000"/>
<rect x="13.655" y="3.724" width="0.621" height="0.621" fill="#000"/>
<rect x="14.897" y="3.724" width="0.621" height="0.621" fill="#000"/>
<rect x="2.483" y="4.345" width="0.621" height="0.621" fill="#000"/>
<rect x="3.724" y="4.345" width="0.621" height="0.621" fill="#000"/>
<rect x="4.345" y="4.345" width="0.621" height="0.621" fill="#000"/>
<rect x="4.966" y="4.345" width="0.621" height="0.621" fill="#000"/>
<rect x="6.207" y="4.345" width="0.621" height="0.621" fill="#000"/>
<rect x="7.448" y="4.345" width="0.621" height="0.621" fill="#000"/>
<rect x="9.931" y="4.345" width="0.621" height="0.621" fill="#000"/>
<rect x="11.172" y="4.345" width="0.621" height="0.621" fill="#000"/>
<rect x="12.414" y="4.345" width="0.621" height="0.621" fill="#000"/>
<rect x="13.034" y="4.345" width="0.621" height="0.621" fill="#000"/>
<rect x="13.655" y="4.345" width="0.621" height="0.621" fill="#000"/>
<rect x="14.897" y="4.345" width="0.621" height="0.621" fill="#000"/>
<rect x="2.483" y="4.966" width="0.621" height="0.621" fill="#000"/>
<rect x="3.724" y="4.966" width="0.621" height="0.621" fill="#000"/>
<rect x="4.345" y="4.966" width="0.621" height="0.621" fill="#000"/>
<rect x="4.966" y="4.966" width="0.621" height="0.621" fill="#000"/>
<rect x="6.207" y="4.966" width="0.621" height="0.621" fill="#000"/>
<rect x="7.448" y="4.966" width="0.621" height="0.621" fill="#000"/>
<rect x="8.069" y="4.966" width="0.621" height="0.621" fill="#000"/>
<rect x="8.690" y="4.966" width="0.621" height="0.621" fill="#000"/>
<rect x="9.310" y="4.966" width="0.621" height="0.621" fill="#000"/>
<rect x="11.172" y="4.966" width="0.621" height="0.621" fill="#000"/>
<rect x="12.414" y="4.966" width="0.621" height="0.621" fill="#000"/>
<rect x="13.034" y="4.966" width="0.621" height="0.621" fill="#000"/>
<rect x="13.655" y="4.966" width="0.621" height="0.621" fill="#000"/>
<rect x="14.897" y="4.966" width="0.621" height="0.621" fill="#000"/>
<rect x="2.483" y="5.586" width="0.621" height="0.621" fill="#000"/>
<rect x="6.207" y="5.586" width="0.621" height="0.621" fill="#000"/>
<rect x="8.069" y="5.586" width="0.621" height="0.621" fill="#000"/>
<rect x="9.310" y="5.586" width="0.621" height="0.621" fill="#000"/>
<rect x="11.172" y="5.586" width="0.621" height="0.621" fill="#000"/>
<rect x="14.897" y="5.586" width="0.621" height="0.621" fill="#000"/>
<rect x="2.483" y="6.207" width="0.621" height="0.621" fill="#000"/>
<rect x="3.103" y="6.207" width="0.621" height="0.621" fill="#000"/>
<rect x="3.724" y="6.207" width="0.621" height="0.621" fill="#000"/>
<rect x="4.345" y="6.207" width="0.621" height="0.621" fill="#000"/>
<rect x="4.966" y="6.207" width="0.621" height="0.621" fill="#000"/>
<rect x="5.586" y="6.207" width="0.621" height="0.621" fill="#000"/>
<rect x="6.207" y="6.207" width="0.621" height="0.621" fill="#000"/>
<rect x="7.448" y="6.207" width="0.621" height="0.621" fill="#000"/>
<rect x="8.690" y="6.207" width="0.621" height="0.621" fill="#000"/>
<rect x="9.931" y="6.207" width="0.621" height="0.621" fill="#000"/>
<rect x="11.172" y="6.207" width="0.621" height="0.621" fill="#000"/>
<rect x="11.793" y="6.207" width="0.621" height="0.621" fill="#000"/>
<rect x="12.414" y="6.207" width="0.621" height="0.621" fill="#000"/>
<rect x="13.034" y="6.207" width="0.621" height="0.621" fill="#000"/>
<rect x="13.655" y="6.207" width="0.621" height="0.621" fill="#000"/>
<rect x="14.276" y="6.207" width="0.621" height="0.621" fill="#000"/>
<rect x="14.897" y="6.207" width="0.621" height="0.621" fill="#000"/>
<rect x="7.448" y="6.828" width="0.621" height="0.621" fill="#000"/>
<rect x="8.069" y="6.828" width="0.621" height="0.621" fill="#000"/>
<rect x="8.690" y="6.828" width="0.621" height="0.621" fill="#000"/>
<rect x="9.310" y="6.828" width="0.621" height="0.621" fill="#000"/>
<rect x="9.931" y="6.828" width="0.621" height="0.621" fill="#000"/>
<rect x="3.103" y="7.448" width="0.621" height="0.621" fill="#000"/>
<rect x="4.345" y="7.448" width="0.621" height="0.621" fill="#000"/>
<rect x="4.966" y="7.448" width="0.621" height="0.621" fill="#000"/>
<rect x="5.586" y="7.448" width="0.621" height="0.621" fill="#000"/>
<rect x="6.207" y="7.448" width="0.621" height="0.621" fill="#000"/>
<rect x="7.448" y="7.448" width="0.621" height="0.621" fill="#000"/>
<rect x="8.690" y="7.448" width="0.621" height="0.621" fill="#000"/>
<rect x="9.310" y="7.448" width="0.621" height="0.621" fill="#000"/>
<rect x="9.931" y="7.448" width="0.621" height="0.621" fill="#000"/>
<rect x="10.552" y="7.448" width="0.621" height="0.621" fill="#000"/>
<rect x="11.172" y="7.448" width="0.621" height="0.621" fill="#000"/>
<rect x="12.414" y="7.448" width="0.621" height="0.621" fill="#000"/>
<rect x="13.034" y="7.448" width="0.621" height="0.621" fill="#000"/>
<rect x="14.276" y="7.448" width="0.621" height="0.621" fill="#000"/>
<rect x="3.724" y="8.069" width="0.621" height="0.621" fill="#000"/>
<rect x="4.966" y="8.069" width="0.621" height="0.621" fill="#000"/>
<rect x="5.586" y="8.069" width="0.621" height="0.621" fill="#000"/>
<rect x="7.448" y="8.069" width="0.621" height="0.621" fill="#000"/>
<rect x="8.069" y="8.069" width="0.621" height="0.621" fill="#000"/>
<rect x="8.690" y="8.069" width="0.621" height="0.621" fill="#000"/>
<rect x="11.172" y="8.069" width="0.621" height="0.621" fill="#000"/>
<rect x="12.414" y="8.069" width="0.621" height="0.621" fill="#000"/>
<rect x="13.034" y="8.069" width="0.621" height="0.621" fill="#000"/>
<rect x="14.276" y="8.069" width="0.621" height="0.621" fill="#000"/>
<rect x="14.897" y="8.069" width="0.621" height="0.621" fill="#000"/>
<rect x="3.103" y="8.690" width="0.621" height="0.621" fill="#000"/>
<rect x="4.345" y="8.690" width="0.621" height="0.621" fill="#000"/>
<rect x="4.966" y="8.690" width="0.621" height="0.621" fill="#000"/>
<rect x="5.586" y="8.690" width="0.621" height="0.621" fill="#000"/>
<rect x="6.207" y="8.690" width="0.621" height="0.621" fill="#000"/>
<rect x="8.069" y="8.690" width="0.621" height="0.621" fill="#000"/>
<rect x="9.310" y="8.690" width="0.621" height="0.621" fill="#000"/>
<rect x="10.552" y="8.690" width="0.621" height="0.621" fill="#000"/>
<rect x="12.414" y="8.690" width="0.621" height="0.621" fill="#000"/>
<rect x="13.034" y="8.690" width="0.621" height="0.621" fill="#000"/>
<rect x="13.655" y="8.690" width="0.621" height="0.621" fill="#000"/>
<rect x="14.897" y="8.690" width="0.621" height="0.621" fill="#000"/>
<rect x="2.483" y="9.310" width="0.621" height="0.621" fill="#000"/>
<rect x="3.103" y="9.310" width="0.621" height="0.621" fill="#000"/>
<rect x="3.724" y="9.310" width="0.621" height="0.621" fill="#000"/>
<rect x="4.345" y="9.310" width="0.621" height="0.621" fill="#000"/>
<rect x="5.586" y="9.310" width="0.621" height="0.621" fill="#000"/>
<rect x="6.828" y="9.310" width="0.621" height="0.621" fill="#000"/>
<rect x="8.690" y="9.310" width="0.621" height="0.621" fill="#000"/>
<rect x="10.552" y="9.310" width="0.621" height="0.621" fill="#000"/>
<rect x="11.793" y="9.310" width="0.621" height="0.621" fill="#000"/>
<rect x="13.034" y="9.310" width="0.621" height="0.621" fill="#000"/>
<rect x="2.483" y="9.931" width="0.621" height="0.621" fill="#000"/>
<rect x="3.724" y="9.931" width="0.621" height="0.621" fill="#000"/>
<rect x="4.345" y="9.931" width="0.621" height="0.621" fill="#000"/>
<rect x="5.586" y="9.931" width="0.621" height="0.621" fill="#000"/>
<rect x="6.207" y="9.931" width="0.621" height="0.621" fill="#000"/>
<rect x="6.828" y="9.931" width="0.621" height="0.621" fill="#000"/>
<rect x="7.448" y="9.931" width="0.621" height="0.621" fill="#000"/>
<rect x="8.690" y="9.931" width="0.621" height="0.621" fill="#000"/>
<rect x="9.310" y="9.931" width="0.621" height="0.621" fill="#000"/>
<rect x="10.552" y="9.931" width="0.621" height="0.621" fill="#000"/>
<rect x="11.793" y="9.931" width="0.621" height="0.621" fill="#000"/>
<rect x="13.655" y="9.931" width="0.621" height="0.621" fill="#000"/>
<rect x="14.276" y="9.931" width="0.621" height="0.621" fill="#000"/>
<rect x="14.897" y="9.931" width="0.621" height="0.621" fill="#000"/>
<rect x="7.448" y="10.552" width="0.621" height="0.621" fill="#000"/>
<rect x="8.690" y="10.552" width="0.621" height="0.621" fill="#000"/>
<rect x="9.310" y="10.552" width="0.621" height="0.621" fill="#000"/>
<rect x="10.552" y="10.552" width="0.621" height="0.621" fill="#000"/>
<rect x="11.172" y="10.552" width="0.621" height="0.621" fill="#000"/>
<rect x="13.655" y="10.552" width="0.621" height="0.621" fill="#000"/>
<rect x="14.276" y="10.552" width="0.621" height="0.621" fill="#000"/>
<rect x="14.897" y="10.552" width="0.621" height="0.621" fill="#000"/>
<rect x="2.483" y="11.172" width="0.621" height="0.621" fill="#000"/>
<rect x="3.103" y="11.172" width="0.621" height="0.621" fill="#000"/>
<rect x="3.724" y="11.172" width="0.621" height="0.621" fill="#000"/>
<rect x="4.345" y="11.172" width="0.621" height="0.621" fill="#000"/>
<rect x="4.966" y="11.172" width="0.621" height="0.621" fill="#000"/>
<rect x="5.586" y="11.172" width="0.621" height="0.621" fill="#000"/>
<rect x="6.207" y="11.172" width="0.621" height="0.621" fill="#000"/>
<rect x="8.690" y="11.172" width="0.621" height="0.621" fill="#000"/>
<rect x="9.310" y="11.172" width="0.621" height="0.621" fill="#000"/>
<rect x="10.552" y="11.172" width="0.621" height="0.621" fill="#000"/>
<rect x="11.793" y="11.172" width="0.621" height="0.621" fill="#000"/>
<rect x="2.483" y="11.793" width="0.621" height="0.621" fill="#000"/>
<rect x="6.207" y="11.793" width="0.621" height="0.621" fill="#000"/>
<rect x="7.448" y="11.793" width="0.621" height="0.621" fill="#000"/>
<rect x="8.069" y="11.793" width="0.621" height="0.621" fill="#000"/>
<rect x="9.310" y="11.793" width="0.621" height="0.621" fill="#000"/>
<rect x="9.931" y="11.793" width="0.621" height="0.621" fill="#000"/>
<rect x="11.172" y="11.793" width="0.621" height="0.621" fill="#000"/>
<rect x="12.414" y="11.793" width="0.621" height="0.621" fill="#000"/>
<rect x="13.034" y="11.793" width="0.621" height="0.621" fill="#000"/>
<rect x="13.655" y="11.793" width="0.621" height="0.621" fill="#000"/>
<rect x="2.483" y="12.414" width="0.621" height="0.621" fill="#000"/>
<rect x="3.724" y="12.414" width="0.621" height="0.621" fill="#000"/>
<rect x="4.345" y="12.414" width="0.621" height="0.621" fill="#000"/>
<rect x="4.966" y="12.414" width="0.621" height="0.621" fill="#000"/>
<rect x="6.207" y="12.414" width="0.621" height="0.621" fill="#000"/>
<rect x="7.448" y="12.414" width="0.621" height="0.621" fill="#000"/>
<rect x="8.069" y="12.414" width="0.621" height="0.621" fill="#000"/>
<rect x="9.931" y="12.414" width="0.621" height="0.621" fill="#000"/>
<rect x="11.172" y="12.414" width="0.621" height="0.621" fill="#000"/>
<rect x="11.793" y="12.414" width="0.621" height="0.621" fill="#000"/>
<rect x="14.276" y="12.414" width="0.621" height="0.621" fill="#000"/>
<rect x="14.897" y="12.414" width="0.621" height="0.621" fill="#000"/>
<rect x="2.483" y="13.034" width="0.621" height="0.621" fill="#000"/>
<rect x="3.724" y="13.034" width="0.621" height="0.621" fill="#000"/>
<rect x="4.345" y="13.034" width="0.621" height="0.621" fill="#000"/>
<rect x="4.966" y="13.034" width="0.621" height="0.621" fill="#000"/>
<rect x="6.207" y="13.034" width="0.621" height="0.621" fill="#000"/>
<rect x="7.448" y="13.034" width="0.621" height="0.621" fill="#000"/>
<rect x="8.069" y="13.034" width="0.621" height="0.621" fill="#000"/>
<rect x="9.931" y="13.034" width="0.621" height="0.621" fill="#000"/>
<rect x="10.552" y="13.034" width="0.621" height="0.621" fill="#000"/>
<rect x="11.172" y="13.034" width="0.621" height="0.621" fill="#000"/>
<rect x="11.793" y="13.034" width="0.621" height="0.621" fill="#000"/>
<rect x="13.655" y="13.034" width="0.621" height="0.621" fill="#000"/>
<rect x="2.483" y="13.655" width="0.621" height="0.621" fill="#000"/>
<rect x="3.724" y="13.655" width="0.621" height="0.621" fill="#000"/>
<rect x="4.345" y="13.655" width="0.621" height="0.621" fill="#000"/>
<rect x="4.966" y="13.655" width="0.621" height="0.621" fill="#000"/>
<rect x="6.207" y="13.655" width="0.621" height="0.621" fill="#000"/>
<rect x="9.310" y="13.655" width="0.621" height="0.621" fill="#000"/>
<rect x="9.931" y="13.655" width="0.621" height="0.621" fill="#000"/>
<rect x="10.552" y="13.655" width="0.621" height="0.621" fill="#000"/>
<rect x="11.793" y="13.655" width="0.621" height="0.621" fill="#000"/>
<rect x="12.414" y="13.655" width="0.621" height="0.621" fill="#000"/>
<rect x="14.276" y="13.655" width="0.621" height="0.621" fill="#000"/>
<rect x="14.897" y="13.655" width="0.621" height="0.621" fill="#000"/>
<rect x="2.483" y="14.276" width="0.621" height="0.621" fill="#000"/>
<rect x="6.207" y="14.276" width="0.621" height="0.621" fill="#000"/>
<rect x="7.448" y="14.276" width="0.621" height="0.621" fill="#000"/>
<rect x="8.069" y="14.276" width="0.621" height="0.621" fill="#000"/>
<rect x="8.690" y="14.276" width="0.621" height="0.621" fill="#000"/>
<rect x="9.310" y="14.276" width="0.621" height="0.621" fill="#000"/>
<rect x="9.931" y="14.276" width="0.621" height="0.621" fill="#000"/>
<rect x="12.414" y="14.276" width="0.621" height="0.621" fill="#000"/>
<rect x="13.034" y="14.276" width="0.621" height="0.621" fill="#000"/>
<rect x="14.276" y="14.276" width="0.621" height="0.621" fill="#000"/>
<rect x="2.483" y="14.897" width="0.621" height="0.621" fill="#000"/>
<rect x="3.103" y="14.897" width="0.621" height="0.621" fill="#000"/>
<rect x="3.724" y="14.897" width="0.621" height="0.621" fill="#000"/>
<rect x="4.345" y="14.897" width="0.621" height="0.621" fill="#000"/>
<rect x="4.966" y="14.897" width="0.621" height="0.621" fill="#000"/>
<rect x="5.586" y="14.897" width="0.621" height="0.621" fill="#000"/>
<rect x="6.207" y="14.897" width="0.621" height="0.621" fill="#000"/>
<rect x="8.690" y="14.897" width="0.621" height="0.621" fill="#000"/>
<rect x="9.931" y="14.897" width="0.621" height="0.621" fill="#000"/>
<rect x="10.552" y="14.897" width="0.621" height="0.621" fill="#000"/>
<rect x="13.655" y="14.897" width="0.621" height="0.621" fill="#000"/>
<rect x="14.276" y="14.897" width="0.621" height="0.621" fill="#000"/>
<text x="27.000" y="5.200" font-family="Courier, monospace" font-size="4.000" text-anchor="middle" fill="#000">MZZY</text>
<text x="27.000" y="10.400" font-family="Courier, monospace" font-size="4.000" text-anchor="middle" fill="#000">ATA4</text>
<text x="27.000" y="15.600" font-family="Courier, monospace" font-size="4.000" text-anchor="middle" fill="#000">34YX</text>
</svg>
