<svg xmlns="http://www.w3.org/2000/svg" width="71.646mm" height="11.000mm" viewBox="0 0 71.646 11.000">
<rect x="1.517" y="1.517" width="0.379" height="0.379" fill="#000"/>
<rect x="1.897" y="1.517" width="0.379" height="0.379" fill="#000"/>
<rect x="2.276" y="1.517" width="0.379" height="0.379" fill="#000"/>
<rect x="2.655" y="1.517" width="0.379" height="0.379" fill="#000"/>
<rect x="3.034" y="1.517" width="0.379" height="0.379" fill="#000"/>
<rect x="3.414" y="1.517" width="0.379" height="0.379" fill="#000"/>
<rect x="3.793" y="1.517" width="0.379" height="0.379" fill="#000"/>
<rect x="4.552" y="1.517" width="0.379" height="0.379" fill="#000"/>
<rect x="4.931" y="1.517" width="0.379" height="0.379" fill="#000"/>
<rect x="5.310" y="1.517" width="0.379" height="0.379" fill="#000"/>
<rect x="5.690" y="1.517" width="0.379" height="0.379" fill="#000"/>
<rect x="6.069" y="1.517" width="0.379" height="0.379" fill="#000"/>
<rect x="6.828" y="1.517" width="0.379" height="0.379" fill="#000"/>
<rect x="7.207" y="1.517" width="0.379" height="0.379" fill="#000"/>
<rect x="7.586" y="1.517" width="0.379" height="0.379" fill="#000"/>
<rect x="7.966" y="1.517" width="0.379" height="0.379" fill="#000"/>
<rect x="8.345" y="1.517" width="0.379" height="0.379" fill="#000"/>
<rect x="8.724" y="1.517" width="0.379" height="0.379" fill="#000"/>
<rect x="9.103" y="1.517" width="0.379" height="0.379" fill="#000"/>
<rect x="1.517" y="1.897" width="0.379" height="0.379" fill="#000"/>
<rect x="3.793" y="1.897" width="0.379" height="0.379" fill="#000"/>
<rect x="4.931" y="1.897" width="0.379" height="0.379" fill="#000"/>
<rect x="5.310" y="1.897" width="0.379" height="0.379" fill="#000"/>
<rect x="5.690" y="1.897" width="0.379" height="0.379" fill="#000"/>
<rect x="6.069" y="1.897" width="0.379" height="0.379" fill="#000"/>
<rect x="6.828" y="1.897" width="0.379" height="0.379" fill="#000"/>
<rect x="9.103" y="1.897" width="0.379" height="0.379" fill="#000"/>
<rect x="1.517" y="2.276" width="0.379" height="0.379" fill="#000"/>
<rect x="2.276" y="2.276" width="0.379" height="0.379" fill="#000"/>
<rect x="2.655" y="2.276" width="0.379" height="0.379" fill="#000"/>
<rect x="3.034" y="2.276" width="0.379" height="0.379" fill="#000"/>
<rect x="3.793" y="2.276" width="0.379" height="0.379" fill="#000"/>
<rect x="4.552" y="2.276" width="0.379" height="0.379" fill="#000"/>
<rect x="5.690" y="2.276" width="0.379" height="0.379" fill="#000"/>
<rect x="6.069" y="2.276" width="0.379" height="0.379" fill="#000"/>
<rect x="6.828" y="2.276" width="0.379" height="0.379" fill="#000"/>
<rect x="7.586" y="2.276" width="0.379" height="0.379" fill="#000"/>
<rect x="7.966" y="2.276" width="0.379" height="0.379" fill="#000"/>
<rect x="8.345" y="2.276" width="0.379" height="0.379" fill="#000"/>
<rect x="9.103" y="2.276" width="0.379" height="0.379" fill="#000"/>
<rect x="1.517" y="2.655" width="0.379" height="0.379" fill="#000"/>
<rect x="2.276" y="2.655" width="0.379" height="0.379" fill="#000"/>
<rect x="2.655" y="2.655" width="0.379" height="0.379" fill="#000"/>
<rect x="3.034" y="2.655" width="0.379" height="0.379" fill="#000"/>
<rect x="3.793" y="2.655" width="0.379" height="0.379" fill="#000"/>
<rect x="4.552" y="2.655" width="0.379" height="0.379" fill="#000"/>
<rect x="6.069" y="2.655" width="0.379" height="0.379" fill="#000"/>
<rect x="6.828" y="2.655" width="0.379" height="0.379" fill="#000"/>
<rect x="7.586" y="2.655" width="0.379" height="0.379" fill="#000"/>
<rect x="7.966" y="2.655" width="0.379" height="0.379" fill="#000"/>
<rect x="8.345" y="2.655" width="0.379" height="0.379" fill="#000"/>
<rect x="9.103" y="2.655" width="0.379" height="0.379" fill="#000"/>
<rect x="1.517" y="3.034" width="0.379" height="0.379" fill="#000"/>
<rect x="2.276" y="3.034" width="0.379" height="0.379" fill="#000"/>
<rect x="2.655" y="3.034" width="0.379" height="0.379" fill="#000"/>
<rect x="3.034" y="3.034" width="0.379" height="0.379" fill="#000"/>
<rect x="3.793" y="3.034" width="0.379" height="0.379" fill="#000"/>
<rect x="4.931" y="3.034" width="0.379" height="0.379" fill="#000"/>
<rect x="6.828" y="3.034" width="0.379" height="0.379" fill="#000"/>
<rect x="7.586" y="3.034" width="0.379" height="0.379" fill="#000"/>
<rect x="7.966" y="3.034" width="0.379" height="0.379" fill="#000"/>
<rect x="8.345" y="3.034" width="0.379" height="0.379" fill="#000"/>
<rect x="9.103" y="3.034" width="0.379" height="0.379" fill="#000"/>
<rect x="1.517" y="3.414" width="0.379" height="0.379" fill="#000"/>
<rect x="3.793" y="3.414" width="0.379" height="0.379" fill="#000"/>
<rect x="4.552" y="3.414" width="0.379" height="0.379" fill="#000"/>
<rect x="4.931" y="3.414" width="0.379" height="0.379" fill="#000"/>
<rect x="5.310" y="3.414" width="0.379" height="0.379" fill="#000"/>
<rect x="6.828" y="3.414" width="0.379" height="0.379" fill="#000"/>
<rect x="9.103" y="3.414" width="0.379" height="0.379" fill="#000"/>
<rect x="1.517" y="3.793" width="0.379" height="0.379" fill="#000"/>
<rect x="1.897" y="3.793" width="0.379" height="0.379" fill="#000"/>
<rect x="2.276" y="3.793" width="0.379" height="0.379" fill="#000"/>
<rect x="2.655" y="3.793" width="0.379" height="0.379" fill="#000"/>
<rect x="3.034" y="3.793" width="0.379" height="0.379" fill="#000"/>
<rect x="3.414" y="3.793" width="0.379" height="0.379" fill="#000"/>
<rect x="3.793" y="3.793" width="0.379" height="0.379" fill="#000"/>
<rect x="4.552" y="3.793" width="0.379" height="0.379" fill="#000"/>
<rect x="5.310" y="3.793" width="0.379" height="0.379" fill="#000"/>
<rect x="6.069" y="3.793" width="0.379" height="0.379" fill="#000"/>
<rect x="6.828" y="3.793" width="0.379" height="0.379" fill="#000"/>
<rect x="7.207" y="3.793" width="0.379" height="0.379" fill="#000"/>
<rect x="7.586" y="3.793" width="0.379" height="0.379" fill="#000"/>
<rect x="7.966" y="3.793" width="0.379" height="0.379" fill="#000"/>
<rect x="8.345" y="3.793" width="0.379" height="0.379" fill="#000"/>
<rect x="8.724" y="3.793" width="0.379" height="0.379" fill="#000"/>
<rect x="9.103" y="3.793" width="0.379" height="0.379" fill="#000"/>
<rect x="4.552" y="4.172" width="0.379" height="0.379" fill="#000"/>
<rect x="5.690" y="4.172" width="0.379" height="0.379" fill="#000"/>
<rect x="6.069" y="4.172" width="0.379" height="0.379" fill="#000"/>
<rect x="1.897" y="4.552" width="0.379" height="0.379" fill="#000"/>
<rect x="2.655" y="4.552" width="0.379" height="0.379" fill="#000"/>
<rect x="3.414" y="4.552" width="0.379" height="0.379" fill="#000"/>
<rect x="3.793" y="4.552" width="0.379" height="0.379" fill="#000"/>
<rect x="4.172" y="4.552" width="0.379" height="0.379" fill="#000"/>
<rect x="4.552" y="4.552" width="0.379" height="0.379" fill="#000"/>
<rect x="4.931" y="4.552" width="0.379" height="0.379" fill="#000"/>
<rect x="5.310" y="4.552" width="0.379" height="0.379" fill="#000"/>
<rect x="5.690" y="4.552" width="0.379" height="0.379" fill="#000"/>
<rect x="6.448" y="4.552" width="0.379" height="0.379" fill="#000"/>
<rect x="6.828" y="4.552" width="0.379" height="0.379" fill="#000"/>
<rect x="7.207" y="4.552" width="0.379" height="0.379" fill="#000"/>
<rect x="7.966" y="4.552" width="0.379" height="0.379" fill="#000"/>
<rect x="8.345" y="4.552" width="0.379" height="0.379" fill="#000"/>
<rect x="9.103" y="4.552" width="0.379" height="0.379" fill="#000"/>
<rect x="1.897" y="4.931" width="0.379" height="0.379" fill="#000"/>
<rect x="2.276" y="4.931" width="0.379" height="0.379" fill="#000"/>
<rect x="2.655" y="4.931" width="0.379" height="0.379" fill="#000"/>
<rect x="4.172" y="4.931" width="0.379" height="0.379" fill="#000"/>
<rect x="4.552" y="4.931" width="0.379" height="0.379" fill="#000"/>
<rect x="4.931" y="4.931" width="0.379" height="0.379" fill="#000"/>
<rect x="5.310" y="4.931" width="0.379" height="0.379" fill="#000"/>
<rect x="6.448" y="4.931" width="0.379" height="0.379" fill="#000"/>
<rect x="6.828" y="4.931" width="0.379" height="0.379" fill="#000"/>
<rect x="7.207" y="4.931" width="0.379" height="0.379" fill="#000"/>
<rect x="7.966" y="4.931" width="0.379" height="0.379" fill="#000"/>
<rect x="8.345" y="4.931" width="0.379" height="0.379" fill="#000"/>
<rect x="8.724" y="4.931" width="0.379" height="0.379" fill="#000"/>
<rect x="1.517" y="5.310" width="0.379" height="0.379" fill="#000"/>
<rect x="1.897" y="5.310" width="0.379" height="0.379" fill="#000"/>
<rect x="2.655" y="5.310" width="0.379" height="0.379" fill="#000"/>
<rect x="3.034" y="5.310" width="0.379" height="0.379" fill="#000"/>
<rect x="3.414" y="5.310" width="0.379" height="0.379" fill="#000"/>
<rect x="3.793" y="5.310" width="0.379" height="0.379" fill="#000"/>
<rect x="4.552" y="5.310" width="0.379" height="0.379" fill="#000"/>
<rect x="5.690" y="5.310" width="0.379" height="0.379" fill="#000"/>
<rect x="6.069" y="5.310" width="0.379" height="0.379" fill="#000"/>
<rect x="6.448" y="5.310" width="0.379" height="0.379" fill="#000"/>
<rect x="6.828" y="5.310" width="0.379" height="0.379" fill="#000"/>
<rect x="7.207" y="5.310" width="0.379" height="0.379" fill="#000"/>
<rect x="7.586" y="5.310" width="0.379" height="0.379" fill="#000"/>
<rect x="7.966" y="5.310" width="0.379" height="0.379" fill="#000"/>
<rect x="8.345" y="5.310" width="0.379" height="0.379" fill="#000"/>
<rect x="1.517" y="5.690" width="0.379" height="0.379" fill="#000"/>
<rect x="1.897" y="5.690" width="0.379" height="0.379" fill="#000"/>
<rect x="2.276" y="5.690" width="0.379" height="0.379" fill="#000"/>
<rect x="2.655" y="5.690" width="0.379" height="0.379" fill="#000"/>
<rect x="3.034" y="5.690" width="0.379" height="0.379" fill="#000"/>
<rect x="3.414" y="5.690" width="0.379" height="0.379" fill="#000"/>
<rect x="4.552" y="5.690" width="0.379" height="0.379" fill="#000"/>
<rect x="5.310" y="5.690" width="0.379" height="0.379" fill="#000"/>
<rect x="6.069" y="5.690" width="0.379" height="0.379" fill="#000"/>
<rect x="7.207" y="5.690" width="0.379" height="0.379" fill="#000"/>
<rect x="7.966" y="5.690" width="0.379" height="0.379" fill="#000"/>
<rect x="8.724" y="5.690" width="0.379" height="0.379" fill="#000"/>
<rect x="2.276" y="6.069" width="0.379" height="0.379" fill="#000"/>
<rect x="2.655" y="6.069" width="0.379" height="0.379" fill="#000"/>
<rect x="3.793" y="6.069" width="0.379" height="0.379" fill="#000"/>
<rect x="4.172" y="6.069" width="0.379" height="0.379" fill="#000"/>
<rect x="4.931" y="6.069" width="0.379" height="0.379" fill="#000"/>
<rect x="5.310" y="6.069" width="0.379" height="0.379" fill="#000"/>
<rect x="6.069" y="6.069" width="0.379" height="0.379" fill="#000"/>
<rect x="7.207" y="6.069" width="0.379" height="0.379" fill="#000"/>
<rect x="7.966" y="6.069" width="0.379" height="0.379" fill="#000"/>
<rect x="8.345" y="6.069" width="0.379" height="0.379" fill="#000"/>
<rect x="8.724" y="6.069" width="0.379" height="0.379" fill="#000"/>
<rect x="4.552" y="6.448" width="0.379" height="0.379" fill="#000"/>
<rect x="4.931" y="6.448" width="0.379" height="0.379" fill="#000"/>
<rect x="5.310" y="6.448" width="0.379" height="0.379" fill="#000"/>
<rect x="5.690" y="6.448" width="0.379" height="0.379" fill="#000"/>
<rect x="6.069" y="6.448" width="0.379" height="0.379" fill="#000"/>
<rect x="7.586" y="6.448" width="0.379" height="0.379" fill="#000"/>
<rect x="8.345" y="6.448" width="0.379" height="0.379" fill="#000"/>
<rect x="8.724" y="6.448" width="0.379" height="0.379" fill="#000"/>
<rect x="9.103" y="6.448" width="0.379" height="0.379" fill="#000"/>
<rect x="1.517" y="6.828" width="0.379" height="0.379" fill="#000"/>
<rect x="1.897" y="6.828" width="0.379" height="0.379" fill="#000"/>
<rect x="2.276" y="6.828" width="0.379" height="0.379" fill="#000"/>
<rect x="2.655" y="6.828" width="0.379" height="0.379" fill="#000"/>
<rect x="3.034" y="6.828" width="0.379" height="0.379" fill="#000"/>
<rect x="3.414" y="6.828" width="0.379" height="0.379" fill="#000"/>
<rect x="3.793" y="6.828" width="0.379" height="0.379" fill="#000"/>
<rect x="4.552" y="6.828" width="0.379" height="0.379" fill="#000"/>
<rect x="5.690" y="6.828" width="0.379" height="0.379" fill="#000"/>
<rect x="6.069" y="6.828" width="0.379" height="0.379" fill="#000"/>
<rect x="7.207" y="6.828" width="0.379" height="0.379" fill="#000"/>
<rect x="7.586" y="6.828" width="0.379" height="0.379" fill="#000"/>
<rect x="8.345" y="6.828" width="0.379" height="0.379" fill="#000"/>
<rect x="1.517" y="7.207" width="0.379" height="0.379" fill="#000"/>
<rect x="3.793" y="7.207" width="0.379" height="0.379" fill="#000"/>
<rect x="4.552" y="7.207" width="0.379" height="0.379" fill="#000"/>
<rect x="5.690" y="7.207" width="0.379" height="0.379" fill="#000"/>
<rect x="6.069" y="7.207" width="0.379" height="0.379" fill="#000"/>
<rect x="6.448" y="7.207" width="0.379" height="0.379" fill="#000"/>
<rect x="8.724" y="7.207" width="0.379" height="0.379" fill="#000"/>
<rect x="9.103" y="7.207" width="0.379" height="0.379" fill="#000"/>
<rect x="1.517" y="7.586" width="0.379" height="0.379" fill="#000"/>
<rect x="2.276" y="7.586" width="0.379" height="0.379" fill="#000"/>
<rect x="2.655" y="7.586" width="0.379" height="0.379" fill="#000"/>
<rect x="3.034" y="7.586" width="0.379" height="0.379" fill="#000"/>
<rect x="3.793" y="7.586" width="0.379" height="0.379" fill="#000"/>
<rect x="4.931" y="7.586" width="0.379" height="0.379" fill="#000"/>
<rect x="5.310" y="7.586" width="0.379" height="0.379" fill="#000"/>
<rect x="6.069" y="7.586" width="0.379" height="0.379" fill="#000"/>
<rect x="6.448" y="7.586" width="0.379" height="0.379" fill="#000"/>
<rect x="6.828" y="7.586" width="0.379" height="0.379" fill="#000"/>
<rect x="7.966" y="7.586" width="0.379" height="0.379" fill="#000"/>
<rect x="8.345" y="7.586" width="0.379" height="0.379" fill="#000"/>
<rect x="9.103" y="7.586" width="0.379" height="0.379" fill="#000"/>
<rect x="1.517" y="7.966" width="0.379" height="0.379" fill="#000"/>
<rect x="2.276" y="7.966" width="0.379" height="0.379" fill="#000"/>
<rect x="2.655" y="7.966" width="0.379" height="0.379" fill="#000"/>
<rect x="3.034" y="7.966" width="0.379" height="0.379" fill="#000"/>
<rect x="3.793" y="7.966" width="0.379" height="0.379" fill="#000"/>
<rect x="4.552" y="7.966" width="0.379" height="0.379" fill="#000"/>
<rect x="5.310" y="7.966" width="0.379" height="0.379" fill="#000"/>
<rect x="5.690" y="7.966" width="0.379" height="0.379" fill="#000"/>
<rect x="7.586" y="7.966" width="0.379" height="0.379" fill="#000"/>
<rect x="8.345" y="7.966" width="0.379" height="0.379" fill="#000"/>
<rect x="8.724" y="7.966" width="0.379" height="0.379" fill="#000"/>
<rect x="9.103" y="7.966" width="0.379" height="0.379" fill="#000"/>
<rect x="1.517" y="8.345" width="0.379" height="0.379" fill="#000"/>
<rect x="2.276" y="8.345" width="0.379" height="0.379" fill="#000"/>
<rect x="2.655" y="8.345" width="0.379" height="0.379" fill="#000"/>
<rect x="3.034" y="8.345" width="0.379" height="0.379" fill="#000"/>
<rect x="3.793" y="8.345" width="0.379" height="0.379" fill="#000"/>
<rect x="4.931" y="8.345" width="0.379" height="0.379" fill="#000"/>
<rect x="6.069" y="8.345" width="0.379" height="0.379" fill="#000"/>
<rect x="7.207" y="8.345" width="0.379" height="0.379" fill="#000"/>
<rect x="8.345" y="8.345" width="0.379" height="0.379" fill="#000"/>
<rect x="9.103" y="8.345" width="0.379" height="0.379" fill="#000"/>
<rect x="1.517" y="8.724" width="0.379" height="0.379" fill="#000"/>
<rect x="3.793" y="8.724" width="0.379" height="0.379" fill="#000"/>
<rect x="4.552" y="8.724" width="0.379" height="0.379" fill="#000"/>
<rect x="5.310" y="8.724" width="0.379" height="0.379" fill="#000"/>
<rect x="6.448" y="8.724" width="0.379" height="0.379" fill="#000"/>
<rect x="6.828" y="8.724" width="0.379" height="0.379" fill="#000"/>
<rect x="8.345" y="8.724" width="0.379" height="0.379" fill="#000"/>
<rect x="9.103" y="8.724" width="0.379" height="0.379" fill="#000"/>
<rect x="1.517" y="9.103" width="0.379" height="0.379" fill="#000"/>
<rect x="1.897" y="9.103" width="0.379" height="0.379" fill="#000"/>
<rect x="2.276" y="9.103" width="0.379" height="0.379" fill="#000"/>
<rect x="2.655" y="9.103" width="0.379" height="0.379" fill="#000"/>
<rect x="3.034" y="9.103" width="0.379" height="0.379" fill="#000"/>
<rect x="3.414" y="9.103" width="0.379" height="0.379" fill="#000"/>
<rect x="3.793" y="9.103" width="0.379" height="0.379" fill="#000"/>
<rect x="5.690" y="9.103" width="0.379" height="0.379" fill="#000"/>
<rect x="6.069" y="9.103" width="0.379" height="0.379" fill="#000"/>
<rect x="7.586" y="9.103" width="0.379" height="0.379" fill="#000"/>
<rect x="8.345" y="9.103" width="0.379" height="0.379" fill="#000"/>
<text x="16.500" y="3.178" font-family="Courier, monospace" font-size="2.444" text-anchor="middle" fill="#000">MEQS</text>
<text x="16.500" y="6.356" font-family="Courier, monospace" font-size="2.444" text-anchor="middle" fill="#000">UTE8</text>
<text x="16.500" y="9.533" font-family="Courier, monospace" font-size="2.444" text-anchor="middle" fill="#000">7XZW</text>
<rect x="22.000" y="0" width="27.646" height="11.000" fill="none" stroke="#888" stroke-width="0.1" stroke-dasharray="0.6,0.6"/>
<text x="35.823" y="6.000" font-family="Courier, monospace" font-size="1.5" text-anchor="middle" fill="#888">wrap d8</text>
<text x="55.146" y="3.178" font-family="Courier, monospace" font-size="2.444" text-anchor="middle" fill="#000">MEQS</text>
<text x="55.146" y="6.356" font-family="Courier, monospace" font-size="2.444" text-anchor="middle" fill="#000">UTE8</text>
<text x="55.146" y="9.533" font-family="Courier, monospace" font-size="2.444" text-anchor="middle" fill="#000">7XZW</text>
<rect x="62.163" y="1.517" width="0.379" height="0.379" fill="#000"/>
<rect x="62.543" y="1.517" width="0.379" height="0.379" fill="#000"/>
<rect x="62.922" y="1.517" width="0.379" height="0.379" fill="#000"/>
<rect x="63.301" y="1.517" width="0.379" height="0.379" fill="#000"/>
<rect x="63.680" y="1.517" width="0.379" height="0.379" fill="#000"/>
<rect x="64.060" y="1.517" width="0.379" height="0.379" fill="#000"/>
<rect x="64.439" y="1.517" width="0.379" height="0.379" fill="#000"/>
<rect x="65.198" y="1.517" width="0.379" height="0.379" fill="#000"/>
<rect x="65.577" y="1.517" width="0.379" height="0.379" fill="#000"/>
<rect x="65.956" y="1.517" width="0.379" height="0.379" fill="#000"/>
<rect x="66.336" y="1.517" width="0.379" height="0.379" fill="#000"/>
<rect x="66.715" y="1.517" width="0.379" height="0.379" fill="#000"/>
<rect x="67.474" y="1.517" width="0.379" height="0.379" fill="#000"/>
<rect x="67.853" y="1.517" width="0.379" height="0.379" fill="#000"/>
<rect x="68.232" y="1.517" width="0.379" height="0.379" fill="#000"/>
<rect x="68.612" y="1.517" width="0.379" height="0.379" fill="#000"/>
<rect x="68.991" y="1.517" width="0.379" height="0.379" fill="#000"/>
<rect x="69.370" y="1.517" width="0.379" height="0.379" fill="#000"/>
<rect x="69.749" y="1.517" width="0.379" height="0.379" fill="#000"/>
<rect x="62.163" y="1.897" width="0.379" height="0.379" fill="#000"/>
<rect x="64.439" y="1.897" width="0.379" height="0.379" fill="#000"/>
<rect x="65.577" y="1.897" width="0.379" height="0.379" fill="#000"/>
<rect x="65.956" y="1.897" width="0.379" height="0.379" fill="#000"/>
<rect x="66.336" y="1.897" width="0.379" height="0.379" fill="#000"/>
<rect x="66.715" y="1.897" width="0.379" height="0.379" fill="#000"/>
<rect x="67.474" y="1.897" width="0.379" height="0.379" fill="#000"/>
<rect x="69.749" y="1.897" width="0.379" height="0.379" fill="#000"/>
<rect x="62.163" y="2.276" width="0.379" height="0.379" fill="#000"/>
<rect x="62.922" y="2.276" width="0.379" height="0.379" fill="#000"/>
<rect x="63.301" y="2.276" width="0.379" height="0.379" fill="#000"/>
<rect x="63.680" y="2.276" width="0.379" height="0.379" fill="#000"/>
<rect x="64.439" y="2.276" width="0.379" height="0.379" fill="#000"/>
<rect x="65.198" y="2.276" width="0.379" height="0.379" fill="#000"/>
<rect x="66.336" y="2.276" width="0.379" height="0.379" fill="#000"/>
<rect x="66.715" y="2.276" width="0.379" height="0.379" fill="#000"/>
<rect x="67.474" y="2.276" width="0.379" height="0.379" fill="#000"/>
<rect x="68.232" y="2.276" width="0.379" height="0.379" fill="#000"/>
<rect x="68.612" y="2.276" width="0.379" height="0.379" fill="#000"/>
<rect x="68.991" y="2.276" width="0.379" height="0.379" fill="#000"/>
<rect x="69.749" y="2.276" width="0.379" height="0.379" fill="#000"/>
<rect x="62.163" y="2.655" width="0.379" height="0.379" fill="#000"/>
<rect x="62.922" y="2.655" width="0.379" height="0.379" fill="#000"/>
<rect x="63.301" y="2.655" width="0.379" height="0.379" fill="#000"/>
<rect x="63.680" y="2.655" width="0.379" height="0.379" fill="#000"/>
<rect x="64.439" y="2.655" width="0.379" height="0.379" fill="#000"/>
<rect x="65.198" y="2.655" width="0.379" height="0.379" fill="#000"/>
<rect x="66.715" y="2.655" width="0.379" height="0.379" fill="#000"/>
<rect x="67.474" y="2.655" width="0.379" height="0.379" fill="#000"/>
<rect x="68.232" y="2.655" width="0.379" height="0.379" fill="#000"/>
<rect x="68.612" y="2.655" width="0.379" height="0.379" fill="#000"/>
<rect x="68.991" y="2.655" width="0.379" height="0.379" fill="#000"/>
<rect x="69.749" y="2.655" width="0.379" height="0.379" fill="#000"/>
<rect x="62.163" y="3.034" width="0.379" height="0.379" fill="#000"/>
<rect x="62.922" y="3.034" width="0.379" height="0.379" fill="#000"/>
<rect x="63.301" y="3.034" width="0.379" height="0.379" fill="#000"/>
<rect x="63.680" y="3.034" width="0.379" height="0.379" fill="#000"/>
<rect x="64.439" y="3.034" width="0.379" height="0.379" fill="#000"/>
<rect x="65.577" y="3.034" width="0.379" height="0.379" fill="#000"/>
<rect x="67.474" y="3.034" width="0.379" height="0.379" fill="#000"/>
<rect x="68.232" y="3.034" width="0.379" height="0.379" fill="#000"/>
<rect x="68.612" y="3.034" width="0.379" height="0.379" fill="#000"/>
<rect x="68.991" y="3.034" width="0.379" height="0.379" fill="#000"/>
<rect x="69.749" y="3.034" width="0.379" height="0.379" fill="#000"/>
<rect x="62.163" y="3.414" width="0.379" height="0.379" fill="#000"/>
<rect x="64.439" y="3.414" width="0.379" height="0.379" fill="#000"/>
<rect x="65.198" y="3.414" width="0.379" height="0.379" fill="#000"/>
<rect x="65.577" y="3.414" width="0.379" height="0.379" fill="#000"/>
<rect x="65.956" y="3.414" width="0.379" height="0.379" fill="#000"/>
<rect x="67.474" y="3.414" width="0.379" height="0.379" fill="#000"/>
<rect x="69.749" y="3.414" width="0.379" height="0.379" fill="#000"/>
<rect x="62.163" y="3.793" width="0.379" height="0.379" fill="#000"/>
<rect x="62.543" y="3.793" width="0.379" height="0.379" fill="#000"/>
<rect x="62.922" y="3.793" width="0.379" height="0.379" fill="#000"/>
<rect x="63.301" y="3.793" width="0.379" height="0.379" fill="#000"/>
<rect x="63.680" y="3.793" width="0.379" height="0.379" fill="#000"/>
<rect x="64.060" y="3.793" width="0.379" height="0.379" fill="#000"/>
<rect x="64.439" y="3.793" width="0.379" height="0.379" fill="#000"/>
<rect x="65.198" y="3.793" width="0.379" height="0.379" fill="#000"/>
<rect x="65.956" y="3.793" width="0.379" height="0.379" fill="#000"/>
<rect x="66.715" y="3.793" width="0.379" height="0.379" fill="#000"/>
<rect x="67.474" y="3.793" width="0.379" height="0.379" fill="#000"/>
<rect x="67.853" y="3.793" width="0.379" height="0.379" fill="#000"/>
<rect x="68.232" y="3.793" width="0.379" height="0.379" fill="#000"/>
<rect x="68.612" y="3.793" width="0.379" height="0.379" fill="#000"/>
<rect x="68.991" y="3.793" width="0.379" height="0.379" fill="#000"/>
<rect x="69.370" y="3.793" width="0.379" height="0.379" fill="#000"/>
<rect x="69.749" y="3.793" width="0.379" height="0.379" fill="#000"/>
<rect x="65.198" y="4.172" width="0.379" height="0.379" fill="#000"/>
<rect x="66.336" y="4.172" width="0.379" height="0.379" fill="#000"/>
<rect x="66.715" y="4.172" width="0.379" height="0.379" fill="#000"/>
<rect x="62.543" y="4.552" width="0.379" height="0.379" fill="#000"/>
<rect x="63.301" y="4.552" width="0.379" height="0.379" fill="#000"/>
<rect x="64.060" y="4.552" width="0.379" height="0.379" fill="#000"/>
<rect x="64.439" y="4.552" width="0.379" height="0.379" fill="#000"/>
<rect x="64.818" y="4.552" width="0.379" height="0.379" fill="#000"/>
<rect x="65.198" y="4.552" width="0.379" height="0.379" fill="#000"/>
<rect x="65.577" y="4.552" width="0.379" height="0.379" fill="#000"/>
<rect x="65.956" y="4.552" width="0.379" height="0.379" fill="#000"/>
<rect x="66.336" y="4.552" width="0.379" height="0.379" fill="#000"/>
<rect x="67.094" y="4.552" width="0.379" height="0.379" fill="#000"/>
<rect x="67.474" y="4.552" width="0.379" height="0.379" fill="#000"/>
<rect x="67.853" y="4.552" width="0.379" height="0.379" fill="#000"/>
<rect x="68.612" y="4.552" width="0.379" height="0.379" fill="#000"/>
<rect x="68.991" y="4.552" width="0.379" height="0.379" fill="#000"/>
<rect x="69.749" y="4.552" width="0.379" height="0.379" fill="#000"/>
<rect x="62.543" y="4.931" width="0.379" height="0.379" fill="#000"/>
<rect x="62.922" y="4.931" width="0.379" height="0.379" fill="#000"/>
<rect x="63.301" y="4.931" width="0.379" height="0.379" fill="#000"/>
<rect x="64.818" y="4.931" width="0.379" height="0.379" fill="#000"/>
<rect x="65.198" y="4.931" width="0.379" height="0.379" fill="#000"/>
<rect x="65.577" y="4.931" width="0.379" height="0.379" fill="#000"/>
<rect x="65.956" y="4.931" width="0.379" height="0.379" fill="#000"/>
<rect x="67.094" y="4.931" width="0.379" height="0.379" fill="#000"/>
<rect x="67.474" y="4.931" width="0.379" height="0.379" fill="#000"/>
<rect x="67.853" y="4.931" width="0.379" height="0.379" fill="#000"/>
<rect x="68.612" y="4.931" width="0.379" height="0.379" fill="#000"/>
<rect x="68.991" y="4.931" width="0.379" height="0.379" fill="#000"/>
<rect x="69.370" y="4.931" width="0.379" height="0.379" fill="#000"/>
<rect x="62.163" y="5.310" width="0.379" height="0.379" fill="#000"/>
<rect x="62.543" y="5.310" width="0.379" height="0.379" fill="#000"/>
<rect x="63.301" y="5.310" width="0.379" height="0.379" fill="#000"/>
<rect x="63.680" y="5.310" width="0.379" height="0.379" fill="#000"/>
<rect x="64.060" y="5.310" width="0.379" height="0.379" fill="#000"/>
<rect x="64.439" y="5.310" width="0.379" height="0.379" fill="#000"/>
<rect x="65.198" y="5.310" width="0.379" height="0.379" fill="#000"/>
<rect x="66.336" y="5.310" width="0.379" height="0.379" fill="#000"/>
<rect x="66.715" y="5.310" width="0.379" height="0.379" fill="#000"/>
<rect x="67.094" y="5.310" width="0.379" height="0.379" fill="#000"/>
<rect x="67.474" y="5.310" width="0.379" height="0.379" fill="#000"/>
<rect x="67.853" y="5.310" width="0.379" height="0.379" fill="#000"/>
<rect x="68.232" y="5.310" width="0.379" height="0.379" fill="#000"/>
<rect x="68.612" y="5.310" width="0.379" height="0.379" fill="#000"/>
<rect x="68.991" y="5.310" width="0.379" height="0.379" fill="#000"/>
<rect x="62.163" y="5.690" width="0.379" height="0.379" fill="#000"/>
<rect x="62.543" y="5.690" width="0.379" height="0.379" fill="#000"/>
<rect x="62.922" y="5.690" width="0.379" height="0.379" fill="#000"/>
<rect x="63.301" y="5.690" width="0.379" height="0.379" fill="#000"/>
<rect x="63.680" y="5.690" width="0.379" height="0.379" fill="#000"/>
<rect x="64.060" y="5.690" width="0.379" height="0.379" fill="#000"/>
<rect x="65.198" y="5.690" width="0.379" height="0.379" fill="#000"/>
<rect x="65.956" y="5.690" width="0.379" height="0.379" fill="#000"/>
<rect x="66.715" y="5.690" width="0.379" height="0.379" fill="#000"/>
<rect x="67.853" y="5.690" width="0.379" height="0.379" fill="#000"/>
<rect x="68.612" y="5.690" width="0.379" height="0.379" fill="#000"/>
<rect x="69.370" y="5.690" width="0.379" height="0.379" fill="#000"/>
<rect x="62.922" y="6.069" width="0.379" height="0.379" fill="#000"/>
<rect x="63.301" y="6.069" width="0.379" height="0.379" fill="#000"/>
<rect x="64.439" y="6.069" width="0.379" height="0.379" fill="#000"/>
<rect x="64.818" y="6.069" width="0.379" height="0.379" fill="#000"/>
<rect x="65.577" y="6.069" width="0.379" height="0.379" fill="#000"/>
<rect x="65.956" y="6.069" width="0.379" height="0.379" fill="#000"/>
<rect x="66.715" y="6.069" width="0.379" height="0.379" fill="#000"/>
<rect x="67.853" y="6.069" width="0.379" height="0.379" fill="#000"/>
<rect x="68.612" y="6.069" width="0.379" height="0.379" fill="#000"/>
<rect x="68.991" y="6.069" width="0.379" height="0.379" fill="#000"/>
<rect x="69.370" y="6.069" width="0.379" height="0.379" fill="#000"/>
<rect x="65.198" y="6.448" width="0.379" height="0.379" fill="#000"/>
<rect x="65.577" y="6.448" width="0.379" height="0.379" fill="#000"/>
<rect x="65.956" y="6.448" width="0.379" height="0.379" fill="#000"/>
<rect x="66.336" y="6.448" width="0.379" height="0.379" fill="#000"/>
<rect x="66.715" y="6.448" width="0.379" height="0.379" fill="#000"/>
<rect x="68.232" y="6.448" width="0.379" height="0.379" fill="#000"/>
<rect x="68.991" y="6.448" width="0.379" height="0.379" fill="#000"/>
<rect x="69.370" y="6.448" width="0.379" height="0.379" fill="#000"/>
<rect x="69.749" y="6.448" width="0.379" height="0.379" fill="#000"/>
<rect x="62.163" y="6.828" width="0.379" height="0.379" fill="#000"/>
<rect x="62.543" y="6.828" width="0.379" height="0.379" fill="#000"/>
<rect x="62.922" y="6.828" width="0.379" height="0.379" fill="#000"/>
<rect x="63.301" y="6.828" width="0.379" height="0.379" fill="#000"/>
<rect x="63.680" y="6.828" width="0.379" height="0.379" fill="#000"/>
<rect x="64.060" y="6.828" width="0.379" height="0.379" fill="#000"/>
<rect x="64.439" y="6.828" width="0.379" height="0.379" fill="#000"/>
<rect x="65.198" y="6.828" width="0.379" height="0.379" fill="#000"/>
<rect x="66.336" y="6.828" width="0.379" height="0.379" fill="#000"/>
<rect x="66.715" y="6.828" width="0.379" height="0.379" fill="#000"/>
<rect x="67.853" y="6.828" width="0.379" height="0.379" fill="#000"/>
<rect x="68.232" y="6.828" width="0.379" height="0.379" fill="#000"/>
<rect x="68.991" y="6.828" width="0.379" height="0.379" fill="#000"/>
<rect x="62.163" y="7.207" width="0.379" height="0.379" fill="#000"/>
<rect x="64.439" y="7.207" width="0.379" height="0.379" fill="#000"/>
<rect x="65.198" y="7.207" width="0.379" height="0.379" fill="#000"/>
<rect x="66.336" y="7.207" width="0.379" height="0.379" fill="#000"/>
<rect x="66.715" y="7.207" width="0.379" height="0.379" fill="#000"/>
<rect x="67.094" y="7.207" width="0.379" height="0.379" fill="#000"/>
<rect x="69.370" y="7.207" width="0.379" height="0.379" fill="#000"/>
<rect x="69.749" y="7.207" width="0.379" height="0.379" fill="#000"/>
<rect x="62.163" y="7.586" width="0.379" height="0.379" fill="#000"/>
<rect x="62.922" y="7.586" width="0.379" height="0.379" fill="#000"/>
<rect x="63.301" y="7.586" width="0.379" height="0.379" fill="#000"/>
<rect x="63.680" y="7.586" width="0.379" height="0.379" fill="#000"/>
<rect x="64.439" y="7.586" width="0.379" height="0.379" fill="#000"/>
<rect x="65.577" y="7.586" width="0.379" height="0.379" fill="#000"/>
<rect x="65.956" y="7.586" width="0.379" height="0.379" fill="#000"/>
<rect x="66.715" y="7.586" width="0.379" height="0.379" fill="#000"/>
<rect x="67.094" y="7.586" width="0.379" height="0.379" fill="#000"/>
<rect x="67.474" y="7.586" width="0.379" height="0.379" fill="#000"/>
<rect x="68.612" y="7.586" width="0.379" height="0.379" fill="#000"/>
<rect x="68.991" y="7.586" width="0.379" height="0.379" fill="#000"/>
<rect x="69.749" y="7.586" width="0.379" height="0.379" fill="#000"/>
<rect x="62.163" y="7.966" width="0.379" height="0.379" fill="#000"/>
<rect x="62.922" y="7.966" width="0.379" height="0.379" fill="#000"/>
<rect x="63.301" y="7.966" width="0.379" height="0.379" fill="#000"/>
<rect x="63.680" y="7.966" width="0.379" height="0.379" fill="#000"/>
<rect x="64.439" y="7.966" width="0.379" height="0.379" fill="#000"/>
<rect x="65.198" y="7.966" width="0.379" height="0.379" fill="#000"/>
<rect x="65.956" y="7.966" width="0.379" height="0.379" fill="#000"/>
<rect x="66.336" y="7.966" width="0.379" height="0.379" fill="#000"/>
<rect x="68.232" y="7.966" width="0.379" height="0.379" fill="#000"/>
<rect x="68.991" y="7.966" width="0.379" height="0.379" fill="#000"/>
<rect x="69.370" y="7.966" width="0.379" height="0.379" fill="#000"/>
<rect x="69.749" y="7.966" width="0.379" height="0.379" fill="#000"/>
<rect x="62.163" y="8.345" width="0.379" height="0.379" fill="#000"/>
<rect x="62.922" y="8.345" width="0.379" height="0.379" fill="#000"/>
<rect x="63.301" y="8.345" width="0.379" height="0.379" fill="#000"/>
<rect x="63.680" y="8.345" width="0.379" height="0.379" fill="#000"/>
<rect x="64.439" y="8.345" width="0.379" height="0.379" fill="#000"/>
<rect x="65.577" y="8.345" width="0.379" height="0.379" fill="#000"/>
<rect x="66.715" y="8.345" width="0.379" height="0.379" fill="#000"/>
<rect x="67.853" y="8.345" width="0.379" height="0.379" fill="#000"/>
<rect x="68.991" y="8.345" width="0.379" height="0.379" fill="#000"/>
<rect x="69.749" y="8.345" width="0.379" height="0.379" fill="#000"/>
<rect x="62.163" y="8.724" width="0.379" height="0.379" fill="#000"/>
<rect x="64.439" y="8.724" width="0.379" height="0.379" fill="#000"/>
<rect x="65.198" y="8.724" width="0.379" height="0.379" fill="#000"/>
<rect x="65.956" y="8.724" width="0.379" height="0.379" fill="#000"/>
<rect x="67.094" y="8.724" width="0.379" height="0.379" fill="#000"/>
<rect x="67.474" y="8.724" width="0.379" height="0.379" fill="#000"/>
<rect x="68.991" y="8.724" width="0.379" height="0.379" fill="#000"/>
<rect x="69.749" y="8.724" width="0.379" height="0.379" fill="#000"/>
<rect x="62.163" y="9.103" width="0.379" height="0.379" fill="#000"/>
<rect x="62.543" y="9.103" width="0.379" height="0.379" fill="#000"/>
<rect x="62.922" y="9.103" width="0.379" height="0.379" fill="#000"/>
<rect x="63.301" y="9.103" width="0.379" height="0.379" fill="#000"/>
<rect x="63.680" y="9.103" width="0.379" height="0.379" fill="#000"/>
<rect x="64.060" y="9.103" width="0.379" height="0.379" fill="#000"/>
<rect x="64.439" y="9.103" width="0.379" height="0.379" fill="#000"/>
<rect x="66.336" y="9.103" width="0.379" height="0.379" fill="#000"/>
<rect x="66.715" y="9.103" width="0.379" height="0.379" fill="#000"/>
<rect x="68.232" y="9.103" width="0.379" height="0.379" fill="#000"/>
<rect x="68.991" y="9.103" width="0.379" height="0.379" fill="#000"/>
</svg>
