<svg xmlns="http://www.w3.org/2000/svg" width="18.000mm" height="9.000mm" viewBox="0 0 18.000 9.000">
<rect x="1.241" y="1.241" width="0.310" height="0.310" fill="#000"/>
<rect x="1.552" y="1.241" width="0.310" height="0.310" fill="#000"/>
<rect x="1.862" y="1.241" width="0.310" height="0.310" fill="#000"/>
<rect x="2.172" y="1.241" width="0.310" height="0.310" fill="#000"/>
<rect x="2.483" y="1.241" width="0.310" height="0.310" fill="#000"/>
<rect x="2.793" y="1.241" width="0.310" height="0.310" fill="#000"/>
<rect x="3.103" y="1.241" width="0.310" height="0.310" fill="#000"/>
<rect x="4.034" y="1.241" width="0.310" height="0.310" fill="#000"/>
<rect x="4.345" y="1.241" width="0.310" height="0.310" fill="#000"/>
<rect x="4.966" y="1.241" width="0.310" height="0.310" fill="#000"/>
<rect x="5.586" y="1.241" width="0.310" height="0.310" fill="#000"/>
<rect x="5.897" y="1.241" width="0.310" height="0.310" fill="#000"/>
<rect x="6.207" y="1.241" width="0.310" height="0.310" fill="#000"/>
<rect x="6.517" y="1.241" width="0.310" height="0.310" fill="#000"/>
<rect x="6.828" y="1.241" width="0.310" height="0.310" fill="#000"/>
<rect x="7.138" y="1.241" width="0.310" height="0.310" fill="#000"/>
<rect x="7.448" y="1.241" width="0.310" height="0.310" fill="#000"/>
<rect x="1.241" y="1.552" width="0.310" height="0.310" fill="#000"/>
<rect x="3.103" y="1.552" width="0.310" height="0.310" fill="#000"/>
<rect x="3.724" y="1.552" width="0.310" height="0.310" fill="#000"/>
<rect x="5.586" y="1.552" width="0.310" height="0.310" fill="#000"/>
<rect x="7.448" y="1.552" width="0.310" height="0.310" fill="#000"/>
<rect x="1.241" y="1.862" width="0.310" height="0.310" fill="#000"/>
<rect x="1.862" y="1.862" width="0.310" height="0.310" fill="#000"/>
<rect x="2.172" y="1.862" width="0.310" height="0.310" fill="#000"/>
<rect x="2.483" y="1.862" width="0.310" height="0.310" fill="#000"/>
<rect x="3.103" y="1.862" width="0.310" height="0.310" fill="#000"/>
<rect x="4.345" y="1.862" width="0.310" height="0.310" fill="#000"/>
<rect x="4.655" y="1.862" width="0.310" height="0.310" fill="#000"/>
<rect x="5.586" y="1.862" width="0.310" height="0.310" fill="#000"/>
<rect x="6.207" y="1.862" width="0.310" height="0.310" fill="#000"/>
<rect x="6.517" y="1.862" width="0.310" height="0.310" fill="#000"/>
<rect x="6.828" y="1.862" width="0.310" height="0.310" fill="#000"/>
<rect x="7.448" y="1.862" width="0.310" height="0.310" fill="#000"/>
<rect x="1.241" y="2.172" width="0.310" height="0.310" fill="#000"/>
<rect x="1.862" y="2.172" width="0.310" height="0.310" fill="#000"/>
<rect x="2.172" y="2.172" width="0.310" height="0.310" fill="#000"/>
<rect x="2.483" y="2.172" width="0.310" height="0.310" fill="#000"/>
<rect x="3.103" y="2.172" width="0.310" height="0.310" fill="#000"/>
<rect x="4.034" y="2.172" width="0.310" height="0.310" fill="#000"/>
<rect x="5.586" y="2.172" width="0.310" height="0.310" fill="#000"/>
<rect x="6.207" y="2.172" width="0.310" height="0.310" fill="#000"/>
<rect x="6.517" y="2.172" width="0.310" height="0.310" fill="#000"/>
<rect x="6.828" y="2.172" width="0.310" height="0.310" fill="#000"/>
<rect x="7.448" y="2.172" width="0.310" height="0.310" fill="#000"/>
<rect x="1.241" y="2.483" width="0.310" height="0.310" fill="#000"/>
<rect x="1.862" y="2.483" width="0.310" height="0.310" fill="#000"/>
<rect x="2.172" y="2.483" width="0.310" height="0.310" fill="#000"/>
<rect x="2.483" y="2.483" width="0.310" height="0.310" fill="#000"/>
<rect x="3.103" y="2.483" width="0.310" height="0.310" fill="#000"/>
<rect x="3.724" y="2.483" width="0.310" height="0.310" fill="#000"/>
<rect x="4.034" y="2.483" width="0.310" height="0.310" fill="#000"/>
<rect x="4.345" y="2.483" width="0.310" height="0.310" fill="#000"/>
<rect x="4.966" y="2.483" width="0.310" height="0.310" fill="#000"/>
<rect x="5.586" y="2.483" width="0.310" height="0.310" fill="#000"/>
<rect x="6.207" y="2.483" width="0.310" height="0.310" fill="#000"/>
<rect x="6.517" y="2.483" width="0.310" height="0.310" fill="#000"/>
<rect x="6.828" y="2.483" width="0.310" height="0.310" fill="#000"/>
<rect x="7.448" y="2.483" width="0.310" height="0.310" fill="#000"/>
<rect x="1.241" y="2.793" width="0.310" height="0.310" fill="#000"/>
<rect x="3.103" y="2.793" width="0.310" height="0.310" fill="#000"/>
<rect x="4.966" y="2.793" width="0.310" height="0.310" fill="#000"/>
<rect x="5.586" y="2.793" width="0.310" height="0.310" fill="#000"/>
<rect x="7.448" y="2.793" width="0.310" height="0.310" fill="#000"/>
<rect x="1.241" y="3.103" width="0.310" height="0.310" fill="#000"/>
<rect x="1.552" y="3.103" width="0.310" height="0.310" fill="#000"/>
<rect x="1.862" y="3.103" width="0.310" height="0.310" fill="#000"/>
<rect x="2.172" y="3.103" width="0.310" height="0.310" fill="#000"/>
<rect x="2.483" y="3.103" width="0.310" height="0.310" fill="#000"/>
<rect x="2.793" y="3.103" width="0.310" height="0.310" fill="#000"/>
<rect x="3.103" y="3.103" width="0.310" height="0.310" fill="#000"/>
<rect x="3.724" y="3.103" width="0.310" height="0.310" fill="#000"/>
<rect x="4.345" y="3.103" width="0.310" height="0.310" fill="#000"/>
<rect x="4.966" y="3.103" width="0.310" height="0.310" fill="#000"/>
<rect x="5.586" y="3.103" width="0.310" height="0.310" fill="#000"/>
<rect x="5.897" y="3.103" width="0.310" height="0.310" fill="#000"/>
<rect x="6.207" y="3.103" width="0.310" height="0.310" fill="#000"/>
<rect x="6.517" y="3.103" width="0.310" height="0.310" fill="#000"/>
<rect x="6.828" y="3.103" width="0.310" height="0.310" fill="#000"/>
<rect x="7.138" y="3.103" width="0.310" height="0.310" fill="#000"/>
<rect x="7.448" y="3.103" width="0.310" height="0.310" fill="#000"/>
<rect x="4.034" y="3.414" width="0.310" height="0.310" fill="#000"/>
<rect x="4.655" y="3.414" width="0.310" height="0.310" fill="#000"/>
<rect x="4.966" y="3.414" width="0.310" height="0.310" fill="#000"/>
<rect x="1.241" y="3.724" width="0.310" height="0.310" fill="#000"/>
<rect x="1.862" y="3.724" width="0.310" height="0.310" fill="#000"/>
<rect x="2.483" y="3.724" width="0.310" height="0.310" fill="#000"/>
<rect x="3.103" y="3.724" width="0.310" height="0.310" fill="#000"/>
<rect x="4.655" y="3.724" width="0.310" height="0.310" fill="#000"/>
<rect x="6.207" y="3.724" width="0.310" height="0.310" fill="#000"/>
<rect x="7.138" y="3.724" width="0.310" height="0.310" fill="#000"/>
<rect x="1.862" y="4.034" width="0.310" height="0.310" fill="#000"/>
<rect x="2.483" y="4.034" width="0.310" height="0.310" fill="#000"/>
<rect x="3.414" y="4.034" width="0.310" height="0.310" fill="#000"/>
<rect x="4.034" y="4.034" width="0.310" height="0.310" fill="#000"/>
<rect x="5.276" y="4.034" width="0.310" height="0.310" fill="#000"/>
<rect x="5.586" y="4.034" width="0.310" height="0.310" fill="#000"/>
<rect x="7.138" y="4.034" width="0.310" height="0.310" fill="#000"/>
<rect x="7.448" y="4.034" width="0.310" height="0.310" fill="#000"/>
<rect x="1.241" y="4.345" width="0.310" height="0.310" fill="#000"/>
<rect x="1.862" y="4.345" width="0.310" height="0.310" fill="#000"/>
<rect x="2.793" y="4.345" width="0.310" height="0.310" fill="#000"/>
<rect x="3.103" y="4.345" width="0.310" height="0.310" fill="#000"/>
<rect x="3.414" y="4.345" width="0.310" height="0.310" fill="#000"/>
<rect x="4.034" y="4.345" width="0.310" height="0.310" fill="#000"/>
<rect x="4.966" y="4.345" width="0.310" height="0.310" fill="#000"/>
<rect x="5.276" y="4.345" width="0.310" height="0.310" fill="#000"/>
<rect x="6.517" y="4.345" width="0.310" height="0.310" fill="#000"/>
<rect x="6.828" y="4.345" width="0.310" height="0.310" fill="#000"/>
<rect x="7.138" y="4.345" width="0.310" height="0.310" fill="#000"/>
<rect x="7.448" y="4.345" width="0.310" height="0.310" fill="#000"/>
<rect x="1.862" y="4.655" width="0.310" height="0.310" fill="#000"/>
<rect x="2.172" y="4.655" width="0.310" height="0.310" fill="#000"/>
<rect x="3.724" y="4.655" width="0.310" height="0.310" fill="#000"/>
<rect x="5.586" y="4.655" width="0.310" height="0.310" fill="#000"/>
<rect x="5.897" y="4.655" width="0.310" height="0.310" fill="#000"/>
<rect x="6.517" y="4.655" width="0.310" height="0.310" fill="#000"/>
<rect x="6.828" y="4.655" width="0.310" height="0.310" fill="#000"/>
<rect x="7.448" y="4.655" width="0.310" height="0.310" fill="#000"/>
<rect x="2.172" y="4.966" width="0.310" height="0.310" fill="#000"/>
<rect x="2.483" y="4.966" width="0.310" height="0.310" fill="#000"/>
<rect x="2.793" y="4.966" width="0.310" height="0.310" fill="#000"/>
<rect x="3.103" y="4.966" width="0.310" height="0.310" fill="#000"/>
<rect x="3.414" y="4.966" width="0.310" height="0.310" fill="#000"/>
<rect x="4.034" y="4.966" width="0.310" height="0.310" fill="#000"/>
<rect x="4.345" y="4.966" width="0.310" height="0.310" fill="#000"/>
<rect x="4.966" y="4.966" width="0.310" height="0.310" fill="#000"/>
<rect x="5.897" y="4.966" width="0.310" height="0.310" fill="#000"/>
<rect x="6.517" y="4.966" width="0.310" height="0.310" fill="#000"/>
<rect x="7.138" y="4.966" width="0.310" height="0.310" fill="#000"/>
<rect x="3.724" y="5.276" width="0.310" height="0.310" fill="#000"/>
<rect x="4.034" y="5.276" width="0.310" height="0.310" fill="#000"/>
<rect x="4.655" y="5.276" width="0.310" height="0.310" fill="#000"/>
<rect x="5.276" y="5.276" width="0.310" height="0.310" fill="#000"/>
<rect x="6.207" y="5.276" width="0.310" height="0.310" fill="#000"/>
<rect x="1.241" y="5.586" width="0.310" height="0.310" fill="#000"/>
<rect x="1.552" y="5.586" width="0.310" height="0.310" fill="#000"/>
<rect x="1.862" y="5.586" width="0.310" height="0.310" fill="#000"/>
<rect x="2.172" y="5.586" width="0.310" height="0.310" fill="#000"/>
<rect x="2.483" y="5.586" width="0.310" height="0.310" fill="#000"/>
<rect x="2.793" y="5.586" width="0.310" height="0.310" fill="#000"/>
<rect x="3.103" y="5.586" width="0.310" height="0.310" fill="#000"/>
<rect x="4.034" y="5.586" width="0.310" height="0.310" fill="#000"/>
<rect x="4.655" y="5.586" width="0.310" height="0.310" fill="#000"/>
<rect x="5.586" y="5.586" width="0.310" height="0.310" fill="#000"/>
<rect x="6.828" y="5.586" width="0.310" height="0.310" fill="#000"/>
<rect x="7.448" y="5.586" width="0.310" height="0.310" fill="#000"/>
<rect x="1.241" y="5.897" width="0.310" height="0.310" fill="#000"/>
<rect x="3.103" y="5.897" width="0.310" height="0.310" fill="#000"/>
<rect x="4.655" y="5.897" width="0.310" height="0.310" fill="#000"/>
<rect x="4.966" y="5.897" width="0.310" height="0.310" fill="#000"/>
<rect x="5.276" y="5.897" width="0.310" height="0.310" fill="#000"/>
<rect x="6.517" y="5.897" width="0.310" height="0.310" fill="#000"/>
<rect x="7.138" y="5.897" width="0.310" height="0.310" fill="#000"/>
<rect x="7.448" y="5.897" width="0.310" height="0.310" fill="#000"/>
<rect x="1.241" y="6.207" width="0.310" height="0.310" fill="#000"/>
<rect x="1.862" y="6.207" width="0.310" height="0.310" fill="#000"/>
<rect x="2.172" y="6.207" width="0.310" height="0.310" fill="#000"/>
<rect x="2.483" y="6.207" width="0.310" height="0.310" fill="#000"/>
<rect x="3.103" y="6.207" width="0.310" height="0.310" fill="#000"/>
<rect x="3.724" y="6.207" width="0.310" height="0.310" fill="#000"/>
<rect x="4.034" y="6.207" width="0.310" height="0.310" fill="#000"/>
<rect x="4.655" y="6.207" width="0.310" height="0.310" fill="#000"/>
<rect x="5.586" y="6.207" width="0.310" height="0.310" fill="#000"/>
<rect x="5.897" y="6.207" width="0.310" height="0.310" fill="#000"/>
<rect x="7.138" y="6.207" width="0.310" height="0.310" fill="#000"/>
<rect x="7.448" y="6.207" width="0.310" height="0.310" fill="#000"/>
<rect x="1.241" y="6.517" width="0.310" height="0.310" fill="#000"/>
<rect x="1.862" y="6.517" width="0.310" height="0.310" fill="#000"/>
<rect x="2.172" y="6.517" width="0.310" height="0.310" fill="#000"/>
<rect x="2.483" y="6.517" width="0.310" height="0.310" fill="#000"/>
<rect x="3.103" y="6.517" width="0.310" height="0.310" fill="#000"/>
<rect x="4.345" y="6.517" width="0.310" height="0.310" fill="#000"/>
<rect x="5.586" y="6.517" width="0.310" height="0.310" fill="#000"/>
<rect x="6.207" y="6.517" width="0.310" height="0.310" fill="#000"/>
<rect x="6.828" y="6.517" width="0.310" height="0.310" fill="#000"/>
<rect x="7.138" y="6.517" width="0.310" height="0.310" fill="#000"/>
<rect x="1.241" y="6.828" width="0.310" height="0.310" fill="#000"/>
<rect x="1.862" y="6.828" width="0.310" height="0.310" fill="#000"/>
<rect x="2.172" y="6.828" width="0.310" height="0.310" fill="#000"/>
<rect x="2.483" y="6.828" width="0.310" height="0.310" fill="#000"/>
<rect x="3.103" y="6.828" width="0.310" height="0.310" fill="#000"/>
<rect x="3.724" y="6.828" width="0.310" height="0.310" fill="#000"/>
<rect x="4.966" y="6.828" width="0.310" height="0.310" fill="#000"/>
<rect x="6.517" y="6.828" width="0.310" height="0.310" fill="#000"/>
<rect x="7.448" y="6.828" width="0.310" height="0.310" fill="#000"/>
<rect x="1.241" y="7.138" width="0.310" height="0.310" fill="#000"/>
<rect x="3.103" y="7.138" width="0.310" height="0.310" fill="#000"/>
<rect x="4.345" y="7.138" width="0.310" height="0.310" fill="#000"/>
<rect x="5.586" y="7.138" width="0.310" height="0.310" fill="#000"/>
<rect x="6.517" y="7.138" width="0.310" height="0.310" fill="#000"/>
<rect x="7.138" y="7.138" width="0.310" height="0.310" fill="#000"/>
<rect x="7.448" y="7.138" width="0.310" height="0.310" fill="#000"/>
<rect x="1.241" y="7.448" width="0.310" height="0.310" fill="#000"/>
<rect x="1.552" y="7.448" width="0.310" height="0.310" fill="#000"/>
<rect x="1.862" y="7.448" width="0.310" height="0.310" fill="#000"/>
<rect x="2.172" y="7.448" width="0.310" height="0.310" fill="#000"/>
<rect x="2.483" y="7.448" width="0.310" height="0.310" fill="#000"/>
<rect x="2.793" y="7.448" width="0.310" height="0.310" fill="#000"/>
<rect x="3.103" y="7.448" width="0.310" height="0.310" fill="#000"/>
<rect x="3.724" y="7.448" width="0.310" height="0.310" fill="#000"/>
<rect x="4.034" y="7.448" width="0.310" height="0.310" fill="#000"/>
<rect x="4.966" y="7.448" width="0.310" height="0.310" fill="#000"/>
<rect x="5.586" y="7.448" width="0.310" height="0.310" fill="#000"/>
<rect x="5.897" y="7.448" width="0.310" height="0.310" fill="#000"/>
<rect x="7.448" y="7.448" width="0.310" height="0.310" fill="#000"/>
<text x="13.500" y="3.559" font-family="Consolas, monospace" font-weight="bold" font-size="3.764" text-anchor="middle" fill="#000">B7GA</text>
<text x="13.500" y="8.075" font-family="Consolas, monospace" font-weight="bold" font-size="3.764" text-anchor="middle" fill="#000">48WN</text>
</svg>
