<svg xmlns="http://www.w3.org/2000/svg" width="85.469mm" height="11.000mm" viewBox="0 0 85.469 11.000">
<rect x="1.517" y="1.517" width="0.379" height="0.379" fill="#000"/>
<rect x="1.897" y="1.517" width="0.379" height="0.379" fill="#000"/>
<rect x="2.276" y="1.517" width="0.379" height="0.379" fill="#000"/>
<rect x="2.655" y="1.517" width="0.379" height="0.379" fill="#000"/>
<rect x="3.034" y="1.517" width="0.379" height="0.379" fill="#000"/>
<rect x="3.414" y="1.517" width="0.379" height="0.379" fill="#000"/>
<rect x="3.793" y="1.517" width="0.379" height="0.379" fill="#000"/>
<rect x="4.552" y="1.517" width="0.379" height="0.379" fill="#000"/>
<rect x="6.069" y="1.517" width="0.379" height="0.379" fill="#000"/>
<rect x="6.828" y="1.517" width="0.379" height="0.379" fill="#000"/>
<rect x="7.207" y="1.517" width="0.379" height="0.379" fill="#000"/>
<rect x="7.586" y="1.517" width="0.379" height="0.379" fill="#000"/>
<rect x="7.966" y="1.517" width="0.379" height="0.379" fill="#000"/>
<rect x="8.345" y="1.517" width="0.379" height="0.379" fill="#000"/>
<rect x="8.724" y="1.517" width="0.379" height="0.379" fill="#000"/>
<rect x="9.103" y="1.517" width="0.379" height="0.379" fill="#000"/>
<rect x="1.517" y="1.897" width="0.379" height="0.379" fill="#000"/>
<rect x="3.793" y="1.897" width="0.379" height="0.379" fill="#000"/>
<rect x="4.931" y="1.897" width="0.379" height="0.379" fill="#000"/>
<rect x="5.310" y="1.897" width="0.379" height="0.379" fill="#000"/>
<rect x="5.690" y="1.897" width="0.379" height="0.379" fill="#000"/>
<rect x="6.828" y="1.897" width="0.379" height="0.379" fill="#000"/>
<rect x="9.103" y="1.897" width="0.379" height="0.379" fill="#000"/>
<rect x="1.517" y="2.276" width="0.379" height="0.379" fill="#000"/>
<rect x="2.276" y="2.276" width="0.379" height="0.379" fill="#000"/>
<rect x="2.655" y="2.276" width="0.379" height="0.379" fill="#000"/>
<rect x="3.034" y="2.276" width="0.379" height="0.379" fill="#000"/>
<rect x="3.793" y="2.276" width="0.379" height="0.379" fill="#000"/>
<rect x="4.552" y="2.276" width="0.379" height="0.379" fill="#000"/>
<rect x="5.310" y="2.276" width="0.379" height="0.379" fill="#000"/>
<rect x="5.690" y="2.276" width="0.379" height="0.379" fill="#000"/>
<rect x="6.828" y="2.276" width="0.379" height="0.379" fill="#000"/>
<rect x="7.586" y="2.276" width="0.379" height="0.379" fill="#000"/>
<rect x="7.966" y="2.276" width="0.379" height="0.379" fill="#000"/>
<rect x="8.345" y="2.276" width="0.379" height="0.379" fill="#000"/>
<rect x="9.103" y="2.276" width="0.379" height="0.379" fill="#000"/>
<rect x="1.517" y="2.655" width="0.379" height="0.379" fill="#000"/>
<rect x="2.276" y="2.655" width="0.379" height="0.379" fill="#000"/>
<rect x="2.655" y="2.655" width="0.379" height="0.379" fill="#000"/>
<rect x="3.034" y="2.655" width="0.379" height="0.379" fill="#000"/>
<rect x="3.793" y="2.655" width="0.379" height="0.379" fill="#000"/>
<rect x="4.552" y="2.655" width="0.379" height="0.379" fill="#000"/>
<rect x="4.931" y="2.655" width="0.379" height="0.379" fill="#000"/>
<rect x="5.310" y="2.655" width="0.379" height="0.379" fill="#000"/>
<rect x="6.069" y="2.655" width="0.379" height="0.379" fill="#000"/>
<rect x="6.828" y="2.655" width="0.379" height="0.379" fill="#000"/>
<rect x="7.586" y="2.655" width="0.379" height="0.379" fill="#000"/>
<rect x="7.966" y="2.655" width="0.379" height="0.379" fill="#000"/>
<rect x="8.345" y="2.655" width="0.379" height="0.379" fill="#000"/>
<rect x="9.103" y="2.655" width="0.379" height="0.379" fill="#000"/>
<rect x="1.517" y="3.034" width="0.379" height="0.379" fill="#000"/>
<rect x="2.276" y="3.034" width="0.379" height="0.379" fill="#000"/>
<rect x="2.655" y="3.034" width="0.379" height="0.379" fill="#000"/>
<rect x="3.034" y="3.034" width="0.379" height="0.379" fill="#000"/>
<rect x="3.793" y="3.034" width="0.379" height="0.379" fill="#000"/>
<rect x="4.931" y="3.034" width="0.379" height="0.379" fill="#000"/>
<rect x="5.310" y="3.034" width="0.379" height="0.379" fill="#000"/>
<rect x="6.828" y="3.034" width="0.379" height="0.379" fill="#000"/>
<rect x="7.586" y="3.034" width="0.379" height="0.379" fill="#000"/>
<rect x="7.966" y="3.034" width="0.379" height="0.379" fill="#000"/>
<rect x="8.345" y="3.034" width="0.379" height="0.379" fill="#000"/>
<rect x="9.103" y="3.034" width="0.379" height="0.379" fill="#000"/>
<rect x="1.517" y="3.414" width="0.379" height="0.379" fill="#000"/>
<rect x="3.793" y="3.414" width="0.379" height="0.379" fill="#000"/>
<rect x="4.552" y="3.414" width="0.379" height="0.379" fill="#000"/>
<rect x="4.931" y="3.414" width="0.379" height="0.379" fill="#000"/>
<rect x="6.069" y="3.414" width="0.379" height="0.379" fill="#000"/>
<rect x="6.828" y="3.414" width="0.379" height="0.379" fill="#000"/>
<rect x="9.103" y="3.414" width="0.379" height="0.379" fill="#000"/>
<rect x="1.517" y="3.793" width="0.379" height="0.379" fill="#000"/>
<rect x="1.897" y="3.793" width="0.379" height="0.379" fill="#000"/>
<rect x="2.276" y="3.793" width="0.379" height="0.379" fill="#000"/>
<rect x="2.655" y="3.793" width="0.379" height="0.379" fill="#000"/>
<rect x="3.034" y="3.793" width="0.379" height="0.379" fill="#000"/>
<rect x="3.414" y="3.793" width="0.379" height="0.379" fill="#000"/>
<rect x="3.793" y="3.793" width="0.379" height="0.379" fill="#000"/>
<rect x="4.552" y="3.793" width="0.379" height="0.379" fill="#000"/>
<rect x="5.310" y="3.793" width="0.379" height="0.379" fill="#000"/>
<rect x="6.069" y="3.793" width="0.379" height="0.379" fill="#000"/>
<rect x="6.828" y="3.793" width="0.379" height="0.379" fill="#000"/>
<rect x="7.207" y="3.793" width="0.379" height="0.379" fill="#000"/>
<rect x="7.586" y="3.793" width="0.379" height="0.379" fill="#000"/>
<rect x="7.966" y="3.793" width="0.379" height="0.379" fill="#000"/>
<rect x="8.345" y="3.793" width="0.379" height="0.379" fill="#000"/>
<rect x="8.724" y="3.793" width="0.379" height="0.379" fill="#000"/>
<rect x="9.103" y="3.793" width="0.379" height="0.379" fill="#000"/>
<rect x="4.552" y="4.172" width="0.379" height="0.379" fill="#000"/>
<rect x="5.690" y="4.172" width="0.379" height="0.379" fill="#000"/>
<rect x="6.069" y="4.172" width="0.379" height="0.379" fill="#000"/>
<rect x="1.897" y="4.552" width="0.379" height="0.379" fill="#000"/>
<rect x="2.655" y="4.552" width="0.379" height="0.379" fill="#000"/>
<rect x="3.414" y="4.552" width="0.379" height="0.379" fill="#000"/>
<rect x="3.793" y="4.552" width="0.379" height="0.379" fill="#000"/>
<rect x="4.172" y="4.552" width="0.379" height="0.379" fill="#000"/>
<rect x="4.552" y="4.552" width="0.379" height="0.379" fill="#000"/>
<rect x="4.931" y="4.552" width="0.379" height="0.379" fill="#000"/>
<rect x="5.690" y="4.552" width="0.379" height="0.379" fill="#000"/>
<rect x="6.069" y="4.552" width="0.379" height="0.379" fill="#000"/>
<rect x="6.448" y="4.552" width="0.379" height="0.379" fill="#000"/>
<rect x="6.828" y="4.552" width="0.379" height="0.379" fill="#000"/>
<rect x="7.207" y="4.552" width="0.379" height="0.379" fill="#000"/>
<rect x="7.966" y="4.552" width="0.379" height="0.379" fill="#000"/>
<rect x="8.345" y="4.552" width="0.379" height="0.379" fill="#000"/>
<rect x="9.103" y="4.552" width="0.379" height="0.379" fill="#000"/>
<rect x="1.517" y="4.931" width="0.379" height="0.379" fill="#000"/>
<rect x="1.897" y="4.931" width="0.379" height="0.379" fill="#000"/>
<rect x="2.276" y="4.931" width="0.379" height="0.379" fill="#000"/>
<rect x="3.414" y="4.931" width="0.379" height="0.379" fill="#000"/>
<rect x="4.552" y="4.931" width="0.379" height="0.379" fill="#000"/>
<rect x="4.931" y="4.931" width="0.379" height="0.379" fill="#000"/>
<rect x="5.310" y="4.931" width="0.379" height="0.379" fill="#000"/>
<rect x="6.069" y="4.931" width="0.379" height="0.379" fill="#000"/>
<rect x="9.103" y="4.931" width="0.379" height="0.379" fill="#000"/>
<rect x="1.517" y="5.310" width="0.379" height="0.379" fill="#000"/>
<rect x="1.897" y="5.310" width="0.379" height="0.379" fill="#000"/>
<rect x="2.276" y="5.310" width="0.379" height="0.379" fill="#000"/>
<rect x="3.034" y="5.310" width="0.379" height="0.379" fill="#000"/>
<rect x="3.414" y="5.310" width="0.379" height="0.379" fill="#000"/>
<rect x="3.793" y="5.310" width="0.379" height="0.379" fill="#000"/>
<rect x="4.172" y="5.310" width="0.379" height="0.379" fill="#000"/>
<rect x="5.690" y="5.310" width="0.379" height="0.379" fill="#000"/>
<rect x="6.448" y="5.310" width="0.379" height="0.379" fill="#000"/>
<rect x="6.828" y="5.310" width="0.379" height="0.379" fill="#000"/>
<rect x="7.586" y="5.310" width="0.379" height="0.379" fill="#000"/>
<rect x="7.966" y="5.310" width="0.379" height="0.379" fill="#000"/>
<rect x="8.724" y="5.310" width="0.379" height="0.379" fill="#000"/>
<rect x="9.103" y="5.310" width="0.379" height="0.379" fill="#000"/>
<rect x="2.276" y="5.690" width="0.379" height="0.379" fill="#000"/>
<rect x="3.034" y="5.690" width="0.379" height="0.379" fill="#000"/>
<rect x="4.172" y="5.690" width="0.379" height="0.379" fill="#000"/>
<rect x="5.310" y="5.690" width="0.379" height="0.379" fill="#000"/>
<rect x="5.690" y="5.690" width="0.379" height="0.379" fill="#000"/>
<rect x="6.069" y="5.690" width="0.379" height="0.379" fill="#000"/>
<rect x="7.586" y="5.690" width="0.379" height="0.379" fill="#000"/>
<rect x="7.966" y="5.690" width="0.379" height="0.379" fill="#000"/>
<rect x="8.345" y="5.690" width="0.379" height="0.379" fill="#000"/>
<rect x="8.724" y="5.690" width="0.379" height="0.379" fill="#000"/>
<rect x="1.517" y="6.069" width="0.379" height="0.379" fill="#000"/>
<rect x="2.276" y="6.069" width="0.379" height="0.379" fill="#000"/>
<rect x="3.034" y="6.069" width="0.379" height="0.379" fill="#000"/>
<rect x="3.414" y="6.069" width="0.379" height="0.379" fill="#000"/>
<rect x="3.793" y="6.069" width="0.379" height="0.379" fill="#000"/>
<rect x="4.172" y="6.069" width="0.379" height="0.379" fill="#000"/>
<rect x="4.552" y="6.069" width="0.379" height="0.379" fill="#000"/>
<rect x="5.690" y="6.069" width="0.379" height="0.379" fill="#000"/>
<rect x="6.069" y="6.069" width="0.379" height="0.379" fill="#000"/>
<rect x="6.828" y="6.069" width="0.379" height="0.379" fill="#000"/>
<rect x="7.207" y="6.069" width="0.379" height="0.379" fill="#000"/>
<rect x="7.966" y="6.069" width="0.379" height="0.379" fill="#000"/>
<rect x="8.724" y="6.069" width="0.379" height="0.379" fill="#000"/>
<rect x="9.103" y="6.069" width="0.379" height="0.379" fill="#000"/>
<rect x="4.552" y="6.448" width="0.379" height="0.379" fill="#000"/>
<rect x="5.690" y="6.448" width="0.379" height="0.379" fill="#000"/>
<rect x="7.207" y="6.448" width="0.379" height="0.379" fill="#000"/>
<rect x="7.586" y="6.448" width="0.379" height="0.379" fill="#000"/>
<rect x="7.966" y="6.448" width="0.379" height="0.379" fill="#000"/>
<rect x="8.345" y="6.448" width="0.379" height="0.379" fill="#000"/>
<rect x="1.517" y="6.828" width="0.379" height="0.379" fill="#000"/>
<rect x="1.897" y="6.828" width="0.379" height="0.379" fill="#000"/>
<rect x="2.276" y="6.828" width="0.379" height="0.379" fill="#000"/>
<rect x="2.655" y="6.828" width="0.379" height="0.379" fill="#000"/>
<rect x="3.034" y="6.828" width="0.379" height="0.379" fill="#000"/>
<rect x="3.414" y="6.828" width="0.379" height="0.379" fill="#000"/>
<rect x="3.793" y="6.828" width="0.379" height="0.379" fill="#000"/>
<rect x="4.552" y="6.828" width="0.379" height="0.379" fill="#000"/>
<rect x="4.931" y="6.828" width="0.379" height="0.379" fill="#000"/>
<rect x="5.310" y="6.828" width="0.379" height="0.379" fill="#000"/>
<rect x="5.690" y="6.828" width="0.379" height="0.379" fill="#000"/>
<rect x="7.207" y="6.828" width="0.379" height="0.379" fill="#000"/>
<rect x="7.966" y="6.828" width="0.379" height="0.379" fill="#000"/>
<rect x="1.517" y="7.207" width="0.379" height="0.379" fill="#000"/>
<rect x="3.793" y="7.207" width="0.379" height="0.379" fill="#000"/>
<rect x="4.552" y="7.207" width="0.379" height="0.379" fill="#000"/>
<rect x="4.931" y="7.207" width="0.379" height="0.379" fill="#000"/>
<rect x="5.690" y="7.207" width="0.379" height="0.379" fill="#000"/>
<rect x="6.448" y="7.207" width="0.379" height="0.379" fill="#000"/>
<rect x="7.207" y="7.207" width="0.379" height="0.379" fill="#000"/>
<rect x="7.966" y="7.207" width="0.379" height="0.379" fill="#000"/>
<rect x="8.345" y="7.207" width="0.379" height="0.379" fill="#000"/>
<rect x="8.724" y="7.207" width="0.379" height="0.379" fill="#000"/>
<rect x="9.103" y="7.207" width="0.379" height="0.379" fill="#000"/>
<rect x="1.517" y="7.586" width="0.379" height="0.379" fill="#000"/>
<rect x="2.276" y="7.586" width="0.379" height="0.379" fill="#000"/>
<rect x="2.655" y="7.586" width="0.379" height="0.379" fill="#000"/>
<rect x="3.034" y="7.586" width="0.379" height="0.379" fill="#000"/>
<rect x="3.793" y="7.586" width="0.379" height="0.379" fill="#000"/>
<rect x="4.931" y="7.586" width="0.379" height="0.379" fill="#000"/>
<rect x="5.310" y="7.586" width="0.379" height="0.379" fill="#000"/>
<rect x="5.690" y="7.586" width="0.379" height="0.379" fill="#000"/>
<rect x="6.069" y="7.586" width="0.379" height="0.379" fill="#000"/>
<rect x="6.448" y="7.586" width="0.379" height="0.379" fill="#000"/>
<rect x="6.828" y="7.586" width="0.379" height="0.379" fill="#000"/>
<rect x="7.586" y="7.586" width="0.379" height="0.379" fill="#000"/>
<rect x="9.103" y="7.586" width="0.379" height="0.379" fill="#000"/>
<rect x="1.517" y="7.966" width="0.379" height="0.379" fill="#000"/>
<rect x="2.276" y="7.966" width="0.379" height="0.379" fill="#000"/>
<rect x="2.655" y="7.966" width="0.379" height="0.379" fill="#000"/>
<rect x="3.034" y="7.966" width="0.379" height="0.379" fill="#000"/>
<rect x="3.793" y="7.966" width="0.379" height="0.379" fill="#000"/>
<rect x="4.552" y="7.966" width="0.379" height="0.379" fill="#000"/>
<rect x="4.931" y="7.966" width="0.379" height="0.379" fill="#000"/>
<rect x="5.690" y="7.966" width="0.379" height="0.379" fill="#000"/>
<rect x="7.207" y="7.966" width="0.379" height="0.379" fill="#000"/>
<rect x="7.586" y="7.966" width="0.379" height="0.379" fill="#000"/>
<rect x="8.724" y="7.966" width="0.379" height="0.379" fill="#000"/>
<rect x="9.103" y="7.966" width="0.379" height="0.379" fill="#000"/>
<rect x="1.517" y="8.345" width="0.379" height="0.379" fill="#000"/>
<rect x="2.276" y="8.345" width="0.379" height="0.379" fill="#000"/>
<rect x="2.655" y="8.345" width="0.379" height="0.379" fill="#000"/>
<rect x="3.034" y="8.345" width="0.379" height="0.379" fill="#000"/>
<rect x="3.793" y="8.345" width="0.379" height="0.379" fill="#000"/>
<rect x="4.931" y="8.345" width="0.379" height="0.379" fill="#000"/>
<rect x="5.310" y="8.345" width="0.379" height="0.379" fill="#000"/>
<rect x="6.069" y="8.345" width="0.379" height="0.379" fill="#000"/>
<rect x="7.586" y="8.345" width="0.379" height="0.379" fill="#000"/>
<rect x="8.345" y="8.345" width="0.379" height="0.379" fill="#000"/>
<rect x="9.103" y="8.345" width="0.379" height="0.379" fill="#000"/>
<rect x="1.517" y="8.724" width="0.379" height="0.379" fill="#000"/>
<rect x="3.793" y="8.724" width="0.379" height="0.379" fill="#000"/>
<rect x="4.552" y="8.724" width="0.379" height="0.379" fill="#000"/>
<rect x="4.931" y="8.724" width="0.379" height="0.379" fill="#000"/>
<rect x="5.310" y="8.724" width="0.379" height="0.379" fill="#000"/>
<rect x="6.448" y="8.724" width="0.379" height="0.379" fill="#000"/>
<rect x="6.828" y="8.724" width="0.379" height="0.379" fill="#000"/>
<rect x="7.966" y="8.724" width="0.379" height="0.379" fill="#000"/>
<rect x="8.345" y="8.724" width="0.379" height="0.379" fill="#000"/>
<rect x="9.103" y="8.724" width="0.379" height="0.379" fill="#000"/>
<rect x="1.517" y="9.103" width="0.379" height="0.379" fill="#000"/>
<rect x="1.897" y="9.103" width="0.379" height="0.379" fill="#000"/>
<rect x="2.276" y="9.103" width="0.379" height="0.379" fill="#000"/>
<rect x="2.655" y="9.103" width="0.379" height="0.379" fill="#000"/>
<rect x="3.034" y="9.103" width="0.379" height="0.379" fill="#000"/>
<rect x="3.414" y="9.103" width="0.379" height="0.379" fill="#000"/>
<rect x="3.793" y="9.103" width="0.379" height="0.379" fill="#000"/>
<rect x="5.690" y="9.103" width="0.379" height="0.379" fill="#000"/>
<rect x="6.069" y="9.103" width="0.379" height="0.379" fill="#000"/>
<rect x="7.207" y="9.103" width="0.379" height="0.379" fill="#000"/>
<rect x="8.345" y="9.103" width="0.379" height="0.379" fill="#000"/>
<text x="16.500" y="3.178" font-family="Courier, monospace" font-size="2.444" text-anchor="middle" fill="#000">29MV</text>
<text x="16.500" y="6.356" font-family="Courier, monospace" font-size="2.444" text-anchor="middle" fill="#000">ECM7</text>
<text x="16.500" y="9.533" font-family="Courier, monospace" font-size="2.444" text-anchor="middle" fill="#000">4RQK</text>
<rect x="22.000" y="0" width="41.469" height="11.000" fill="none" stroke="#888" stroke-width="0.1" stroke-dasharray="0.6,0.6"/>
<text x="42.735" y="6.000" font-family="Courier, monospace" font-size="1.5" text-anchor="middle" fill="#888">wrap d12</text>
<text x="68.969" y="3.178" font-family="Courier, monospace" font-size="2.444" text-anchor="middle" fill="#000">29MV</text>
<text x="68.969" y="6.356" font-family="Courier, monospace" font-size="2.444" text-anchor="middle" fill="#000">ECM7</text>
<text x="68.969" y="9.533" font-family="Courier, monospace" font-size="2.444" text-anchor="middle" fill="#000">4RQK</text>
<rect x="75.986" y="1.517" width="0.379" height="0.379" fill="#000"/>
<rect x="76.366" y="1.517" width="0.379" height="0.379" fill="#000"/>
<rect x="76.745" y="1.517" width="0.379" height="0.379" fill="#000"/>
<rect x="77.124" y="1.517" width="0.379" height="0.379" fill="#000"/>
<rect x="77.504" y="1.517" width="0.379" height="0.379" fill="#000"/>
<rect x="77.883" y="1.517" width="0.379" height="0.379" fill="#000"/>
<rect x="78.262" y="1.517" width="0.379" height="0.379" fill="#000"/>
<rect x="79.021" y="1.517" width="0.379" height="0.379" fill="#000"/>
<rect x="80.538" y="1.517" width="0.379" height="0.379" fill="#000"/>
<rect x="81.297" y="1.517" width="0.379" height="0.379" fill="#000"/>
<rect x="81.676" y="1.517" width="0.379" height="0.379" fill="#000"/>
<rect x="82.055" y="1.517" width="0.379" height="0.379" fill="#000"/>
<rect x="82.435" y="1.517" width="0.379" height="0.379" fill="#000"/>
<rect x="82.814" y="1.517" width="0.379" height="0.379" fill="#000"/>
<rect x="83.193" y="1.517" width="0.379" height="0.379" fill="#000"/>
<rect x="83.572" y="1.517" width="0.379" height="0.379" fill="#000"/>
<rect x="75.986" y="1.897" width="0.379" height="0.379" fill="#000"/>
<rect x="78.262" y="1.897" width="0.379" height="0.379" fill="#000"/>
<rect x="79.400" y="1.897" width="0.379" height="0.379" fill="#000"/>
<rect x="79.779" y="1.897" width="0.379" height="0.379" fill="#000"/>
<rect x="80.159" y="1.897" width="0.379" height="0.379" fill="#000"/>
<rect x="81.297" y="1.897" width="0.379" height="0.379" fill="#000"/>
<rect x="83.572" y="1.897" width="0.379" height="0.379" fill="#000"/>
<rect x="75.986" y="2.276" width="0.379" height="0.379" fill="#000"/>
<rect x="76.745" y="2.276" width="0.379" height="0.379" fill="#000"/>
<rect x="77.124" y="2.276" width="0.379" height="0.379" fill="#000"/>
<rect x="77.504" y="2.276" width="0.379" height="0.379" fill="#000"/>
<rect x="78.262" y="2.276" width="0.379" height="0.379" fill="#000"/>
<rect x="79.021" y="2.276" width="0.379" height="0.379" fill="#000"/>
<rect x="79.779" y="2.276" width="0.379" height="0.379" fill="#000"/>
<rect x="80.159" y="2.276" width="0.379" height="0.379" fill="#000"/>
<rect x="81.297" y="2.276" width="0.379" height="0.379" fill="#000"/>
<rect x="82.055" y="2.276" width="0.379" height="0.379" fill="#000"/>
<rect x="82.435" y="2.276" width="0.379" height="0.379" fill="#000"/>
<rect x="82.814" y="2.276" width="0.379" height="0.379" fill="#000"/>
<rect x="83.572" y="2.276" width="0.379" height="0.379" fill="#000"/>
<rect x="75.986" y="2.655" width="0.379" height="0.379" fill="#000"/>
<rect x="76.745" y="2.655" width="0.379" height="0.379" fill="#000"/>
<rect x="77.124" y="2.655" width="0.379" height="0.379" fill="#000"/>
<rect x="77.504" y="2.655" width="0.379" height="0.379" fill="#000"/>
<rect x="78.262" y="2.655" width="0.379" height="0.379" fill="#000"/>
<rect x="79.021" y="2.655" width="0.379" height="0.379" fill="#000"/>
<rect x="79.400" y="2.655" width="0.379" height="0.379" fill="#000"/>
<rect x="79.779" y="2.655" width="0.379" height="0.379" fill="#000"/>
<rect x="80.538" y="2.655" width="0.379" height="0.379" fill="#000"/>
<rect x="81.297" y="2.655" width="0.379" height="0.379" fill="#000"/>
<rect x="82.055" y="2.655" width="0.379" height="0.379" fill="#000"/>
<rect x="82.435" y="2.655" width="0.379" height="0.379" fill="#000"/>
<rect x="82.814" y="2.655" width="0.379" height="0.379" fill="#000"/>
<rect x="83.572" y="2.655" width="0.379" height="0.379" fill="#000"/>
<rect x="75.986" y="3.034" width="0.379" height="0.379" fill="#000"/>
<rect x="76.745" y="3.034" width="0.379" height="0.379" fill="#000"/>
<rect x="77.124" y="3.034" width="0.379" height="0.379" fill="#000"/>
<rect x="77.504" y="3.034" width="0.379" height="0.379" fill="#000"/>
<rect x="78.262" y="3.034" width="0.379" height="0.379" fill="#000"/>
<rect x="79.400" y="3.034" width="0.379" height="0.379" fill="#000"/>
<rect x="79.779" y="3.034" width="0.379" height="0.379" fill="#000"/>
<rect x="81.297" y="3.034" width="0.379" height="0.379" fill="#000"/>
<rect x="82.055" y="3.034" width="0.379" height="0.379" fill="#000"/>
<rect x="82.435" y="3.034" width="0.379" height="0.379" fill="#000"/>
<rect x="82.814" y="3.034" width="0.379" height="0.379" fill="#000"/>
<rect x="83.572" y="3.034" width="0.379" height="0.379" fill="#000"/>
<rect x="75.986" y="3.414" width="0.379" height="0.379" fill="#000"/>
<rect x="78.262" y="3.414" width="0.379" height="0.379" fill="#000"/>
<rect x="79.021" y="3.414" width="0.379" height="0.379" fill="#000"/>
<rect x="79.400" y="3.414" width="0.379" height="0.379" fill="#000"/>
<rect x="80.538" y="3.414" width="0.379" height="0.379" fill="#000"/>
<rect x="81.297" y="3.414" width="0.379" height="0.379" fill="#000"/>
<rect x="83.572" y="3.414" width="0.379" height="0.379" fill="#000"/>
<rect x="75.986" y="3.793" width="0.379" height="0.379" fill="#000"/>
<rect x="76.366" y="3.793" width="0.379" height="0.379" fill="#000"/>
<rect x="76.745" y="3.793" width="0.379" height="0.379" fill="#000"/>
<rect x="77.124" y="3.793" width="0.379" height="0.379" fill="#000"/>
<rect x="77.504" y="3.793" width="0.379" height="0.379" fill="#000"/>
<rect x="77.883" y="3.793" width="0.379" height="0.379" fill="#000"/>
<rect x="78.262" y="3.793" width="0.379" height="0.379" fill="#000"/>
<rect x="79.021" y="3.793" width="0.379" height="0.379" fill="#000"/>
<rect x="79.779" y="3.793" width="0.379" height="0.379" fill="#000"/>
<rect x="80.538" y="3.793" width="0.379" height="0.379" fill="#000"/>
<rect x="81.297" y="3.793" width="0.379" height="0.379" fill="#000"/>
<rect x="81.676" y="3.793" width="0.379" height="0.379" fill="#000"/>
<rect x="82.055" y="3.793" width="0.379" height="0.379" fill="#000"/>
<rect x="82.435" y="3.793" width="0.379" height="0.379" fill="#000"/>
<rect x="82.814" y="3.793" width="0.379" height="0.379" fill="#000"/>
<rect x="83.193" y="3.793" width="0.379" height="0.379" fill="#000"/>
<rect x="83.572" y="3.793" width="0.379" height="0.379" fill="#000"/>
<rect x="79.021" y="4.172" width="0.379" height="0.379" fill="#000"/>
<rect x="80.159" y="4.172" width="0.379" height="0.379" fill="#000"/>
<rect x="80.538" y="4.172" width="0.379" height="0.379" fill="#000"/>
<rect x="76.366" y="4.552" width="0.379" height="0.379" fill="#000"/>
<rect x="77.124" y="4.552" width="0.379" height="0.379" fill="#000"/>
<rect x="77.883" y="4.552" width="0.379" height="0.379" fill="#000"/>
<rect x="78.262" y="4.552" width="0.379" height="0.379" fill="#000"/>
<rect x="78.641" y="4.552" width="0.379" height="0.379" fill="#000"/>
<rect x="79.021" y="4.552" width="0.379" height="0.379" fill="#000"/>
<rect x="79.400" y="4.552" width="0.379" height="0.379" fill="#000"/>
<rect x="80.159" y="4.552" width="0.379" height="0.379" fill="#000"/>
<rect x="80.538" y="4.552" width="0.379" height="0.379" fill="#000"/>
<rect x="80.917" y="4.552" width="0.379" height="0.379" fill="#000"/>
<rect x="81.297" y="4.552" width="0.379" height="0.379" fill="#000"/>
<rect x="81.676" y="4.552" width="0.379" height="0.379" fill="#000"/>
<rect x="82.435" y="4.552" width="0.379" height="0.379" fill="#000"/>
<rect x="82.814" y="4.552" width="0.379" height="0.379" fill="#000"/>
<rect x="83.572" y="4.552" width="0.379" height="0.379" fill="#000"/>
<rect x="75.986" y="4.931" width="0.379" height="0.379" fill="#000"/>
<rect x="76.366" y="4.931" width="0.379" height="0.379" fill="#000"/>
<rect x="76.745" y="4.931" width="0.379" height="0.379" fill="#000"/>
<rect x="77.883" y="4.931" width="0.379" height="0.379" fill="#000"/>
<rect x="79.021" y="4.931" width="0.379" height="0.379" fill="#000"/>
<rect x="79.400" y="4.931" width="0.379" height="0.379" fill="#000"/>
<rect x="79.779" y="4.931" width="0.379" height="0.379" fill="#000"/>
<rect x="80.538" y="4.931" width="0.379" height="0.379" fill="#000"/>
<rect x="83.572" y="4.931" width="0.379" height="0.379" fill="#000"/>
<rect x="75.986" y="5.310" width="0.379" height="0.379" fill="#000"/>
<rect x="76.366" y="5.310" width="0.379" height="0.379" fill="#000"/>
<rect x="76.745" y="5.310" width="0.379" height="0.379" fill="#000"/>
<rect x="77.504" y="5.310" width="0.379" height="0.379" fill="#000"/>
<rect x="77.883" y="5.310" width="0.379" height="0.379" fill="#000"/>
<rect x="78.262" y="5.310" width="0.379" height="0.379" fill="#000"/>
<rect x="78.641" y="5.310" width="0.379" height="0.379" fill="#000"/>
<rect x="80.159" y="5.310" width="0.379" height="0.379" fill="#000"/>
<rect x="80.917" y="5.310" width="0.379" height="0.379" fill="#000"/>
<rect x="81.297" y="5.310" width="0.379" height="0.379" fill="#000"/>
<rect x="82.055" y="5.310" width="0.379" height="0.379" fill="#000"/>
<rect x="82.435" y="5.310" width="0.379" height="0.379" fill="#000"/>
<rect x="83.193" y="5.310" width="0.379" height="0.379" fill="#000"/>
<rect x="83.572" y="5.310" width="0.379" height="0.379" fill="#000"/>
<rect x="76.745" y="5.690" width="0.379" height="0.379" fill="#000"/>
<rect x="77.504" y="5.690" width="0.379" height="0.379" fill="#000"/>
<rect x="78.641" y="5.690" width="0.379" height="0.379" fill="#000"/>
<rect x="79.779" y="5.690" width="0.379" height="0.379" fill="#000"/>
<rect x="80.159" y="5.690" width="0.379" height="0.379" fill="#000"/>
<rect x="80.538" y="5.690" width="0.379" height="0.379" fill="#000"/>
<rect x="82.055" y="5.690" width="0.379" height="0.379" fill="#000"/>
<rect x="82.435" y="5.690" width="0.379" height="0.379" fill="#000"/>
<rect x="82.814" y="5.690" width="0.379" height="0.379" fill="#000"/>
<rect x="83.193" y="5.690" width="0.379" height="0.379" fill="#000"/>
<rect x="75.986" y="6.069" width="0.379" height="0.379" fill="#000"/>
<rect x="76.745" y="6.069" width="0.379" height="0.379" fill="#000"/>
<rect x="77.504" y="6.069" width="0.379" height="0.379" fill="#000"/>
<rect x="77.883" y="6.069" width="0.379" height="0.379" fill="#000"/>
<rect x="78.262" y="6.069" width="0.379" height="0.379" fill="#000"/>
<rect x="78.641" y="6.069" width="0.379" height="0.379" fill="#000"/>
<rect x="79.021" y="6.069" width="0.379" height="0.379" fill="#000"/>
<rect x="80.159" y="6.069" width="0.379" height="0.379" fill="#000"/>
<rect x="80.538" y="6.069" width="0.379" height="0.379" fill="#000"/>
<rect x="81.297" y="6.069" width="0.379" height="0.379" fill="#000"/>
<rect x="81.676" y="6.069" width="0.379" height="0.379" fill="#000"/>
<rect x="82.435" y="6.069" width="0.379" height="0.379" fill="#000"/>
<rect x="83.193" y="6.069" width="0.379" height="0.379" fill="#000"/>
<rect x="83.572" y="6.069" width="0.379" height="0.379" fill="#000"/>
<rect x="79.021" y="6.448" width="0.379" height="0.379" fill="#000"/>
<rect x="80.159" y="6.448" width="0.379" height="0.379" fill="#000"/>
<rect x="81.676" y="6.448" width="0.379" height="0.379" fill="#000"/>
<rect x="82.055" y="6.448" width="0.379" height="0.379" fill="#000"/>
<rect x="82.435" y="6.448" width="0.379" height="0.379" fill="#000"/>
<rect x="82.814" y="6.448" width="0.379" height="0.379" fill="#000"/>
<rect x="75.986" y="6.828" width="0.379" height="0.379" fill="#000"/>
<rect x="76.366" y="6.828" width="0.379" height="0.379" fill="#000"/>
<rect x="76.745" y="6.828" width="0.379" height="0.379" fill="#000"/>
<rect x="77.124" y="6.828" width="0.379" height="0.379" fill="#000"/>
<rect x="77.504" y="6.828" width="0.379" height="0.379" fill="#000"/>
<rect x="77.883" y="6.828" width="0.379" height="0.379" fill="#000"/>
<rect x="78.262" y="6.828" width="0.379" height="0.379" fill="#000"/>
<rect x="79.021" y="6.828" width="0.379" height="0.379" fill="#000"/>
<rect x="79.400" y="6.828" width="0.379" height="0.379" fill="#000"/>
<rect x="79.779" y="6.828" width="0.379" height="0.379" fill="#000"/>
<rect x="80.159" y="6.828" width="0.379" height="0.379" fill="#000"/>
<rect x="81.676" y="6.828" width="0.379" height="0.379" fill="#000"/>
<rect x="82.435" y="6.828" width="0.379" height="0.379" fill="#000"/>
<rect x="75.986" y="7.207" width="0.379" height="0.379" fill="#000"/>
<rect x="78.262" y="7.207" width="0.379" height="0.379" fill="#000"/>
<rect x="79.021" y="7.207" width="0.379" height="0.379" fill="#000"/>
<rect x="79.400" y="7.207" width="0.379" height="0.379" fill="#000"/>
<rect x="80.159" y="7.207" width="0.379" height="0.379" fill="#000"/>
<rect x="80.917" y="7.207" width="0.379" height="0.379" fill="#000"/>
<rect x="81.676" y="7.207" width="0.379" height="0.379" fill="#000"/>
<rect x="82.435" y="7.207" width="0.379" height="0.379" fill="#000"/>
<rect x="82.814" y="7.207" width="0.379" height="0.379" fill="#000"/>
<rect x="83.193" y="7.207" width="0.379" height="0.379" fill="#000"/>
<rect x="83.572" y="7.207" width="0.379" height="0.379" fill="#000"/>
<rect x="75.986" y="7.586" width="0.379" height="0.379" fill="#000"/>
<rect x="76.745" y="7.586" width="0.379" height="0.379" fill="#000"/>
<rect x="77.124" y="7.586" width="0.379" height="0.379" fill="#000"/>
<rect x="77.504" y="7.586" width="0.379" height="0.379" fill="#000"/>
<rect x="78.262" y="7.586" width="0.379" height="0.379" fill="#000"/>
<rect x="79.400" y="7.586" width="0.379" height="0.379" fill="#000"/>
<rect x="79.779" y="7.586" width="0.379" height="0.379" fill="#000"/>
<rect x="80.159" y="7.586" width="0.379" height="0.379" fill="#000"/>
<rect x="80.538" y="7.586" width="0.379" height="0.379" fill="#000"/>
<rect x="80.917" y="7.586" width="0.379" height="0.379" fill="#000"/>
<rect x="81.297" y="7.586" width="0.379" height="0.379" fill="#000"/>
<rect x="82.055" y="7.586" width="0.379" height="0.379" fill="#000"/>
<rect x="83.572" y="7.586" width="0.379" height="0.379" fill="#000"/>
<rect x="75.986" y="7.966" width="0.379" height="0.379" fill="#000"/>
<rect x="76.745" y="7.966" width="0.379" height="0.379" fill="#000"/>
<rect x="77.124" y="7.966" width="0.379" height="0.379" fill="#000"/>
<rect x="77.504" y="7.966" width="0.379" height="0.379" fill="#000"/>
<rect x="78.262" y="7.966" width="0.379" height="0.379" fill="#000"/>
<rect x="79.021" y="7.966" width="0.379" height="0.379" fill="#000"/>
<rect x="79.400" y="7.966" width="0.379" height="0.379" fill="#000"/>
<rect x="80.159" y="7.966" width="0.379" height="0.379" fill="#000"/>
<rect x="81.676" y="7.966" width="0.379" height="0.379" fill="#000"/>
<rect x="82.055" y="7.966" width="0.379" height="0.379" fill="#000"/>
<rect x="83.193" y="7.966" width="0.379" height="0.379" fill="#000"/>
<rect x="83.572" y="7.966" width="0.379" height="0.379" fill="#000"/>
<rect x="75.986" y="8.345" width="0.379" height="0.379" fill="#000"/>
<rect x="76.745" y="8.345" width="0.379" height="0.379" fill="#000"/>
<rect x="77.124" y="8.345" width="0.379" height="0.379" fill="#000"/>
<rect x="77.504" y="8.345" width="0.379" height="0.379" fill="#000"/>
<rect x="78.262" y="8.345" width="0.379" height="0.379" fill="#000"/>
<rect x="79.400" y="8.345" width="0.379" height="0.379" fill="#000"/>
<rect x="79.779" y="8.345" width="0.379" height="0.379" fill="#000"/>
<rect x="80.538" y="8.345" width="0.379" height="0.379" fill="#000"/>
<rect x="82.055" y="8.345" width="0.379" height="0.379" fill="#000"/>
<rect x="82.814" y="8.345" width="0.379" height="0.379" fill="#000"/>
<rect x="83.572" y="8.345" width="0.379" height="0.379" fill="#000"/>
<rect x="75.986" y="8.724" width="0.379" height="0.379" fill="#000"/>
<rect x="78.262" y="8.724" width="0.379" height="0.379" fill="#000"/>
<rect x="79.021" y="8.724" width="0.379" height="0.379" fill="#000"/>
<rect x="79.400" y="8.724" width="0.379" height="0.379" fill="#000"/>
<rect x="79.779" y="8.724" width="0.379" height="0.379" fill="#000"/>
<rect x="80.917" y="8.724" width="0.379" height="0.379" fill="#000"/>
<rect x="81.297" y="8.724" width="0.379" height="0.379" fill="#000"/>
<rect x="82.435" y="8.724" width="0.379" height="0.379" fill="#000"/>
<rect x="82.814" y="8.724" width="0.379" height="0.379" fill="#000"/>
<rect x="83.572" y="8.724" width="0.379" height="0.379" fill="#000"/>
<rect x="75.986" y="9.103" width="0.379" height="0.379" fill="#000"/>
<rect x="76.366" y="9.103" width="0.379" height="0.379" fill="#000"/>
<rect x="76.745" y="9.103" width="0.379" height="0.379" fill="#000"/>
<rect x="77.124" y="9.103" width="0.379" height="0.379" fill="#000"/>
<rect x="77.504" y="9.103" width="0.379" height="0.379" fill="#000"/>
<rect x="77.883" y="9.103" width="0.379" height="0.379" fill="#000"/>
<rect x="78.262" y="9.103" width="0.379" height="0.379" fill="#000"/>
<rect x="80.159" y="9.103" width="0.379" height="0.379" fill="#000"/>
<rect x="80.538" y="9.103" width="0.379" height="0.379" fill="#000"/>
<rect x="81.676" y="9.103" width="0.379" height="0.379" fill="#000"/>
<rect x="82.814" y="9.103" width="0.379" height="0.379" fill="#000"/>
</svg>
