<svg xmlns="http://www.w3.org/2000/svg" width="62.000mm" height="7.483mm" viewBox="0 0 696 84">
<rect x="0.5" y="0.5" width="695" height="83" fill="none" stroke="#bbb" stroke-width="1" stroke-dasharray="4,4"/>
<line x1="180" y1="0" x2="180" y2="84" stroke="#ddd" stroke-width="0.5" stroke-dasharray="3,3"/>
<line x1="348" y1="0" x2="348" y2="84" stroke="#ddd" stroke-width="0.5" stroke-dasharray="3,3"/>
<line x1="516" y1="0" x2="516" y2="84" stroke="#ddd" stroke-width="0.5" stroke-dasharray="3,3"/>
<g transform="translate(12,0)"><rect x="8.000" y="8.000" width="4.000" height="4.000" fill="#000"/>
<rect x="12.000" y="8.000" width="4.000" height="4.000" fill="#000"/>
<rect x="16.000" y="8.000" width="4.000" height="4.000" fill="#000"/>
<rect x="20.000" y="8.000" width="4.000" height="4.000" fill="#000"/>
<rect x="24.000" y="8.000" width="4.000" height="4.000" fill="#000"/>
<rect x="28.000" y="8.000" width="4.000" height="4.000" fill="#000"/>
<rect x="32.000" y="8.000" width="4.000" height="4.000" fill="#000"/>
<rect x="40.000" y="8.000" width="4.000" height="4.000" fill="#000"/>
<rect x="48.000" y="8.000" width="4.000" height="4.000" fill="#000"/>
<rect x="56.000" y="8.000" width="4.000" height="4.000" fill="#000"/>
<rect x="64.000" y="8.000" width="4.000" height="4.000" fill="#000"/>
<rect x="72.000" y="8.000" width="4.000" height="4.000" fill="#000"/>
<rect x="8.000" y="12.000" width="4.000" height="4.000" fill="#000"/>
<rect x="32.000" y="12.000" width="4.000" height="4.000" fill="#000"/>
<rect x="44.000" y="12.000" width="4.000" height="4.000" fill="#000"/>
<rect x="48.000" y="12.000" width="4.000" height="4.000" fill="#000"/>
<rect x="60.000" y="12.000" width="4.000" height="4.000" fill="#000"/>
<rect x="68.000" y="12.000" width="4.000" height="4.000" fill="#000"/>
<rect x="8.000" y="16.000" width="4.000" height="4.000" fill="#000"/>
<rect x="16.000" y="16.000" width="4.000" height="4.000" fill="#000"/>
<rect x="20.000" y="16.000" width="4.000" height="4.000" fill="#000"/>
<rect x="24.000" y="16.000" width="4.000" height="4.000" fill="#000"/>
<rect x="32.000" y="16.000" width="4.000" height="4.000" fill="#000"/>
<rect x="44.000" y="16.000" width="4.000" height="4.000" fill="#000"/>
<rect x="52.000" y="16.000" width="4.000" height="4.000" fill="#000"/>
<rect x="56.000" y="16.000" width="4.000" height="4.000" fill="#000"/>
<rect x="60.000" y="16.000" width="4.000" height="4.000" fill="#000"/>
<rect x="64.000" y="16.000" width="4.000" height="4.000" fill="#000"/>
<rect x="68.000" y="16.000" width="4.000" height="4.000" fill="#000"/>
<rect x="72.000" y="16.000" width="4.000" height="4.000" fill="#000"/>
<rect x="8.000" y="20.000" width="4.000" height="4.000" fill="#000"/>
<rect x="16.000" y="20.000" width="4.000" height="4.000" fill="#000"/>
<rect x="20.000" y="20.000" width="4.000" height="4.000" fill="#000"/>
<rect x="24.000" y="20.000" width="4.000" height="4.000" fill="#000"/>
<rect x="32.000" y="20.000" width="4.000" height="4.000" fill="#000"/>
<rect x="44.000" y="20.000" width="4.000" height="4.000" fill="#000"/>
<rect x="48.000" y="20.000" width="4.000" height="4.000" fill="#000"/>
<rect x="60.000" y="20.000" width="4.000" height="4.000" fill="#000"/>
<rect x="72.000" y="20.000" width="4.000" height="4.000" fill="#000"/>
<rect x="8.000" y="24.000" width="4.000" height="4.000" fill="#000"/>
<rect x="16.000" y="24.000" width="4.000" height="4.000" fill="#000"/>
<rect x="20.000" y="24.000" width="4.000" height="4.000" fill="#000"/>
<rect x="24.000" y="24.000" width="4.000" height="4.000" fill="#000"/>
<rect x="32.000" y="24.000" width="4.000" height="4.000" fill="#000"/>
<rect x="40.000" y="24.000" width="4.000" height="4.000" fill="#000"/>
<rect x="44.000" y="24.000" width="4.000" height="4.000" fill="#000"/>
<rect x="48.000" y="24.000" width="4.000" height="4.000" fill="#000"/>
<rect x="52.000" y="24.000" width="4.000" height="4.000" fill="#000"/>
<rect x="56.000" y="24.000" width="4.000" height="4.000" fill="#000"/>
<rect x="64.000" y="24.000" width="4.000" height="4.000" fill="#000"/>
<rect x="72.000" y="24.000" width="4.000" height="4.000" fill="#000"/>
<rect x="8.000" y="28.000" width="4.000" height="4.000" fill="#000"/>
<rect x="32.000" y="28.000" width="4.000" height="4.000" fill="#000"/>
<rect x="8.000" y="32.000" width="4.000" height="4.000" fill="#000"/>
<rect x="12.000" y="32.000" width="4.000" height="4.000" fill="#000"/>
<rect x="16.000" y="32.000" width="4.000" height="4.000" fill="#000"/>
<rect x="20.000" y="32.000" width="4.000" height="4.000" fill="#000"/>
<rect x="24.000" y="32.000" width="4.000" height="4.000" fill="#000"/>
<rect x="28.000" y="32.000" width="4.000" height="4.000" fill="#000"/>
<rect x="32.000" y="32.000" width="4.000" height="4.000" fill="#000"/>
<rect x="48.000" y="32.000" width="4.000" height="4.000" fill="#000"/>
<rect x="52.000" y="32.000" width="4.000" height="4.000" fill="#000"/>
<rect x="64.000" y="32.000" width="4.000" height="4.000" fill="#000"/>
<rect x="52.000" y="36.000" width="4.000" height="4.000" fill="#000"/>
<rect x="56.000" y="36.000" width="4.000" height="4.000" fill="#000"/>
<rect x="64.000" y="36.000" width="4.000" height="4.000" fill="#000"/>
<rect x="72.000" y="36.000" width="4.000" height="4.000" fill="#000"/>
<rect x="8.000" y="40.000" width="4.000" height="4.000" fill="#000"/>
<rect x="16.000" y="40.000" width="4.000" height="4.000" fill="#000"/>
<rect x="28.000" y="40.000" width="4.000" height="4.000" fill="#000"/>
<rect x="36.000" y="40.000" width="4.000" height="4.000" fill="#000"/>
<rect x="48.000" y="40.000" width="4.000" height="4.000" fill="#000"/>
<rect x="52.000" y="40.000" width="4.000" height="4.000" fill="#000"/>
<rect x="64.000" y="40.000" width="4.000" height="4.000" fill="#000"/>
<rect x="68.000" y="40.000" width="4.000" height="4.000" fill="#000"/>
<rect x="16.000" y="44.000" width="4.000" height="4.000" fill="#000"/>
<rect x="20.000" y="44.000" width="4.000" height="4.000" fill="#000"/>
<rect x="24.000" y="44.000" width="4.000" height="4.000" fill="#000"/>
<rect x="40.000" y="44.000" width="4.000" height="4.000" fill="#000"/>
<rect x="44.000" y="44.000" width="4.000" height="4.000" fill="#000"/>
<rect x="48.000" y="44.000" width="4.000" height="4.000" fill="#000"/>
<rect x="52.000" y="44.000" width="4.000" height="4.000" fill="#000"/>
<rect x="64.000" y="44.000" width="4.000" height="4.000" fill="#000"/>
<rect x="68.000" y="44.000" width="4.000" height="4.000" fill="#000"/>
<rect x="72.000" y="44.000" width="4.000" height="4.000" fill="#000"/>
<rect x="8.000" y="48.000" width="4.000" height="4.000" fill="#000"/>
<rect x="28.000" y="48.000" width="4.000" height="4.000" fill="#000"/>
<rect x="44.000" y="48.000" width="4.000" height="4.000" fill="#000"/>
<rect x="48.000" y="48.000" width="4.000" height="4.000" fill="#000"/>
<rect x="52.000" y="48.000" width="4.000" height="4.000" fill="#000"/>
<rect x="64.000" y="48.000" width="4.000" height="4.000" fill="#000"/>
<rect x="68.000" y="48.000" width="4.000" height="4.000" fill="#000"/>
<rect x="16.000" y="52.000" width="4.000" height="4.000" fill="#000"/>
<rect x="20.000" y="52.000" width="4.000" height="4.000" fill="#000"/>
<rect x="28.000" y="52.000" width="4.000" height="4.000" fill="#000"/>
<rect x="36.000" y="52.000" width="4.000" height="4.000" fill="#000"/>
<rect x="40.000" y="52.000" width="4.000" height="4.000" fill="#000"/>
<rect x="56.000" y="52.000" width="4.000" height="4.000" fill="#000"/>
<rect x="60.000" y="52.000" width="4.000" height="4.000" fill="#000"/>
<rect x="72.000" y="52.000" width="4.000" height="4.000" fill="#000"/>
<rect x="8.000" y="56.000" width="4.000" height="4.000" fill="#000"/>
<rect x="12.000" y="56.000" width="4.000" height="4.000" fill="#000"/>
<rect x="24.000" y="56.000" width="4.000" height="4.000" fill="#000"/>
<rect x="36.000" y="56.000" width="4.000" height="4.000" fill="#000"/>
<rect x="48.000" y="56.000" width="4.000" height="4.000" fill="#000"/>
<rect x="52.000" y="56.000" width="4.000" height="4.000" fill="#000"/>
<rect x="56.000" y="56.000" width="4.000" height="4.000" fill="#000"/>
<rect x="60.000" y="56.000" width="4.000" height="4.000" fill="#000"/>
<rect x="64.000" y="56.000" width="4.000" height="4.000" fill="#000"/>
<rect x="72.000" y="56.000" width="4.000" height="4.000" fill="#000"/>
<rect x="24.000" y="60.000" width="4.000" height="4.000" fill="#000"/>
<rect x="32.000" y="60.000" width="4.000" height="4.000" fill="#000"/>
<rect x="44.000" y="60.000" width="4.000" height="4.000" fill="#000"/>
<rect x="56.000" y="60.000" width="4.000" height="4.000" fill="#000"/>
<rect x="72.000" y="60.000" width="4.000" height="4.000" fill="#000"/>
<rect x="8.000" y="64.000" width="4.000" height="4.000" fill="#000"/>
<rect x="16.000" y="64.000" width="4.000" height="4.000" fill="#000"/>
<rect x="20.000" y="64.000" width="4.000" height="4.000" fill="#000"/>
<rect x="24.000" y="64.000" width="4.000" height="4.000" fill="#000"/>
<rect x="36.000" y="64.000" width="4.000" height="4.000" fill="#000"/>
<rect x="44.000" y="64.000" width="4.000" height="4.000" fill="#000"/>
<rect x="48.000" y="64.000" width="4.000" height="4.000" fill="#000"/>
<rect x="52.000" y="64.000" width="4.000" height="4.000" fill="#000"/>
<rect x="60.000" y="64.000" width="4.000" height="4.000" fill="#000"/>
<rect x="40.000" y="68.000" width="4.000" height="4.000" fill="#000"/>
<rect x="44.000" y="68.000" width="4.000" height="4.000" fill="#000"/>
<rect x="52.000" y="68.000" width="4.000" height="4.000" fill="#000"/>
<rect x="56.000" y="68.000" width="4.000" height="4.000" fill="#000"/>
<rect x="60.000" y="68.000" width="4.000" height="4.000" fill="#000"/>
<rect x="72.000" y="68.000" width="4.000" height="4.000" fill="#000"/>
<rect x="8.000" y="72.000" width="4.000" height="4.000" fill="#000"/>
<rect x="16.000" y="72.000" width="4.000" height="4.000" fill="#000"/>
<rect x="32.000" y="72.000" width="4.000" height="4.000" fill="#000"/>
<rect x="36.000" y="72.000" width="4.000" height="4.000" fill="#000"/>
<rect x="48.000" y="72.000" width="4.000" height="4.000" fill="#000"/>
<rect x="52.000" y="72.000" width="4.000" height="4.000" fill="#000"/>
<rect x="56.000" y="72.000" width="4.000" height="4.000" fill="#000"/>
<rect x="60.000" y="72.000" width="4.000" height="4.000" fill="#000"/>
<rect x="64.000" y="72.000" width="4.000" height="4.000" fill="#000"/>
<rect x="68.000" y="72.000" width="4.000" height="4.000" fill="#000"/>
<rect x="72.000" y="72.000" width="4.000" height="4.000" fill="#000"/>
<text x="126.000" y="33.218" font-family="Consolas, monospace" font-weight="bold" font-size="35.127" text-anchor="middle" fill="#000">J6HR</text>
<text x="126.000" y="75.371" font-family="Consolas, monospace" font-weight="bold" font-size="35.127" text-anchor="middle" fill="#000">EK94</text></g>
<g transform="translate(180,0)"><rect x="8.000" y="8.000" width="4.000" height="4.000" fill="#000"/>
<rect x="12.000" y="8.000" width="4.000" height="4.000" fill="#000"/>
<rect x="16.000" y="8.000" width="4.000" height="4.000" fill="#000"/>
<rect x="20.000" y="8.000" width="4.000" height="4.000" fill="#000"/>
<rect x="24.000" y="8.000" width="4.000" height="4.000" fill="#000"/>
<rect x="28.000" y="8.000" width="4.000" height="4.000" fill="#000"/>
<rect x="32.000" y="8.000" width="4.000" height="4.000" fill="#000"/>
<rect x="40.000" y="8.000" width="4.000" height="4.000" fill="#000"/>
<rect x="48.000" y="8.000" width="4.000" height="4.000" fill="#000"/>
<rect x="56.000" y="8.000" width="4.000" height="4.000" fill="#000"/>
<rect x="64.000" y="8.000" width="4.000" height="4.000" fill="#000"/>
<rect x="72.000" y="8.000" width="4.000" height="4.000" fill="#000"/>
<rect x="8.000" y="12.000" width="4.000" height="4.000" fill="#000"/>
<rect x="32.000" y="12.000" width="4.000" height="4.000" fill="#000"/>
<rect x="44.000" y="12.000" width="4.000" height="4.000" fill="#000"/>
<rect x="48.000" y="12.000" width="4.000" height="4.000" fill="#000"/>
<rect x="68.000" y="12.000" width="4.000" height="4.000" fill="#000"/>
<rect x="72.000" y="12.000" width="4.000" height="4.000" fill="#000"/>
<rect x="8.000" y="16.000" width="4.000" height="4.000" fill="#000"/>
<rect x="16.000" y="16.000" width="4.000" height="4.000" fill="#000"/>
<rect x="20.000" y="16.000" width="4.000" height="4.000" fill="#000"/>
<rect x="24.000" y="16.000" width="4.000" height="4.000" fill="#000"/>
<rect x="32.000" y="16.000" width="4.000" height="4.000" fill="#000"/>
<rect x="44.000" y="16.000" width="4.000" height="4.000" fill="#000"/>
<rect x="52.000" y="16.000" width="4.000" height="4.000" fill="#000"/>
<rect x="56.000" y="16.000" width="4.000" height="4.000" fill="#000"/>
<rect x="64.000" y="16.000" width="4.000" height="4.000" fill="#000"/>
<rect x="72.000" y="16.000" width="4.000" height="4.000" fill="#000"/>
<rect x="8.000" y="20.000" width="4.000" height="4.000" fill="#000"/>
<rect x="16.000" y="20.000" width="4.000" height="4.000" fill="#000"/>
<rect x="20.000" y="20.000" width="4.000" height="4.000" fill="#000"/>
<rect x="24.000" y="20.000" width="4.000" height="4.000" fill="#000"/>
<rect x="32.000" y="20.000" width="4.000" height="4.000" fill="#000"/>
<rect x="44.000" y="20.000" width="4.000" height="4.000" fill="#000"/>
<rect x="48.000" y="20.000" width="4.000" height="4.000" fill="#000"/>
<rect x="64.000" y="20.000" width="4.000" height="4.000" fill="#000"/>
<rect x="8.000" y="24.000" width="4.000" height="4.000" fill="#000"/>
<rect x="16.000" y="24.000" width="4.000" height="4.000" fill="#000"/>
<rect x="20.000" y="24.000" width="4.000" height="4.000" fill="#000"/>
<rect x="24.000" y="24.000" width="4.000" height="4.000" fill="#000"/>
<rect x="32.000" y="24.000" width="4.000" height="4.000" fill="#000"/>
<rect x="40.000" y="24.000" width="4.000" height="4.000" fill="#000"/>
<rect x="44.000" y="24.000" width="4.000" height="4.000" fill="#000"/>
<rect x="48.000" y="24.000" width="4.000" height="4.000" fill="#000"/>
<rect x="52.000" y="24.000" width="4.000" height="4.000" fill="#000"/>
<rect x="56.000" y="24.000" width="4.000" height="4.000" fill="#000"/>
<rect x="60.000" y="24.000" width="4.000" height="4.000" fill="#000"/>
<rect x="72.000" y="24.000" width="4.000" height="4.000" fill="#000"/>
<rect x="8.000" y="28.000" width="4.000" height="4.000" fill="#000"/>
<rect x="32.000" y="28.000" width="4.000" height="4.000" fill="#000"/>
<rect x="60.000" y="28.000" width="4.000" height="4.000" fill="#000"/>
<rect x="64.000" y="28.000" width="4.000" height="4.000" fill="#000"/>
<rect x="72.000" y="28.000" width="4.000" height="4.000" fill="#000"/>
<rect x="8.000" y="32.000" width="4.000" height="4.000" fill="#000"/>
<rect x="12.000" y="32.000" width="4.000" height="4.000" fill="#000"/>
<rect x="16.000" y="32.000" width="4.000" height="4.000" fill="#000"/>
<rect x="20.000" y="32.000" width="4.000" height="4.000" fill="#000"/>
<rect x="24.000" y="32.000" width="4.000" height="4.000" fill="#000"/>
<rect x="28.000" y="32.000" width="4.000" height="4.000" fill="#000"/>
<rect x="32.000" y="32.000" width="4.000" height="4.000" fill="#000"/>
<rect x="48.000" y="32.000" width="4.000" height="4.000" fill="#000"/>
<rect x="52.000" y="32.000" width="4.000" height="4.000" fill="#000"/>
<rect x="60.000" y="32.000" width="4.000" height="4.000" fill="#000"/>
<rect x="64.000" y="32.000" width="4.000" height="4.000" fill="#000"/>
<rect x="68.000" y="32.000" width="4.000" height="4.000" fill="#000"/>
<rect x="72.000" y="32.000" width="4.000" height="4.000" fill="#000"/>
<rect x="52.000" y="36.000" width="4.000" height="4.000" fill="#000"/>
<rect x="64.000" y="36.000" width="4.000" height="4.000" fill="#000"/>
<rect x="72.000" y="36.000" width="4.000" height="4.000" fill="#000"/>
<rect x="8.000" y="40.000" width="4.000" height="4.000" fill="#000"/>
<rect x="16.000" y="40.000" width="4.000" height="4.000" fill="#000"/>
<rect x="28.000" y="40.000" width="4.000" height="4.000" fill="#000"/>
<rect x="36.000" y="40.000" width="4.000" height="4.000" fill="#000"/>
<rect x="48.000" y="40.000" width="4.000" height="4.000" fill="#000"/>
<rect x="52.000" y="40.000" width="4.000" height="4.000" fill="#000"/>
<rect x="60.000" y="40.000" width="4.000" height="4.000" fill="#000"/>
<rect x="68.000" y="40.000" width="4.000" height="4.000" fill="#000"/>
<rect x="72.000" y="40.000" width="4.000" height="4.000" fill="#000"/>
<rect x="28.000" y="44.000" width="4.000" height="4.000" fill="#000"/>
<rect x="44.000" y="44.000" width="4.000" height="4.000" fill="#000"/>
<rect x="48.000" y="44.000" width="4.000" height="4.000" fill="#000"/>
<rect x="8.000" y="48.000" width="4.000" height="4.000" fill="#000"/>
<rect x="12.000" y="48.000" width="4.000" height="4.000" fill="#000"/>
<rect x="32.000" y="48.000" width="4.000" height="4.000" fill="#000"/>
<rect x="44.000" y="48.000" width="4.000" height="4.000" fill="#000"/>
<rect x="60.000" y="48.000" width="4.000" height="4.000" fill="#000"/>
<rect x="64.000" y="48.000" width="4.000" height="4.000" fill="#000"/>
<rect x="68.000" y="48.000" width="4.000" height="4.000" fill="#000"/>
<rect x="72.000" y="48.000" width="4.000" height="4.000" fill="#000"/>
<rect x="32.000" y="52.000" width="4.000" height="4.000" fill="#000"/>
<rect x="40.000" y="52.000" width="4.000" height="4.000" fill="#000"/>
<rect x="44.000" y="52.000" width="4.000" height="4.000" fill="#000"/>
<rect x="48.000" y="52.000" width="4.000" height="4.000" fill="#000"/>
<rect x="52.000" y="52.000" width="4.000" height="4.000" fill="#000"/>
<rect x="60.000" y="52.000" width="4.000" height="4.000" fill="#000"/>
<rect x="72.000" y="52.000" width="4.000" height="4.000" fill="#000"/>
<rect x="8.000" y="56.000" width="4.000" height="4.000" fill="#000"/>
<rect x="28.000" y="56.000" width="4.000" height="4.000" fill="#000"/>
<rect x="32.000" y="56.000" width="4.000" height="4.000" fill="#000"/>
<rect x="36.000" y="56.000" width="4.000" height="4.000" fill="#000"/>
<rect x="44.000" y="56.000" width="4.000" height="4.000" fill="#000"/>
<rect x="48.000" y="56.000" width="4.000" height="4.000" fill="#000"/>
<rect x="52.000" y="56.000" width="4.000" height="4.000" fill="#000"/>
<rect x="56.000" y="56.000" width="4.000" height="4.000" fill="#000"/>
<rect x="64.000" y="56.000" width="4.000" height="4.000" fill="#000"/>
<rect x="68.000" y="56.000" width="4.000" height="4.000" fill="#000"/>
<rect x="72.000" y="56.000" width="4.000" height="4.000" fill="#000"/>
<rect x="12.000" y="60.000" width="4.000" height="4.000" fill="#000"/>
<rect x="16.000" y="60.000" width="4.000" height="4.000" fill="#000"/>
<rect x="20.000" y="60.000" width="4.000" height="4.000" fill="#000"/>
<rect x="28.000" y="60.000" width="4.000" height="4.000" fill="#000"/>
<rect x="32.000" y="60.000" width="4.000" height="4.000" fill="#000"/>
<rect x="40.000" y="60.000" width="4.000" height="4.000" fill="#000"/>
<rect x="44.000" y="60.000" width="4.000" height="4.000" fill="#000"/>
<rect x="52.000" y="60.000" width="4.000" height="4.000" fill="#000"/>
<rect x="56.000" y="60.000" width="4.000" height="4.000" fill="#000"/>
<rect x="60.000" y="60.000" width="4.000" height="4.000" fill="#000"/>
<rect x="72.000" y="60.000" width="4.000" height="4.000" fill="#000"/>
<rect x="8.000" y="64.000" width="4.000" height="4.000" fill="#000"/>
<rect x="16.000" y="64.000" width="4.000" height="4.000" fill="#000"/>
<rect x="28.000" y="64.000" width="4.000" height="4.000" fill="#000"/>
<rect x="32.000" y="64.000" width="4.000" height="4.000" fill="#000"/>
<rect x="36.000" y="64.000" width="4.000" height="4.000" fill="#000"/>
<rect x="48.000" y="64.000" width="4.000" height="4.000" fill="#000"/>
<rect x="60.000" y="64.000" width="4.000" height="4.000" fill="#000"/>
<rect x="12.000" y="68.000" width="4.000" height="4.000" fill="#000"/>
<rect x="20.000" y="68.000" width="4.000" height="4.000" fill="#000"/>
<rect x="24.000" y="68.000" width="4.000" height="4.000" fill="#000"/>
<rect x="48.000" y="68.000" width="4.000" height="4.000" fill="#000"/>
<rect x="56.000" y="68.000" width="4.000" height="4.000" fill="#000"/>
<rect x="60.000" y="68.000" width="4.000" height="4.000" fill="#000"/>
<rect x="72.000" y="68.000" width="4.000" height="4.000" fill="#000"/>
<rect x="8.000" y="72.000" width="4.000" height="4.000" fill="#000"/>
<rect x="20.000" y="72.000" width="4.000" height="4.000" fill="#000"/>
<rect x="24.000" y="72.000" width="4.000" height="4.000" fill="#000"/>
<rect x="32.000" y="72.000" width="4.000" height="4.000" fill="#000"/>
<rect x="36.000" y="72.000" width="4.000" height="4.000" fill="#000"/>
<rect x="40.000" y="72.000" width="4.000" height="4.000" fill="#000"/>
<rect x="44.000" y="72.000" width="4.000" height="4.000" fill="#000"/>
<rect x="48.000" y="72.000" width="4.000" height="4.000" fill="#000"/>
<rect x="52.000" y="72.000" width="4.000" height="4.000" fill="#000"/>
<rect x="56.000" y="72.000" width="4.000" height="4.000" fill="#000"/>
<rect x="60.000" y="72.000" width="4.000" height="4.000" fill="#000"/>
<rect x="68.000" y="72.000" width="4.000" height="4.000" fill="#000"/>
<rect x="72.000" y="72.000" width="4.000" height="4.000" fill="#000"/>
<text x="126.000" y="33.218" font-family="Consolas, monospace" font-weight="bold" font-size="35.127" text-anchor="middle" fill="#000">5W3A</text>
<text x="126.000" y="75.371" font-family="Consolas, monospace" font-weight="bold" font-size="35.127" text-anchor="middle" fill="#000">ZEQE</text></g>
<g transform="translate(348,0)"><rect x="8.000" y="8.000" width="4.000" height="4.000" fill="#000"/>
<rect x="12.000" y="8.000" width="4.000" height="4.000" fill="#000"/>
<rect x="16.000" y="8.000" width="4.000" height="4.000" fill="#000"/>
<rect x="20.000" y="8.000" width="4.000" height="4.000" fill="#000"/>
<rect x="24.000" y="8.000" width="4.000" height="4.000" fill="#000"/>
<rect x="28.000" y="8.000" width="4.000" height="4.000" fill="#000"/>
<rect x="32.000" y="8.000" width="4.000" height="4.000" fill="#000"/>
<rect x="40.000" y="8.000" width="4.000" height="4.000" fill="#000"/>
<rect x="48.000" y="8.000" width="4.000" height="4.000" fill="#000"/>
<rect x="56.000" y="8.000" width="4.000" height="4.000" fill="#000"/>
<rect x="64.000" y="8.000" width="4.000" height="4.000" fill="#000"/>
<rect x="72.000" y="8.000" width="4.000" height="4.000" fill="#000"/>
<rect x="8.000" y="12.000" width="4.000" height="4.000" fill="#000"/>
<rect x="32.000" y="12.000" width="4.000" height="4.000" fill="#000"/>
<rect x="44.000" y="12.000" width="4.000" height="4.000" fill="#000"/>
<rect x="48.000" y="12.000" width="4.000" height="4.000" fill="#000"/>
<rect x="8.000" y="16.000" width="4.000" height="4.000" fill="#000"/>
<rect x="16.000" y="16.000" width="4.000" height="4.000" fill="#000"/>
<rect x="20.000" y="16.000" width="4.000" height="4.000" fill="#000"/>
<rect x="24.000" y="16.000" width="4.000" height="4.000" fill="#000"/>
<rect x="32.000" y="16.000" width="4.000" height="4.000" fill="#000"/>
<rect x="44.000" y="16.000" width="4.000" height="4.000" fill="#000"/>
<rect x="52.000" y="16.000" width="4.000" height="4.000" fill="#000"/>
<rect x="56.000" y="16.000" width="4.000" height="4.000" fill="#000"/>
<rect x="68.000" y="16.000" width="4.000" height="4.000" fill="#000"/>
<rect x="8.000" y="20.000" width="4.000" height="4.000" fill="#000"/>
<rect x="16.000" y="20.000" width="4.000" height="4.000" fill="#000"/>
<rect x="20.000" y="20.000" width="4.000" height="4.000" fill="#000"/>
<rect x="24.000" y="20.000" width="4.000" height="4.000" fill="#000"/>
<rect x="32.000" y="20.000" width="4.000" height="4.000" fill="#000"/>
<rect x="44.000" y="20.000" width="4.000" height="4.000" fill="#000"/>
<rect x="48.000" y="20.000" width="4.000" height="4.000" fill="#000"/>
<rect x="60.000" y="20.000" width="4.000" height="4.000" fill="#000"/>
<rect x="72.000" y="20.000" width="4.000" height="4.000" fill="#000"/>
<rect x="8.000" y="24.000" width="4.000" height="4.000" fill="#000"/>
<rect x="16.000" y="24.000" width="4.000" height="4.000" fill="#000"/>
<rect x="20.000" y="24.000" width="4.000" height="4.000" fill="#000"/>
<rect x="24.000" y="24.000" width="4.000" height="4.000" fill="#000"/>
<rect x="32.000" y="24.000" width="4.000" height="4.000" fill="#000"/>
<rect x="40.000" y="24.000" width="4.000" height="4.000" fill="#000"/>
<rect x="44.000" y="24.000" width="4.000" height="4.000" fill="#000"/>
<rect x="48.000" y="24.000" width="4.000" height="4.000" fill="#000"/>
<rect x="52.000" y="24.000" width="4.000" height="4.000" fill="#000"/>
<rect x="56.000" y="24.000" width="4.000" height="4.000" fill="#000"/>
<rect x="64.000" y="24.000" width="4.000" height="4.000" fill="#000"/>
<rect x="68.000" y="24.000" width="4.000" height="4.000" fill="#000"/>
<rect x="8.000" y="28.000" width="4.000" height="4.000" fill="#000"/>
<rect x="32.000" y="28.000" width="4.000" height="4.000" fill="#000"/>
<rect x="64.000" y="28.000" width="4.000" height="4.000" fill="#000"/>
<rect x="68.000" y="28.000" width="4.000" height="4.000" fill="#000"/>
<rect x="72.000" y="28.000" width="4.000" height="4.000" fill="#000"/>
<rect x="8.000" y="32.000" width="4.000" height="4.000" fill="#000"/>
<rect x="12.000" y="32.000" width="4.000" height="4.000" fill="#000"/>
<rect x="16.000" y="32.000" width="4.000" height="4.000" fill="#000"/>
<rect x="20.000" y="32.000" width="4.000" height="4.000" fill="#000"/>
<rect x="24.000" y="32.000" width="4.000" height="4.000" fill="#000"/>
<rect x="28.000" y="32.000" width="4.000" height="4.000" fill="#000"/>
<rect x="32.000" y="32.000" width="4.000" height="4.000" fill="#000"/>
<rect x="48.000" y="32.000" width="4.000" height="4.000" fill="#000"/>
<rect x="52.000" y="32.000" width="4.000" height="4.000" fill="#000"/>
<rect x="60.000" y="32.000" width="4.000" height="4.000" fill="#000"/>
<rect x="68.000" y="32.000" width="4.000" height="4.000" fill="#000"/>
<rect x="72.000" y="32.000" width="4.000" height="4.000" fill="#000"/>
<rect x="52.000" y="36.000" width="4.000" height="4.000" fill="#000"/>
<rect x="60.000" y="36.000" width="4.000" height="4.000" fill="#000"/>
<rect x="64.000" y="36.000" width="4.000" height="4.000" fill="#000"/>
<rect x="72.000" y="36.000" width="4.000" height="4.000" fill="#000"/>
<rect x="8.000" y="40.000" width="4.000" height="4.000" fill="#000"/>
<rect x="16.000" y="40.000" width="4.000" height="4.000" fill="#000"/>
<rect x="28.000" y="40.000" width="4.000" height="4.000" fill="#000"/>
<rect x="36.000" y="40.000" width="4.000" height="4.000" fill="#000"/>
<rect x="48.000" y="40.000" width="4.000" height="4.000" fill="#000"/>
<rect x="56.000" y="40.000" width="4.000" height="4.000" fill="#000"/>
<rect x="64.000" y="40.000" width="4.000" height="4.000" fill="#000"/>
<rect x="68.000" y="40.000" width="4.000" height="4.000" fill="#000"/>
<rect x="12.000" y="44.000" width="4.000" height="4.000" fill="#000"/>
<rect x="16.000" y="44.000" width="4.000" height="4.000" fill="#000"/>
<rect x="32.000" y="44.000" width="4.000" height="4.000" fill="#000"/>
<rect x="36.000" y="44.000" width="4.000" height="4.000" fill="#000"/>
<rect x="48.000" y="44.000" width="4.000" height="4.000" fill="#000"/>
<rect x="60.000" y="44.000" width="4.000" height="4.000" fill="#000"/>
<rect x="64.000" y="44.000" width="4.000" height="4.000" fill="#000"/>
<rect x="68.000" y="44.000" width="4.000" height="4.000" fill="#000"/>
<rect x="8.000" y="48.000" width="4.000" height="4.000" fill="#000"/>
<rect x="12.000" y="48.000" width="4.000" height="4.000" fill="#000"/>
<rect x="16.000" y="48.000" width="4.000" height="4.000" fill="#000"/>
<rect x="20.000" y="48.000" width="4.000" height="4.000" fill="#000"/>
<rect x="24.000" y="48.000" width="4.000" height="4.000" fill="#000"/>
<rect x="28.000" y="48.000" width="4.000" height="4.000" fill="#000"/>
<rect x="36.000" y="48.000" width="4.000" height="4.000" fill="#000"/>
<rect x="40.000" y="48.000" width="4.000" height="4.000" fill="#000"/>
<rect x="44.000" y="48.000" width="4.000" height="4.000" fill="#000"/>
<rect x="48.000" y="48.000" width="4.000" height="4.000" fill="#000"/>
<rect x="60.000" y="48.000" width="4.000" height="4.000" fill="#000"/>
<rect x="64.000" y="48.000" width="4.000" height="4.000" fill="#000"/>
<rect x="72.000" y="48.000" width="4.000" height="4.000" fill="#000"/>
<rect x="16.000" y="52.000" width="4.000" height="4.000" fill="#000"/>
<rect x="20.000" y="52.000" width="4.000" height="4.000" fill="#000"/>
<rect x="24.000" y="52.000" width="4.000" height="4.000" fill="#000"/>
<rect x="32.000" y="52.000" width="4.000" height="4.000" fill="#000"/>
<rect x="44.000" y="52.000" width="4.000" height="4.000" fill="#000"/>
<rect x="48.000" y="52.000" width="4.000" height="4.000" fill="#000"/>
<rect x="64.000" y="52.000" width="4.000" height="4.000" fill="#000"/>
<rect x="72.000" y="52.000" width="4.000" height="4.000" fill="#000"/>
<rect x="8.000" y="56.000" width="4.000" height="4.000" fill="#000"/>
<rect x="12.000" y="56.000" width="4.000" height="4.000" fill="#000"/>
<rect x="16.000" y="56.000" width="4.000" height="4.000" fill="#000"/>
<rect x="20.000" y="56.000" width="4.000" height="4.000" fill="#000"/>
<rect x="24.000" y="56.000" width="4.000" height="4.000" fill="#000"/>
<rect x="36.000" y="56.000" width="4.000" height="4.000" fill="#000"/>
<rect x="44.000" y="56.000" width="4.000" height="4.000" fill="#000"/>
<rect x="60.000" y="56.000" width="4.000" height="4.000" fill="#000"/>
<rect x="68.000" y="56.000" width="4.000" height="4.000" fill="#000"/>
<rect x="72.000" y="56.000" width="4.000" height="4.000" fill="#000"/>
<rect x="12.000" y="60.000" width="4.000" height="4.000" fill="#000"/>
<rect x="16.000" y="60.000" width="4.000" height="4.000" fill="#000"/>
<rect x="20.000" y="60.000" width="4.000" height="4.000" fill="#000"/>
<rect x="32.000" y="60.000" width="4.000" height="4.000" fill="#000"/>
<rect x="36.000" y="60.000" width="4.000" height="4.000" fill="#000"/>
<rect x="48.000" y="60.000" width="4.000" height="4.000" fill="#000"/>
<rect x="52.000" y="60.000" width="4.000" height="4.000" fill="#000"/>
<rect x="56.000" y="60.000" width="4.000" height="4.000" fill="#000"/>
<rect x="60.000" y="60.000" width="4.000" height="4.000" fill="#000"/>
<rect x="64.000" y="60.000" width="4.000" height="4.000" fill="#000"/>
<rect x="72.000" y="60.000" width="4.000" height="4.000" fill="#000"/>
<rect x="8.000" y="64.000" width="4.000" height="4.000" fill="#000"/>
<rect x="12.000" y="64.000" width="4.000" height="4.000" fill="#000"/>
<rect x="16.000" y="64.000" width="4.000" height="4.000" fill="#000"/>
<rect x="20.000" y="64.000" width="4.000" height="4.000" fill="#000"/>
<rect x="40.000" y="64.000" width="4.000" height="4.000" fill="#000"/>
<rect x="44.000" y="64.000" width="4.000" height="4.000" fill="#000"/>
<rect x="48.000" y="64.000" width="4.000" height="4.000" fill="#000"/>
<rect x="56.000" y="64.000" width="4.000" height="4.000" fill="#000"/>
<rect x="60.000" y="64.000" width="4.000" height="4.000" fill="#000"/>
<rect x="64.000" y="64.000" width="4.000" height="4.000" fill="#000"/>
<rect x="24.000" y="68.000" width="4.000" height="4.000" fill="#000"/>
<rect x="36.000" y="68.000" width="4.000" height="4.000" fill="#000"/>
<rect x="48.000" y="68.000" width="4.000" height="4.000" fill="#000"/>
<rect x="56.000" y="68.000" width="4.000" height="4.000" fill="#000"/>
<rect x="60.000" y="68.000" width="4.000" height="4.000" fill="#000"/>
<rect x="72.000" y="68.000" width="4.000" height="4.000" fill="#000"/>
<rect x="8.000" y="72.000" width="4.000" height="4.000" fill="#000"/>
<rect x="16.000" y="72.000" width="4.000" height="4.000" fill="#000"/>
<rect x="24.000" y="72.000" width="4.000" height="4.000" fill="#000"/>
<rect x="36.000" y="72.000" width="4.000" height="4.000" fill="#000"/>
<rect x="40.000" y="72.000" width="4.000" height="4.000" fill="#000"/>
<rect x="52.000" y="72.000" width="4.000" height="4.000" fill="#000"/>
<rect x="56.000" y="72.000" width="4.000" height="4.000" fill="#000"/>
<rect x="64.000" y="72.000" width="4.000" height="4.000" fill="#000"/>
<rect x="68.000" y="72.000" width="4.000" height="4.000" fill="#000"/>
<rect x="72.000" y="72.000" width="4.000" height="4.000" fill="#000"/>
<text x="126.000" y="33.218" font-family="Consolas, monospace" font-weight="bold" font-size="35.127" text-anchor="middle" fill="#000">6V59</text>
<text x="126.000" y="75.371" font-family="Consolas, monospace" font-weight="bold" font-size="35.127" text-anchor="middle" fill="#000">2HGC</text></g>
<g transform="translate(516,0)"><rect x="8.000" y="8.000" width="4.000" height="4.000" fill="#000"/>
<rect x="12.000" y="8.000" width="4.000" height="4.000" fill="#000"/>
<rect x="16.000" y="8.000" width="4.000" height="4.000" fill="#000"/>
<rect x="20.000" y="8.000" width="4.000" height="4.000" fill="#000"/>
<rect x="24.000" y="8.000" width="4.000" height="4.000" fill="#000"/>
<rect x="28.000" y="8.000" width="4.000" height="4.000" fill="#000"/>
<rect x="32.000" y="8.000" width="4.000" height="4.000" fill="#000"/>
<rect x="40.000" y="8.000" width="4.000" height="4.000" fill="#000"/>
<rect x="48.000" y="8.000" width="4.000" height="4.000" fill="#000"/>
<rect x="56.000" y="8.000" width="4.000" height="4.000" fill="#000"/>
<rect x="64.000" y="8.000" width="4.000" height="4.000" fill="#000"/>
<rect x="72.000" y="8.000" width="4.000" height="4.000" fill="#000"/>
<rect x="8.000" y="12.000" width="4.000" height="4.000" fill="#000"/>
<rect x="32.000" y="12.000" width="4.000" height="4.000" fill="#000"/>
<rect x="44.000" y="12.000" width="4.000" height="4.000" fill="#000"/>
<rect x="48.000" y="12.000" width="4.000" height="4.000" fill="#000"/>
<rect x="64.000" y="12.000" width="4.000" height="4.000" fill="#000"/>
<rect x="8.000" y="16.000" width="4.000" height="4.000" fill="#000"/>
<rect x="16.000" y="16.000" width="4.000" height="4.000" fill="#000"/>
<rect x="20.000" y="16.000" width="4.000" height="4.000" fill="#000"/>
<rect x="24.000" y="16.000" width="4.000" height="4.000" fill="#000"/>
<rect x="32.000" y="16.000" width="4.000" height="4.000" fill="#000"/>
<rect x="44.000" y="16.000" width="4.000" height="4.000" fill="#000"/>
<rect x="52.000" y="16.000" width="4.000" height="4.000" fill="#000"/>
<rect x="56.000" y="16.000" width="4.000" height="4.000" fill="#000"/>
<rect x="60.000" y="16.000" width="4.000" height="4.000" fill="#000"/>
<rect x="68.000" y="16.000" width="4.000" height="4.000" fill="#000"/>
<rect x="72.000" y="16.000" width="4.000" height="4.000" fill="#000"/>
<rect x="8.000" y="20.000" width="4.000" height="4.000" fill="#000"/>
<rect x="16.000" y="20.000" width="4.000" height="4.000" fill="#000"/>
<rect x="20.000" y="20.000" width="4.000" height="4.000" fill="#000"/>
<rect x="24.000" y="20.000" width="4.000" height="4.000" fill="#000"/>
<rect x="32.000" y="20.000" width="4.000" height="4.000" fill="#000"/>
<rect x="44.000" y="20.000" width="4.000" height="4.000" fill="#000"/>
<rect x="48.000" y="20.000" width="4.000" height="4.000" fill="#000"/>
<rect x="60.000" y="20.000" width="4.000" height="4.000" fill="#000"/>
<rect x="64.000" y="20.000" width="4.000" height="4.000" fill="#000"/>
<rect x="8.000" y="24.000" width="4.000" height="4.000" fill="#000"/>
<rect x="16.000" y="24.000" width="4.000" height="4.000" fill="#000"/>
<rect x="20.000" y="24.000" width="4.000" height="4.000" fill="#000"/>
<rect x="24.000" y="24.000" width="4.000" height="4.000" fill="#000"/>
<rect x="32.000" y="24.000" width="4.000" height="4.000" fill="#000"/>
<rect x="40.000" y="24.000" width="4.000" height="4.000" fill="#000"/>
<rect x="44.000" y="24.000" width="4.000" height="4.000" fill="#000"/>
<rect x="48.000" y="24.000" width="4.000" height="4.000" fill="#000"/>
<rect x="52.000" y="24.000" width="4.000" height="4.000" fill="#000"/>
<rect x="56.000" y="24.000" width="4.000" height="4.000" fill="#000"/>
<rect x="60.000" y="24.000" width="4.000" height="4.000" fill="#000"/>
<rect x="64.000" y="24.000" width="4.000" height="4.000" fill="#000"/>
<rect x="8.000" y="28.000" width="4.000" height="4.000" fill="#000"/>
<rect x="32.000" y="28.000" width="4.000" height="4.000" fill="#000"/>
<rect x="64.000" y="28.000" width="4.000" height="4.000" fill="#000"/>
<rect x="72.000" y="28.000" width="4.000" height="4.000" fill="#000"/>
<rect x="8.000" y="32.000" width="4.000" height="4.000" fill="#000"/>
<rect x="12.000" y="32.000" width="4.000" height="4.000" fill="#000"/>
<rect x="16.000" y="32.000" width="4.000" height="4.000" fill="#000"/>
<rect x="20.000" y="32.000" width="4.000" height="4.000" fill="#000"/>
<rect x="24.000" y="32.000" width="4.000" height="4.000" fill="#000"/>
<rect x="28.000" y="32.000" width="4.000" height="4.000" fill="#000"/>
<rect x="32.000" y="32.000" width="4.000" height="4.000" fill="#000"/>
<rect x="48.000" y="32.000" width="4.000" height="4.000" fill="#000"/>
<rect x="52.000" y="32.000" width="4.000" height="4.000" fill="#000"/>
<rect x="56.000" y="32.000" width="4.000" height="4.000" fill="#000"/>
<rect x="64.000" y="32.000" width="4.000" height="4.000" fill="#000"/>
<rect x="68.000" y="32.000" width="4.000" height="4.000" fill="#000"/>
<rect x="52.000" y="36.000" width="4.000" height="4.000" fill="#000"/>
<rect x="56.000" y="36.000" width="4.000" height="4.000" fill="#000"/>
<rect x="64.000" y="36.000" width="4.000" height="4.000" fill="#000"/>
<rect x="72.000" y="36.000" width="4.000" height="4.000" fill="#000"/>
<rect x="8.000" y="40.000" width="4.000" height="4.000" fill="#000"/>
<rect x="16.000" y="40.000" width="4.000" height="4.000" fill="#000"/>
<rect x="28.000" y="40.000" width="4.000" height="4.000" fill="#000"/>
<rect x="36.000" y="40.000" width="4.000" height="4.000" fill="#000"/>
<rect x="48.000" y="40.000" width="4.000" height="4.000" fill="#000"/>
<rect x="52.000" y="40.000" width="4.000" height="4.000" fill="#000"/>
<rect x="64.000" y="40.000" width="4.000" height="4.000" fill="#000"/>
<rect x="68.000" y="40.000" width="4.000" height="4.000" fill="#000"/>
<rect x="24.000" y="44.000" width="4.000" height="4.000" fill="#000"/>
<rect x="36.000" y="44.000" width="4.000" height="4.000" fill="#000"/>
<rect x="40.000" y="44.000" width="4.000" height="4.000" fill="#000"/>
<rect x="44.000" y="44.000" width="4.000" height="4.000" fill="#000"/>
<rect x="48.000" y="44.000" width="4.000" height="4.000" fill="#000"/>
<rect x="52.000" y="44.000" width="4.000" height="4.000" fill="#000"/>
<rect x="60.000" y="44.000" width="4.000" height="4.000" fill="#000"/>
<rect x="64.000" y="44.000" width="4.000" height="4.000" fill="#000"/>
<rect x="8.000" y="48.000" width="4.000" height="4.000" fill="#000"/>
<rect x="24.000" y="48.000" width="4.000" height="4.000" fill="#000"/>
<rect x="28.000" y="48.000" width="4.000" height="4.000" fill="#000"/>
<rect x="36.000" y="48.000" width="4.000" height="4.000" fill="#000"/>
<rect x="48.000" y="48.000" width="4.000" height="4.000" fill="#000"/>
<rect x="52.000" y="48.000" width="4.000" height="4.000" fill="#000"/>
<rect x="56.000" y="48.000" width="4.000" height="4.000" fill="#000"/>
<rect x="60.000" y="48.000" width="4.000" height="4.000" fill="#000"/>
<rect x="64.000" y="48.000" width="4.000" height="4.000" fill="#000"/>
<rect x="72.000" y="48.000" width="4.000" height="4.000" fill="#000"/>
<rect x="12.000" y="52.000" width="4.000" height="4.000" fill="#000"/>
<rect x="20.000" y="52.000" width="4.000" height="4.000" fill="#000"/>
<rect x="24.000" y="52.000" width="4.000" height="4.000" fill="#000"/>
<rect x="28.000" y="52.000" width="4.000" height="4.000" fill="#000"/>
<rect x="32.000" y="52.000" width="4.000" height="4.000" fill="#000"/>
<rect x="40.000" y="52.000" width="4.000" height="4.000" fill="#000"/>
<rect x="44.000" y="52.000" width="4.000" height="4.000" fill="#000"/>
<rect x="48.000" y="52.000" width="4.000" height="4.000" fill="#000"/>
<rect x="52.000" y="52.000" width="4.000" height="4.000" fill="#000"/>
<rect x="64.000" y="52.000" width="4.000" height="4.000" fill="#000"/>
<rect x="68.000" y="52.000" width="4.000" height="4.000" fill="#000"/>
<rect x="8.000" y="56.000" width="4.000" height="4.000" fill="#000"/>
<rect x="20.000" y="56.000" width="4.000" height="4.000" fill="#000"/>
<rect x="24.000" y="56.000" width="4.000" height="4.000" fill="#000"/>
<rect x="32.000" y="56.000" width="4.000" height="4.000" fill="#000"/>
<rect x="36.000" y="56.000" width="4.000" height="4.000" fill="#000"/>
<rect x="56.000" y="56.000" width="4.000" height="4.000" fill="#000"/>
<rect x="60.000" y="56.000" width="4.000" height="4.000" fill="#000"/>
<rect x="72.000" y="56.000" width="4.000" height="4.000" fill="#000"/>
<rect x="20.000" y="60.000" width="4.000" height="4.000" fill="#000"/>
<rect x="32.000" y="60.000" width="4.000" height="4.000" fill="#000"/>
<rect x="44.000" y="60.000" width="4.000" height="4.000" fill="#000"/>
<rect x="56.000" y="60.000" width="4.000" height="4.000" fill="#000"/>
<rect x="60.000" y="60.000" width="4.000" height="4.000" fill="#000"/>
<rect x="64.000" y="60.000" width="4.000" height="4.000" fill="#000"/>
<rect x="72.000" y="60.000" width="4.000" height="4.000" fill="#000"/>
<rect x="8.000" y="64.000" width="4.000" height="4.000" fill="#000"/>
<rect x="20.000" y="64.000" width="4.000" height="4.000" fill="#000"/>
<rect x="40.000" y="64.000" width="4.000" height="4.000" fill="#000"/>
<rect x="52.000" y="64.000" width="4.000" height="4.000" fill="#000"/>
<rect x="60.000" y="64.000" width="4.000" height="4.000" fill="#000"/>
<rect x="64.000" y="64.000" width="4.000" height="4.000" fill="#000"/>
<rect x="12.000" y="68.000" width="4.000" height="4.000" fill="#000"/>
<rect x="16.000" y="68.000" width="4.000" height="4.000" fill="#000"/>
<rect x="20.000" y="68.000" width="4.000" height="4.000" fill="#000"/>
<rect x="28.000" y="68.000" width="4.000" height="4.000" fill="#000"/>
<rect x="48.000" y="68.000" width="4.000" height="4.000" fill="#000"/>
<rect x="60.000" y="68.000" width="4.000" height="4.000" fill="#000"/>
<rect x="64.000" y="68.000" width="4.000" height="4.000" fill="#000"/>
<rect x="72.000" y="68.000" width="4.000" height="4.000" fill="#000"/>
<rect x="8.000" y="72.000" width="4.000" height="4.000" fill="#000"/>
<rect x="12.000" y="72.000" width="4.000" height="4.000" fill="#000"/>
<rect x="16.000" y="72.000" width="4.000" height="4.000" fill="#000"/>
<rect x="20.000" y="72.000" width="4.000" height="4.000" fill="#000"/>
<rect x="32.000" y="72.000" width="4.000" height="4.000" fill="#000"/>
<rect x="36.000" y="72.000" width="4.000" height="4.000" fill="#000"/>
<rect x="52.000" y="72.000" width="4.000" height="4.000" fill="#000"/>
<rect x="60.000" y="72.000" width="4.000" height="4.000" fill="#000"/>
<rect x="68.000" y="72.000" width="4.000" height="4.000" fill="#000"/>
<rect x="72.000" y="72.000" width="4.000" height="4.000" fill="#000"/>
<text x="126.000" y="33.218" font-family="Consolas, monospace" font-weight="bold" font-size="35.127" text-anchor="middle" fill="#000">F2FD</text>
<text x="126.000" y="75.371" font-family="Consolas, monospace" font-weight="bold" font-size="35.127" text-anchor="middle" fill="#000">7U97</text></g>
</svg>
