<svg xmlns="http://www.w3.org/2000/svg" width="8.000mm" height="16.000mm" viewBox="0 0 8.000 16.000">
<rect x="1.103" y="1.103" width="0.276" height="0.276" fill="#000"/>
<rect x="1.379" y="1.103" width="0.276" height="0.276" fill="#000"/>
<rect x="1.655" y="1.103" width="0.276" height="0.276" fill="#000"/>
<rect x="1.931" y="1.103" width="0.276" height="0.276" fill="#000"/>
<rect x="2.207" y="1.103" width="0.276" height="0.276" fill="#000"/>
<rect x="2.483" y="1.103" width="0.276" height="0.276" fill="#000"/>
<rect x="2.759" y="1.103" width="0.276" height="0.276" fill="#000"/>
<rect x="3.310" y="1.103" width="0.276" height="0.276" fill="#000"/>
<rect x="3.586" y="1.103" width="0.276" height="0.276" fill="#000"/>
<rect x="4.414" y="1.103" width="0.276" height="0.276" fill="#000"/>
<rect x="4.966" y="1.103" width="0.276" height="0.276" fill="#000"/>
<rect x="5.241" y="1.103" width="0.276" height="0.276" fill="#000"/>
<rect x="5.517" y="1.103" width="0.276" height="0.276" fill="#000"/>
<rect x="5.793" y="1.103" width="0.276" height="0.276" fill="#000"/>
<rect x="6.069" y="1.103" width="0.276" height="0.276" fill="#000"/>
<rect x="6.345" y="1.103" width="0.276" height="0.276" fill="#000"/>
<rect x="6.621" y="1.103" width="0.276" height="0.276" fill="#000"/>
<rect x="1.103" y="1.379" width="0.276" height="0.276" fill="#000"/>
<rect x="2.759" y="1.379" width="0.276" height="0.276" fill="#000"/>
<rect x="3.310" y="1.379" width="0.276" height="0.276" fill="#000"/>
<rect x="3.586" y="1.379" width="0.276" height="0.276" fill="#000"/>
<rect x="4.138" y="1.379" width="0.276" height="0.276" fill="#000"/>
<rect x="4.414" y="1.379" width="0.276" height="0.276" fill="#000"/>
<rect x="4.966" y="1.379" width="0.276" height="0.276" fill="#000"/>
<rect x="6.621" y="1.379" width="0.276" height="0.276" fill="#000"/>
<rect x="1.103" y="1.655" width="0.276" height="0.276" fill="#000"/>
<rect x="1.655" y="1.655" width="0.276" height="0.276" fill="#000"/>
<rect x="1.931" y="1.655" width="0.276" height="0.276" fill="#000"/>
<rect x="2.207" y="1.655" width="0.276" height="0.276" fill="#000"/>
<rect x="2.759" y="1.655" width="0.276" height="0.276" fill="#000"/>
<rect x="3.310" y="1.655" width="0.276" height="0.276" fill="#000"/>
<rect x="4.138" y="1.655" width="0.276" height="0.276" fill="#000"/>
<rect x="4.966" y="1.655" width="0.276" height="0.276" fill="#000"/>
<rect x="5.517" y="1.655" width="0.276" height="0.276" fill="#000"/>
<rect x="5.793" y="1.655" width="0.276" height="0.276" fill="#000"/>
<rect x="6.069" y="1.655" width="0.276" height="0.276" fill="#000"/>
<rect x="6.621" y="1.655" width="0.276" height="0.276" fill="#000"/>
<rect x="1.103" y="1.931" width="0.276" height="0.276" fill="#000"/>
<rect x="1.655" y="1.931" width="0.276" height="0.276" fill="#000"/>
<rect x="1.931" y="1.931" width="0.276" height="0.276" fill="#000"/>
<rect x="2.207" y="1.931" width="0.276" height="0.276" fill="#000"/>
<rect x="2.759" y="1.931" width="0.276" height="0.276" fill="#000"/>
<rect x="3.310" y="1.931" width="0.276" height="0.276" fill="#000"/>
<rect x="3.586" y="1.931" width="0.276" height="0.276" fill="#000"/>
<rect x="4.414" y="1.931" width="0.276" height="0.276" fill="#000"/>
<rect x="4.966" y="1.931" width="0.276" height="0.276" fill="#000"/>
<rect x="5.517" y="1.931" width="0.276" height="0.276" fill="#000"/>
<rect x="5.793" y="1.931" width="0.276" height="0.276" fill="#000"/>
<rect x="6.069" y="1.931" width="0.276" height="0.276" fill="#000"/>
<rect x="6.621" y="1.931" width="0.276" height="0.276" fill="#000"/>
<rect x="1.103" y="2.207" width="0.276" height="0.276" fill="#000"/>
<rect x="1.655" y="2.207" width="0.276" height="0.276" fill="#000"/>
<rect x="1.931" y="2.207" width="0.276" height="0.276" fill="#000"/>
<rect x="2.207" y="2.207" width="0.276" height="0.276" fill="#000"/>
<rect x="2.759" y="2.207" width="0.276" height="0.276" fill="#000"/>
<rect x="3.310" y="2.207" width="0.276" height="0.276" fill="#000"/>
<rect x="3.586" y="2.207" width="0.276" height="0.276" fill="#000"/>
<rect x="4.138" y="2.207" width="0.276" height="0.276" fill="#000"/>
<rect x="4.414" y="2.207" width="0.276" height="0.276" fill="#000"/>
<rect x="4.966" y="2.207" width="0.276" height="0.276" fill="#000"/>
<rect x="5.517" y="2.207" width="0.276" height="0.276" fill="#000"/>
<rect x="5.793" y="2.207" width="0.276" height="0.276" fill="#000"/>
<rect x="6.069" y="2.207" width="0.276" height="0.276" fill="#000"/>
<rect x="6.621" y="2.207" width="0.276" height="0.276" fill="#000"/>
<rect x="1.103" y="2.483" width="0.276" height="0.276" fill="#000"/>
<rect x="2.759" y="2.483" width="0.276" height="0.276" fill="#000"/>
<rect x="3.862" y="2.483" width="0.276" height="0.276" fill="#000"/>
<rect x="4.138" y="2.483" width="0.276" height="0.276" fill="#000"/>
<rect x="4.414" y="2.483" width="0.276" height="0.276" fill="#000"/>
<rect x="4.966" y="2.483" width="0.276" height="0.276" fill="#000"/>
<rect x="6.621" y="2.483" width="0.276" height="0.276" fill="#000"/>
<rect x="1.103" y="2.759" width="0.276" height="0.276" fill="#000"/>
<rect x="1.379" y="2.759" width="0.276" height="0.276" fill="#000"/>
<rect x="1.655" y="2.759" width="0.276" height="0.276" fill="#000"/>
<rect x="1.931" y="2.759" width="0.276" height="0.276" fill="#000"/>
<rect x="2.207" y="2.759" width="0.276" height="0.276" fill="#000"/>
<rect x="2.483" y="2.759" width="0.276" height="0.276" fill="#000"/>
<rect x="2.759" y="2.759" width="0.276" height="0.276" fill="#000"/>
<rect x="3.310" y="2.759" width="0.276" height="0.276" fill="#000"/>
<rect x="3.862" y="2.759" width="0.276" height="0.276" fill="#000"/>
<rect x="4.414" y="2.759" width="0.276" height="0.276" fill="#000"/>
<rect x="4.966" y="2.759" width="0.276" height="0.276" fill="#000"/>
<rect x="5.241" y="2.759" width="0.276" height="0.276" fill="#000"/>
<rect x="5.517" y="2.759" width="0.276" height="0.276" fill="#000"/>
<rect x="5.793" y="2.759" width="0.276" height="0.276" fill="#000"/>
<rect x="6.069" y="2.759" width="0.276" height="0.276" fill="#000"/>
<rect x="6.345" y="2.759" width="0.276" height="0.276" fill="#000"/>
<rect x="6.621" y="2.759" width="0.276" height="0.276" fill="#000"/>
<rect x="3.310" y="3.034" width="0.276" height="0.276" fill="#000"/>
<rect x="1.379" y="3.310" width="0.276" height="0.276" fill="#000"/>
<rect x="1.655" y="3.310" width="0.276" height="0.276" fill="#000"/>
<rect x="2.207" y="3.310" width="0.276" height="0.276" fill="#000"/>
<rect x="2.759" y="3.310" width="0.276" height="0.276" fill="#000"/>
<rect x="3.034" y="3.310" width="0.276" height="0.276" fill="#000"/>
<rect x="4.138" y="3.310" width="0.276" height="0.276" fill="#000"/>
<rect x="4.966" y="3.310" width="0.276" height="0.276" fill="#000"/>
<rect x="5.517" y="3.310" width="0.276" height="0.276" fill="#000"/>
<rect x="5.793" y="3.310" width="0.276" height="0.276" fill="#000"/>
<rect x="6.069" y="3.310" width="0.276" height="0.276" fill="#000"/>
<rect x="6.345" y="3.310" width="0.276" height="0.276" fill="#000"/>
<rect x="6.621" y="3.310" width="0.276" height="0.276" fill="#000"/>
<rect x="1.103" y="3.586" width="0.276" height="0.276" fill="#000"/>
<rect x="2.483" y="3.586" width="0.276" height="0.276" fill="#000"/>
<rect x="3.034" y="3.586" width="0.276" height="0.276" fill="#000"/>
<rect x="3.310" y="3.586" width="0.276" height="0.276" fill="#000"/>
<rect x="3.586" y="3.586" width="0.276" height="0.276" fill="#000"/>
<rect x="3.862" y="3.586" width="0.276" height="0.276" fill="#000"/>
<rect x="4.966" y="3.586" width="0.276" height="0.276" fill="#000"/>
<rect x="5.241" y="3.586" width="0.276" height="0.276" fill="#000"/>
<rect x="5.517" y="3.586" width="0.276" height="0.276" fill="#000"/>
<rect x="6.621" y="3.586" width="0.276" height="0.276" fill="#000"/>
<rect x="1.103" y="3.862" width="0.276" height="0.276" fill="#000"/>
<rect x="1.931" y="3.862" width="0.276" height="0.276" fill="#000"/>
<rect x="2.207" y="3.862" width="0.276" height="0.276" fill="#000"/>
<rect x="2.483" y="3.862" width="0.276" height="0.276" fill="#000"/>
<rect x="2.759" y="3.862" width="0.276" height="0.276" fill="#000"/>
<rect x="4.138" y="3.862" width="0.276" height="0.276" fill="#000"/>
<rect x="4.690" y="3.862" width="0.276" height="0.276" fill="#000"/>
<rect x="5.793" y="3.862" width="0.276" height="0.276" fill="#000"/>
<rect x="1.103" y="4.138" width="0.276" height="0.276" fill="#000"/>
<rect x="1.655" y="4.138" width="0.276" height="0.276" fill="#000"/>
<rect x="3.310" y="4.138" width="0.276" height="0.276" fill="#000"/>
<rect x="4.414" y="4.138" width="0.276" height="0.276" fill="#000"/>
<rect x="4.690" y="4.138" width="0.276" height="0.276" fill="#000"/>
<rect x="4.966" y="4.138" width="0.276" height="0.276" fill="#000"/>
<rect x="5.241" y="4.138" width="0.276" height="0.276" fill="#000"/>
<rect x="5.517" y="4.138" width="0.276" height="0.276" fill="#000"/>
<rect x="6.069" y="4.138" width="0.276" height="0.276" fill="#000"/>
<rect x="6.345" y="4.138" width="0.276" height="0.276" fill="#000"/>
<rect x="1.931" y="4.414" width="0.276" height="0.276" fill="#000"/>
<rect x="2.207" y="4.414" width="0.276" height="0.276" fill="#000"/>
<rect x="2.759" y="4.414" width="0.276" height="0.276" fill="#000"/>
<rect x="3.310" y="4.414" width="0.276" height="0.276" fill="#000"/>
<rect x="3.586" y="4.414" width="0.276" height="0.276" fill="#000"/>
<rect x="4.138" y="4.414" width="0.276" height="0.276" fill="#000"/>
<rect x="4.690" y="4.414" width="0.276" height="0.276" fill="#000"/>
<rect x="5.241" y="4.414" width="0.276" height="0.276" fill="#000"/>
<rect x="6.069" y="4.414" width="0.276" height="0.276" fill="#000"/>
<rect x="3.310" y="4.690" width="0.276" height="0.276" fill="#000"/>
<rect x="4.414" y="4.690" width="0.276" height="0.276" fill="#000"/>
<rect x="5.793" y="4.690" width="0.276" height="0.276" fill="#000"/>
<rect x="6.621" y="4.690" width="0.276" height="0.276" fill="#000"/>
<rect x="1.103" y="4.966" width="0.276" height="0.276" fill="#000"/>
<rect x="1.379" y="4.966" width="0.276" height="0.276" fill="#000"/>
<rect x="1.655" y="4.966" width="0.276" height="0.276" fill="#000"/>
<rect x="1.931" y="4.966" width="0.276" height="0.276" fill="#000"/>
<rect x="2.207" y="4.966" width="0.276" height="0.276" fill="#000"/>
<rect x="2.483" y="4.966" width="0.276" height="0.276" fill="#000"/>
<rect x="2.759" y="4.966" width="0.276" height="0.276" fill="#000"/>
<rect x="3.310" y="4.966" width="0.276" height="0.276" fill="#000"/>
<rect x="3.586" y="4.966" width="0.276" height="0.276" fill="#000"/>
<rect x="4.690" y="4.966" width="0.276" height="0.276" fill="#000"/>
<rect x="5.517" y="4.966" width="0.276" height="0.276" fill="#000"/>
<rect x="5.793" y="4.966" width="0.276" height="0.276" fill="#000"/>
<rect x="6.621" y="4.966" width="0.276" height="0.276" fill="#000"/>
<rect x="1.103" y="5.241" width="0.276" height="0.276" fill="#000"/>
<rect x="2.759" y="5.241" width="0.276" height="0.276" fill="#000"/>
<rect x="3.586" y="5.241" width="0.276" height="0.276" fill="#000"/>
<rect x="3.862" y="5.241" width="0.276" height="0.276" fill="#000"/>
<rect x="4.690" y="5.241" width="0.276" height="0.276" fill="#000"/>
<rect x="4.966" y="5.241" width="0.276" height="0.276" fill="#000"/>
<rect x="5.793" y="5.241" width="0.276" height="0.276" fill="#000"/>
<rect x="6.621" y="5.241" width="0.276" height="0.276" fill="#000"/>
<rect x="1.103" y="5.517" width="0.276" height="0.276" fill="#000"/>
<rect x="1.655" y="5.517" width="0.276" height="0.276" fill="#000"/>
<rect x="1.931" y="5.517" width="0.276" height="0.276" fill="#000"/>
<rect x="2.207" y="5.517" width="0.276" height="0.276" fill="#000"/>
<rect x="2.759" y="5.517" width="0.276" height="0.276" fill="#000"/>
<rect x="3.310" y="5.517" width="0.276" height="0.276" fill="#000"/>
<rect x="3.586" y="5.517" width="0.276" height="0.276" fill="#000"/>
<rect x="4.138" y="5.517" width="0.276" height="0.276" fill="#000"/>
<rect x="4.414" y="5.517" width="0.276" height="0.276" fill="#000"/>
<rect x="4.690" y="5.517" width="0.276" height="0.276" fill="#000"/>
<rect x="5.241" y="5.517" width="0.276" height="0.276" fill="#000"/>
<rect x="5.517" y="5.517" width="0.276" height="0.276" fill="#000"/>
<rect x="5.793" y="5.517" width="0.276" height="0.276" fill="#000"/>
<rect x="6.069" y="5.517" width="0.276" height="0.276" fill="#000"/>
<rect x="6.345" y="5.517" width="0.276" height="0.276" fill="#000"/>
<rect x="6.621" y="5.517" width="0.276" height="0.276" fill="#000"/>
<rect x="1.103" y="5.793" width="0.276" height="0.276" fill="#000"/>
<rect x="1.655" y="5.793" width="0.276" height="0.276" fill="#000"/>
<rect x="1.931" y="5.793" width="0.276" height="0.276" fill="#000"/>
<rect x="2.207" y="5.793" width="0.276" height="0.276" fill="#000"/>
<rect x="2.759" y="5.793" width="0.276" height="0.276" fill="#000"/>
<rect x="3.862" y="5.793" width="0.276" height="0.276" fill="#000"/>
<rect x="4.138" y="5.793" width="0.276" height="0.276" fill="#000"/>
<rect x="4.966" y="5.793" width="0.276" height="0.276" fill="#000"/>
<rect x="5.241" y="5.793" width="0.276" height="0.276" fill="#000"/>
<rect x="6.069" y="5.793" width="0.276" height="0.276" fill="#000"/>
<rect x="6.345" y="5.793" width="0.276" height="0.276" fill="#000"/>
<rect x="1.103" y="6.069" width="0.276" height="0.276" fill="#000"/>
<rect x="1.655" y="6.069" width="0.276" height="0.276" fill="#000"/>
<rect x="1.931" y="6.069" width="0.276" height="0.276" fill="#000"/>
<rect x="2.207" y="6.069" width="0.276" height="0.276" fill="#000"/>
<rect x="2.759" y="6.069" width="0.276" height="0.276" fill="#000"/>
<rect x="3.310" y="6.069" width="0.276" height="0.276" fill="#000"/>
<rect x="4.138" y="6.069" width="0.276" height="0.276" fill="#000"/>
<rect x="4.966" y="6.069" width="0.276" height="0.276" fill="#000"/>
<rect x="5.793" y="6.069" width="0.276" height="0.276" fill="#000"/>
<rect x="6.621" y="6.069" width="0.276" height="0.276" fill="#000"/>
<rect x="1.103" y="6.345" width="0.276" height="0.276" fill="#000"/>
<rect x="2.759" y="6.345" width="0.276" height="0.276" fill="#000"/>
<rect x="3.310" y="6.345" width="0.276" height="0.276" fill="#000"/>
<rect x="3.586" y="6.345" width="0.276" height="0.276" fill="#000"/>
<rect x="4.138" y="6.345" width="0.276" height="0.276" fill="#000"/>
<rect x="4.414" y="6.345" width="0.276" height="0.276" fill="#000"/>
<rect x="4.690" y="6.345" width="0.276" height="0.276" fill="#000"/>
<rect x="6.069" y="6.345" width="0.276" height="0.276" fill="#000"/>
<rect x="6.345" y="6.345" width="0.276" height="0.276" fill="#000"/>
<rect x="6.621" y="6.345" width="0.276" height="0.276" fill="#000"/>
<rect x="1.103" y="6.621" width="0.276" height="0.276" fill="#000"/>
<rect x="1.379" y="6.621" width="0.276" height="0.276" fill="#000"/>
<rect x="1.655" y="6.621" width="0.276" height="0.276" fill="#000"/>
<rect x="1.931" y="6.621" width="0.276" height="0.276" fill="#000"/>
<rect x="2.207" y="6.621" width="0.276" height="0.276" fill="#000"/>
<rect x="2.483" y="6.621" width="0.276" height="0.276" fill="#000"/>
<rect x="2.759" y="6.621" width="0.276" height="0.276" fill="#000"/>
<rect x="4.138" y="6.621" width="0.276" height="0.276" fill="#000"/>
<rect x="4.966" y="6.621" width="0.276" height="0.276" fill="#000"/>
<rect x="5.241" y="6.621" width="0.276" height="0.276" fill="#000"/>
<rect x="6.069" y="6.621" width="0.276" height="0.276" fill="#000"/>
<rect x="6.621" y="6.621" width="0.276" height="0.276" fill="#000"/>
<text x="4.000" y="11.164" font-family="Consolas, monospace" font-weight="bold" font-size="3.345" text-anchor="middle" fill="#000">K7M3</text>
<text x="4.000" y="15.178" font-family="Consolas, monospace" font-weight="bold" font-size="3.345" text-anchor="middle" fill="#000">PQ9R</text>
</svg>
