<svg xmlns="http://www.w3.org/2000/svg" width="6.000mm" height="12.000mm" viewBox="0 0 6.000 12.000">
<rect x="0.571" y="0.571" width="0.286" height="0.286" fill="#000"/>
<rect x="0.857" y="0.571" width="0.286" height="0.286" fill="#000"/>
<rect x="1.143" y="0.571" width="0.286" height="0.286" fill="#000"/>
<rect x="1.429" y="0.571" width="0.286" height="0.286" fill="#000"/>
<rect x="1.714" y="0.571" width="0.286" height="0.286" fill="#000"/>
<rect x="2.000" y="0.571" width="0.286" height="0.286" fill="#000"/>
<rect x="2.286" y="0.571" width="0.286" height="0.286" fill="#000"/>
<rect x="2.857" y="0.571" width="0.286" height="0.286" fill="#000"/>
<rect x="3.429" y="0.571" width="0.286" height="0.286" fill="#000"/>
<rect x="4.000" y="0.571" width="0.286" height="0.286" fill="#000"/>
<rect x="4.571" y="0.571" width="0.286" height="0.286" fill="#000"/>
<rect x="5.143" y="0.571" width="0.286" height="0.286" fill="#000"/>
<rect x="0.571" y="0.857" width="0.286" height="0.286" fill="#000"/>
<rect x="2.286" y="0.857" width="0.286" height="0.286" fill="#000"/>
<rect x="3.143" y="0.857" width="0.286" height="0.286" fill="#000"/>
<rect x="3.429" y="0.857" width="0.286" height="0.286" fill="#000"/>
<rect x="4.000" y="0.857" width="0.286" height="0.286" fill="#000"/>
<rect x="4.286" y="0.857" width="0.286" height="0.286" fill="#000"/>
<rect x="4.571" y="0.857" width="0.286" height="0.286" fill="#000"/>
<rect x="5.143" y="0.857" width="0.286" height="0.286" fill="#000"/>
<rect x="0.571" y="1.143" width="0.286" height="0.286" fill="#000"/>
<rect x="1.143" y="1.143" width="0.286" height="0.286" fill="#000"/>
<rect x="1.429" y="1.143" width="0.286" height="0.286" fill="#000"/>
<rect x="1.714" y="1.143" width="0.286" height="0.286" fill="#000"/>
<rect x="2.286" y="1.143" width="0.286" height="0.286" fill="#000"/>
<rect x="2.857" y="1.143" width="0.286" height="0.286" fill="#000"/>
<rect x="3.143" y="1.143" width="0.286" height="0.286" fill="#000"/>
<rect x="4.000" y="1.143" width="0.286" height="0.286" fill="#000"/>
<rect x="4.571" y="1.143" width="0.286" height="0.286" fill="#000"/>
<rect x="5.143" y="1.143" width="0.286" height="0.286" fill="#000"/>
<rect x="0.571" y="1.429" width="0.286" height="0.286" fill="#000"/>
<rect x="1.143" y="1.429" width="0.286" height="0.286" fill="#000"/>
<rect x="1.429" y="1.429" width="0.286" height="0.286" fill="#000"/>
<rect x="1.714" y="1.429" width="0.286" height="0.286" fill="#000"/>
<rect x="2.286" y="1.429" width="0.286" height="0.286" fill="#000"/>
<rect x="2.857" y="1.429" width="0.286" height="0.286" fill="#000"/>
<rect x="3.143" y="1.429" width="0.286" height="0.286" fill="#000"/>
<rect x="4.000" y="1.429" width="0.286" height="0.286" fill="#000"/>
<rect x="4.286" y="1.429" width="0.286" height="0.286" fill="#000"/>
<rect x="5.143" y="1.429" width="0.286" height="0.286" fill="#000"/>
<rect x="0.571" y="1.714" width="0.286" height="0.286" fill="#000"/>
<rect x="1.143" y="1.714" width="0.286" height="0.286" fill="#000"/>
<rect x="1.429" y="1.714" width="0.286" height="0.286" fill="#000"/>
<rect x="1.714" y="1.714" width="0.286" height="0.286" fill="#000"/>
<rect x="2.286" y="1.714" width="0.286" height="0.286" fill="#000"/>
<rect x="3.143" y="1.714" width="0.286" height="0.286" fill="#000"/>
<rect x="3.714" y="1.714" width="0.286" height="0.286" fill="#000"/>
<rect x="4.000" y="1.714" width="0.286" height="0.286" fill="#000"/>
<rect x="4.286" y="1.714" width="0.286" height="0.286" fill="#000"/>
<rect x="4.857" y="1.714" width="0.286" height="0.286" fill="#000"/>
<rect x="5.143" y="1.714" width="0.286" height="0.286" fill="#000"/>
<rect x="0.571" y="2.000" width="0.286" height="0.286" fill="#000"/>
<rect x="2.286" y="2.000" width="0.286" height="0.286" fill="#000"/>
<rect x="3.429" y="2.000" width="0.286" height="0.286" fill="#000"/>
<rect x="3.714" y="2.000" width="0.286" height="0.286" fill="#000"/>
<rect x="4.000" y="2.000" width="0.286" height="0.286" fill="#000"/>
<rect x="4.571" y="2.000" width="0.286" height="0.286" fill="#000"/>
<rect x="4.857" y="2.000" width="0.286" height="0.286" fill="#000"/>
<rect x="0.571" y="2.286" width="0.286" height="0.286" fill="#000"/>
<rect x="0.857" y="2.286" width="0.286" height="0.286" fill="#000"/>
<rect x="1.143" y="2.286" width="0.286" height="0.286" fill="#000"/>
<rect x="1.429" y="2.286" width="0.286" height="0.286" fill="#000"/>
<rect x="1.714" y="2.286" width="0.286" height="0.286" fill="#000"/>
<rect x="2.000" y="2.286" width="0.286" height="0.286" fill="#000"/>
<rect x="2.286" y="2.286" width="0.286" height="0.286" fill="#000"/>
<rect x="2.857" y="2.286" width="0.286" height="0.286" fill="#000"/>
<rect x="3.429" y="2.286" width="0.286" height="0.286" fill="#000"/>
<rect x="3.714" y="2.286" width="0.286" height="0.286" fill="#000"/>
<rect x="4.571" y="2.286" width="0.286" height="0.286" fill="#000"/>
<rect x="2.857" y="2.571" width="0.286" height="0.286" fill="#000"/>
<rect x="3.714" y="2.571" width="0.286" height="0.286" fill="#000"/>
<rect x="4.286" y="2.571" width="0.286" height="0.286" fill="#000"/>
<rect x="5.143" y="2.571" width="0.286" height="0.286" fill="#000"/>
<rect x="0.571" y="2.857" width="0.286" height="0.286" fill="#000"/>
<rect x="1.143" y="2.857" width="0.286" height="0.286" fill="#000"/>
<rect x="1.714" y="2.857" width="0.286" height="0.286" fill="#000"/>
<rect x="2.000" y="2.857" width="0.286" height="0.286" fill="#000"/>
<rect x="2.286" y="2.857" width="0.286" height="0.286" fill="#000"/>
<rect x="2.571" y="2.857" width="0.286" height="0.286" fill="#000"/>
<rect x="3.429" y="2.857" width="0.286" height="0.286" fill="#000"/>
<rect x="3.714" y="2.857" width="0.286" height="0.286" fill="#000"/>
<rect x="4.000" y="2.857" width="0.286" height="0.286" fill="#000"/>
<rect x="4.571" y="2.857" width="0.286" height="0.286" fill="#000"/>
<rect x="5.143" y="2.857" width="0.286" height="0.286" fill="#000"/>
<rect x="0.857" y="3.143" width="0.286" height="0.286" fill="#000"/>
<rect x="1.143" y="3.143" width="0.286" height="0.286" fill="#000"/>
<rect x="2.286" y="3.143" width="0.286" height="0.286" fill="#000"/>
<rect x="2.571" y="3.143" width="0.286" height="0.286" fill="#000"/>
<rect x="3.143" y="3.143" width="0.286" height="0.286" fill="#000"/>
<rect x="3.429" y="3.143" width="0.286" height="0.286" fill="#000"/>
<rect x="3.714" y="3.143" width="0.286" height="0.286" fill="#000"/>
<rect x="4.571" y="3.143" width="0.286" height="0.286" fill="#000"/>
<rect x="4.857" y="3.143" width="0.286" height="0.286" fill="#000"/>
<rect x="5.143" y="3.143" width="0.286" height="0.286" fill="#000"/>
<rect x="0.571" y="3.429" width="0.286" height="0.286" fill="#000"/>
<rect x="1.714" y="3.429" width="0.286" height="0.286" fill="#000"/>
<rect x="2.000" y="3.429" width="0.286" height="0.286" fill="#000"/>
<rect x="2.857" y="3.429" width="0.286" height="0.286" fill="#000"/>
<rect x="3.143" y="3.429" width="0.286" height="0.286" fill="#000"/>
<rect x="3.429" y="3.429" width="0.286" height="0.286" fill="#000"/>
<rect x="4.571" y="3.429" width="0.286" height="0.286" fill="#000"/>
<rect x="4.857" y="3.429" width="0.286" height="0.286" fill="#000"/>
<rect x="0.857" y="3.714" width="0.286" height="0.286" fill="#000"/>
<rect x="1.429" y="3.714" width="0.286" height="0.286" fill="#000"/>
<rect x="1.714" y="3.714" width="0.286" height="0.286" fill="#000"/>
<rect x="2.000" y="3.714" width="0.286" height="0.286" fill="#000"/>
<rect x="2.286" y="3.714" width="0.286" height="0.286" fill="#000"/>
<rect x="2.857" y="3.714" width="0.286" height="0.286" fill="#000"/>
<rect x="3.429" y="3.714" width="0.286" height="0.286" fill="#000"/>
<rect x="3.714" y="3.714" width="0.286" height="0.286" fill="#000"/>
<rect x="4.571" y="3.714" width="0.286" height="0.286" fill="#000"/>
<rect x="4.857" y="3.714" width="0.286" height="0.286" fill="#000"/>
<rect x="0.571" y="4.000" width="0.286" height="0.286" fill="#000"/>
<rect x="1.429" y="4.000" width="0.286" height="0.286" fill="#000"/>
<rect x="1.714" y="4.000" width="0.286" height="0.286" fill="#000"/>
<rect x="2.000" y="4.000" width="0.286" height="0.286" fill="#000"/>
<rect x="2.571" y="4.000" width="0.286" height="0.286" fill="#000"/>
<rect x="3.143" y="4.000" width="0.286" height="0.286" fill="#000"/>
<rect x="4.000" y="4.000" width="0.286" height="0.286" fill="#000"/>
<rect x="4.286" y="4.000" width="0.286" height="0.286" fill="#000"/>
<rect x="5.143" y="4.000" width="0.286" height="0.286" fill="#000"/>
<rect x="0.857" y="4.286" width="0.286" height="0.286" fill="#000"/>
<rect x="1.143" y="4.286" width="0.286" height="0.286" fill="#000"/>
<rect x="2.000" y="4.286" width="0.286" height="0.286" fill="#000"/>
<rect x="3.143" y="4.286" width="0.286" height="0.286" fill="#000"/>
<rect x="3.429" y="4.286" width="0.286" height="0.286" fill="#000"/>
<rect x="3.714" y="4.286" width="0.286" height="0.286" fill="#000"/>
<rect x="4.286" y="4.286" width="0.286" height="0.286" fill="#000"/>
<rect x="4.571" y="4.286" width="0.286" height="0.286" fill="#000"/>
<rect x="5.143" y="4.286" width="0.286" height="0.286" fill="#000"/>
<rect x="0.571" y="4.571" width="0.286" height="0.286" fill="#000"/>
<rect x="0.857" y="4.571" width="0.286" height="0.286" fill="#000"/>
<rect x="2.000" y="4.571" width="0.286" height="0.286" fill="#000"/>
<rect x="2.571" y="4.571" width="0.286" height="0.286" fill="#000"/>
<rect x="2.857" y="4.571" width="0.286" height="0.286" fill="#000"/>
<rect x="3.143" y="4.571" width="0.286" height="0.286" fill="#000"/>
<rect x="3.429" y="4.571" width="0.286" height="0.286" fill="#000"/>
<rect x="3.714" y="4.571" width="0.286" height="0.286" fill="#000"/>
<rect x="4.571" y="4.571" width="0.286" height="0.286" fill="#000"/>
<rect x="1.143" y="4.857" width="0.286" height="0.286" fill="#000"/>
<rect x="2.286" y="4.857" width="0.286" height="0.286" fill="#000"/>
<rect x="2.571" y="4.857" width="0.286" height="0.286" fill="#000"/>
<rect x="2.857" y="4.857" width="0.286" height="0.286" fill="#000"/>
<rect x="3.143" y="4.857" width="0.286" height="0.286" fill="#000"/>
<rect x="3.714" y="4.857" width="0.286" height="0.286" fill="#000"/>
<rect x="4.000" y="4.857" width="0.286" height="0.286" fill="#000"/>
<rect x="4.286" y="4.857" width="0.286" height="0.286" fill="#000"/>
<rect x="0.571" y="5.143" width="0.286" height="0.286" fill="#000"/>
<rect x="0.857" y="5.143" width="0.286" height="0.286" fill="#000"/>
<rect x="1.143" y="5.143" width="0.286" height="0.286" fill="#000"/>
<rect x="1.714" y="5.143" width="0.286" height="0.286" fill="#000"/>
<rect x="2.000" y="5.143" width="0.286" height="0.286" fill="#000"/>
<rect x="2.571" y="5.143" width="0.286" height="0.286" fill="#000"/>
<rect x="3.143" y="5.143" width="0.286" height="0.286" fill="#000"/>
<rect x="3.429" y="5.143" width="0.286" height="0.286" fill="#000"/>
<rect x="4.000" y="5.143" width="0.286" height="0.286" fill="#000"/>
<rect x="4.286" y="5.143" width="0.286" height="0.286" fill="#000"/>
<rect x="4.571" y="5.143" width="0.286" height="0.286" fill="#000"/>
<rect x="4.857" y="5.143" width="0.286" height="0.286" fill="#000"/>
<text x="3.000" y="8.373" font-family="Consolas, monospace" font-weight="bold" font-size="2.509" text-anchor="middle" fill="#000">K7M3</text>
<text x="3.000" y="11.384" font-family="Consolas, monospace" font-weight="bold" font-size="2.509" text-anchor="middle" fill="#000">PQ9R</text>
</svg>
