<svg xmlns="http://www.w3.org/2000/svg" width="28.000mm" height="14.000mm" viewBox="0 0 28.000 14.000">
<rect x="1.931" y="1.931" width="0.483" height="0.483" fill="#000"/>
<rect x="2.414" y="1.931" width="0.483" height="0.483" fill="#000"/>
<rect x="2.897" y="1.931" width="0.483" height="0.483" fill="#000"/>
<rect x="3.379" y="1.931" width="0.483" height="0.483" fill="#000"/>
<rect x="3.862" y="1.931" width="0.483" height="0.483" fill="#000"/>
<rect x="4.345" y="1.931" width="0.483" height="0.483" fill="#000"/>
<rect x="4.828" y="1.931" width="0.483" height="0.483" fill="#000"/>
<rect x="5.793" y="1.931" width="0.483" height="0.483" fill="#000"/>
<rect x="6.276" y="1.931" width="0.483" height="0.483" fill="#000"/>
<rect x="7.724" y="1.931" width="0.483" height="0.483" fill="#000"/>
<rect x="8.690" y="1.931" width="0.483" height="0.483" fill="#000"/>
<rect x="9.172" y="1.931" width="0.483" height="0.483" fill="#000"/>
<rect x="9.655" y="1.931" width="0.483" height="0.483" fill="#000"/>
<rect x="10.138" y="1.931" width="0.483" height="0.483" fill="#000"/>
<rect x="10.621" y="1.931" width="0.483" height="0.483" fill="#000"/>
<rect x="11.103" y="1.931" width="0.483" height="0.483" fill="#000"/>
<rect x="11.586" y="1.931" width="0.483" height="0.483" fill="#000"/>
<rect x="1.931" y="2.414" width="0.483" height="0.483" fill="#000"/>
<rect x="4.828" y="2.414" width="0.483" height="0.483" fill="#000"/>
<rect x="5.793" y="2.414" width="0.483" height="0.483" fill="#000"/>
<rect x="6.276" y="2.414" width="0.483" height="0.483" fill="#000"/>
<rect x="7.241" y="2.414" width="0.483" height="0.483" fill="#000"/>
<rect x="7.724" y="2.414" width="0.483" height="0.483" fill="#000"/>
<rect x="8.690" y="2.414" width="0.483" height="0.483" fill="#000"/>
<rect x="11.586" y="2.414" width="0.483" height="0.483" fill="#000"/>
<rect x="1.931" y="2.897" width="0.483" height="0.483" fill="#000"/>
<rect x="2.897" y="2.897" width="0.483" height="0.483" fill="#000"/>
<rect x="3.379" y="2.897" width="0.483" height="0.483" fill="#000"/>
<rect x="3.862" y="2.897" width="0.483" height="0.483" fill="#000"/>
<rect x="4.828" y="2.897" width="0.483" height="0.483" fill="#000"/>
<rect x="5.793" y="2.897" width="0.483" height="0.483" fill="#000"/>
<rect x="7.241" y="2.897" width="0.483" height="0.483" fill="#000"/>
<rect x="8.690" y="2.897" width="0.483" height="0.483" fill="#000"/>
<rect x="9.655" y="2.897" width="0.483" height="0.483" fill="#000"/>
<rect x="10.138" y="2.897" width="0.483" height="0.483" fill="#000"/>
<rect x="10.621" y="2.897" width="0.483" height="0.483" fill="#000"/>
<rect x="11.586" y="2.897" width="0.483" height="0.483" fill="#000"/>
<rect x="1.931" y="3.379" width="0.483" height="0.483" fill="#000"/>
<rect x="2.897" y="3.379" width="0.483" height="0.483" fill="#000"/>
<rect x="3.379" y="3.379" width="0.483" height="0.483" fill="#000"/>
<rect x="3.862" y="3.379" width="0.483" height="0.483" fill="#000"/>
<rect x="4.828" y="3.379" width="0.483" height="0.483" fill="#000"/>
<rect x="5.793" y="3.379" width="0.483" height="0.483" fill="#000"/>
<rect x="6.276" y="3.379" width="0.483" height="0.483" fill="#000"/>
<rect x="7.724" y="3.379" width="0.483" height="0.483" fill="#000"/>
<rect x="8.690" y="3.379" width="0.483" height="0.483" fill="#000"/>
<rect x="9.655" y="3.379" width="0.483" height="0.483" fill="#000"/>
<rect x="10.138" y="3.379" width="0.483" height="0.483" fill="#000"/>
<rect x="10.621" y="3.379" width="0.483" height="0.483" fill="#000"/>
<rect x="11.586" y="3.379" width="0.483" height="0.483" fill="#000"/>
<rect x="1.931" y="3.862" width="0.483" height="0.483" fill="#000"/>
<rect x="2.897" y="3.862" width="0.483" height="0.483" fill="#000"/>
<rect x="3.379" y="3.862" width="0.483" height="0.483" fill="#000"/>
<rect x="3.862" y="3.862" width="0.483" height="0.483" fill="#000"/>
<rect x="4.828" y="3.862" width="0.483" height="0.483" fill="#000"/>
<rect x="5.793" y="3.862" width="0.483" height="0.483" fill="#000"/>
<rect x="6.276" y="3.862" width="0.483" height="0.483" fill="#000"/>
<rect x="7.241" y="3.862" width="0.483" height="0.483" fill="#000"/>
<rect x="7.724" y="3.862" width="0.483" height="0.483" fill="#000"/>
<rect x="8.690" y="3.862" width="0.483" height="0.483" fill="#000"/>
<rect x="9.655" y="3.862" width="0.483" height="0.483" fill="#000"/>
<rect x="10.138" y="3.862" width="0.483" height="0.483" fill="#000"/>
<rect x="10.621" y="3.862" width="0.483" height="0.483" fill="#000"/>
<rect x="11.586" y="3.862" width="0.483" height="0.483" fill="#000"/>
<rect x="1.931" y="4.345" width="0.483" height="0.483" fill="#000"/>
<rect x="4.828" y="4.345" width="0.483" height="0.483" fill="#000"/>
<rect x="6.759" y="4.345" width="0.483" height="0.483" fill="#000"/>
<rect x="7.241" y="4.345" width="0.483" height="0.483" fill="#000"/>
<rect x="7.724" y="4.345" width="0.483" height="0.483" fill="#000"/>
<rect x="8.690" y="4.345" width="0.483" height="0.483" fill="#000"/>
<rect x="11.586" y="4.345" width="0.483" height="0.483" fill="#000"/>
<rect x="1.931" y="4.828" width="0.483" height="0.483" fill="#000"/>
<rect x="2.414" y="4.828" width="0.483" height="0.483" fill="#000"/>
<rect x="2.897" y="4.828" width="0.483" height="0.483" fill="#000"/>
<rect x="3.379" y="4.828" width="0.483" height="0.483" fill="#000"/>
<rect x="3.862" y="4.828" width="0.483" height="0.483" fill="#000"/>
<rect x="4.345" y="4.828" width="0.483" height="0.483" fill="#000"/>
<rect x="4.828" y="4.828" width="0.483" height="0.483" fill="#000"/>
<rect x="5.793" y="4.828" width="0.483" height="0.483" fill="#000"/>
<rect x="6.759" y="4.828" width="0.483" height="0.483" fill="#000"/>
<rect x="7.724" y="4.828" width="0.483" height="0.483" fill="#000"/>
<rect x="8.690" y="4.828" width="0.483" height="0.483" fill="#000"/>
<rect x="9.172" y="4.828" width="0.483" height="0.483" fill="#000"/>
<rect x="9.655" y="4.828" width="0.483" height="0.483" fill="#000"/>
<rect x="10.138" y="4.828" width="0.483" height="0.483" fill="#000"/>
<rect x="10.621" y="4.828" width="0.483" height="0.483" fill="#000"/>
<rect x="11.103" y="4.828" width="0.483" height="0.483" fill="#000"/>
<rect x="11.586" y="4.828" width="0.483" height="0.483" fill="#000"/>
<rect x="5.793" y="5.310" width="0.483" height="0.483" fill="#000"/>
<rect x="2.414" y="5.793" width="0.483" height="0.483" fill="#000"/>
<rect x="2.897" y="5.793" width="0.483" height="0.483" fill="#000"/>
<rect x="3.862" y="5.793" width="0.483" height="0.483" fill="#000"/>
<rect x="4.828" y="5.793" width="0.483" height="0.483" fill="#000"/>
<rect x="5.310" y="5.793" width="0.483" height="0.483" fill="#000"/>
<rect x="7.241" y="5.793" width="0.483" height="0.483" fill="#000"/>
<rect x="8.690" y="5.793" width="0.483" height="0.483" fill="#000"/>
<rect x="9.655" y="5.793" width="0.483" height="0.483" fill="#000"/>
<rect x="10.138" y="5.793" width="0.483" height="0.483" fill="#000"/>
<rect x="10.621" y="5.793" width="0.483" height="0.483" fill="#000"/>
<rect x="11.103" y="5.793" width="0.483" height="0.483" fill="#000"/>
<rect x="11.586" y="5.793" width="0.483" height="0.483" fill="#000"/>
<rect x="1.931" y="6.276" width="0.483" height="0.483" fill="#000"/>
<rect x="4.345" y="6.276" width="0.483" height="0.483" fill="#000"/>
<rect x="5.310" y="6.276" width="0.483" height="0.483" fill="#000"/>
<rect x="5.793" y="6.276" width="0.483" height="0.483" fill="#000"/>
<rect x="6.276" y="6.276" width="0.483" height="0.483" fill="#000"/>
<rect x="6.759" y="6.276" width="0.483" height="0.483" fill="#000"/>
<rect x="8.690" y="6.276" width="0.483" height="0.483" fill="#000"/>
<rect x="9.172" y="6.276" width="0.483" height="0.483" fill="#000"/>
<rect x="9.655" y="6.276" width="0.483" height="0.483" fill="#000"/>
<rect x="11.586" y="6.276" width="0.483" height="0.483" fill="#000"/>
<rect x="1.931" y="6.759" width="0.483" height="0.483" fill="#000"/>
<rect x="3.379" y="6.759" width="0.483" height="0.483" fill="#000"/>
<rect x="3.862" y="6.759" width="0.483" height="0.483" fill="#000"/>
<rect x="4.345" y="6.759" width="0.483" height="0.483" fill="#000"/>
<rect x="4.828" y="6.759" width="0.483" height="0.483" fill="#000"/>
<rect x="7.241" y="6.759" width="0.483" height="0.483" fill="#000"/>
<rect x="8.207" y="6.759" width="0.483" height="0.483" fill="#000"/>
<rect x="10.138" y="6.759" width="0.483" height="0.483" fill="#000"/>
<rect x="1.931" y="7.241" width="0.483" height="0.483" fill="#000"/>
<rect x="2.897" y="7.241" width="0.483" height="0.483" fill="#000"/>
<rect x="5.793" y="7.241" width="0.483" height="0.483" fill="#000"/>
<rect x="7.724" y="7.241" width="0.483" height="0.483" fill="#000"/>
<rect x="8.207" y="7.241" width="0.483" height="0.483" fill="#000"/>
<rect x="8.690" y="7.241" width="0.483" height="0.483" fill="#000"/>
<rect x="9.172" y="7.241" width="0.483" height="0.483" fill="#000"/>
<rect x="9.655" y="7.241" width="0.483" height="0.483" fill="#000"/>
<rect x="10.621" y="7.241" width="0.483" height="0.483" fill="#000"/>
<rect x="11.103" y="7.241" width="0.483" height="0.483" fill="#000"/>
<rect x="3.379" y="7.724" width="0.483" height="0.483" fill="#000"/>
<rect x="3.862" y="7.724" width="0.483" height="0.483" fill="#000"/>
<rect x="4.828" y="7.724" width="0.483" height="0.483" fill="#000"/>
<rect x="5.793" y="7.724" width="0.483" height="0.483" fill="#000"/>
<rect x="6.276" y="7.724" width="0.483" height="0.483" fill="#000"/>
<rect x="7.241" y="7.724" width="0.483" height="0.483" fill="#000"/>
<rect x="8.207" y="7.724" width="0.483" height="0.483" fill="#000"/>
<rect x="9.172" y="7.724" width="0.483" height="0.483" fill="#000"/>
<rect x="10.621" y="7.724" width="0.483" height="0.483" fill="#000"/>
<rect x="5.793" y="8.207" width="0.483" height="0.483" fill="#000"/>
<rect x="7.724" y="8.207" width="0.483" height="0.483" fill="#000"/>
<rect x="10.138" y="8.207" width="0.483" height="0.483" fill="#000"/>
<rect x="11.586" y="8.207" width="0.483" height="0.483" fill="#000"/>
<rect x="1.931" y="8.690" width="0.483" height="0.483" fill="#000"/>
<rect x="2.414" y="8.690" width="0.483" height="0.483" fill="#000"/>
<rect x="2.897" y="8.690" width="0.483" height="0.483" fill="#000"/>
<rect x="3.379" y="8.690" width="0.483" height="0.483" fill="#000"/>
<rect x="3.862" y="8.690" width="0.483" height="0.483" fill="#000"/>
<rect x="4.345" y="8.690" width="0.483" height="0.483" fill="#000"/>
<rect x="4.828" y="8.690" width="0.483" height="0.483" fill="#000"/>
<rect x="5.793" y="8.690" width="0.483" height="0.483" fill="#000"/>
<rect x="6.276" y="8.690" width="0.483" height="0.483" fill="#000"/>
<rect x="8.207" y="8.690" width="0.483" height="0.483" fill="#000"/>
<rect x="9.655" y="8.690" width="0.483" height="0.483" fill="#000"/>
<rect x="10.138" y="8.690" width="0.483" height="0.483" fill="#000"/>
<rect x="11.586" y="8.690" width="0.483" height="0.483" fill="#000"/>
<rect x="1.931" y="9.172" width="0.483" height="0.483" fill="#000"/>
<rect x="4.828" y="9.172" width="0.483" height="0.483" fill="#000"/>
<rect x="6.276" y="9.172" width="0.483" height="0.483" fill="#000"/>
<rect x="6.759" y="9.172" width="0.483" height="0.483" fill="#000"/>
<rect x="8.207" y="9.172" width="0.483" height="0.483" fill="#000"/>
<rect x="8.690" y="9.172" width="0.483" height="0.483" fill="#000"/>
<rect x="10.138" y="9.172" width="0.483" height="0.483" fill="#000"/>
<rect x="11.586" y="9.172" width="0.483" height="0.483" fill="#000"/>
<rect x="1.931" y="9.655" width="0.483" height="0.483" fill="#000"/>
<rect x="2.897" y="9.655" width="0.483" height="0.483" fill="#000"/>
<rect x="3.379" y="9.655" width="0.483" height="0.483" fill="#000"/>
<rect x="3.862" y="9.655" width="0.483" height="0.483" fill="#000"/>
<rect x="4.828" y="9.655" width="0.483" height="0.483" fill="#000"/>
<rect x="5.793" y="9.655" width="0.483" height="0.483" fill="#000"/>
<rect x="6.276" y="9.655" width="0.483" height="0.483" fill="#000"/>
<rect x="7.241" y="9.655" width="0.483" height="0.483" fill="#000"/>
<rect x="7.724" y="9.655" width="0.483" height="0.483" fill="#000"/>
<rect x="8.207" y="9.655" width="0.483" height="0.483" fill="#000"/>
<rect x="9.172" y="9.655" width="0.483" height="0.483" fill="#000"/>
<rect x="9.655" y="9.655" width="0.483" height="0.483" fill="#000"/>
<rect x="10.138" y="9.655" width="0.483" height="0.483" fill="#000"/>
<rect x="10.621" y="9.655" width="0.483" height="0.483" fill="#000"/>
<rect x="11.103" y="9.655" width="0.483" height="0.483" fill="#000"/>
<rect x="11.586" y="9.655" width="0.483" height="0.483" fill="#000"/>
<rect x="1.931" y="10.138" width="0.483" height="0.483" fill="#000"/>
<rect x="2.897" y="10.138" width="0.483" height="0.483" fill="#000"/>
<rect x="3.379" y="10.138" width="0.483" height="0.483" fill="#000"/>
<rect x="3.862" y="10.138" width="0.483" height="0.483" fill="#000"/>
<rect x="4.828" y="10.138" width="0.483" height="0.483" fill="#000"/>
<rect x="6.759" y="10.138" width="0.483" height="0.483" fill="#000"/>
<rect x="7.241" y="10.138" width="0.483" height="0.483" fill="#000"/>
<rect x="8.690" y="10.138" width="0.483" height="0.483" fill="#000"/>
<rect x="9.172" y="10.138" width="0.483" height="0.483" fill="#000"/>
<rect x="10.621" y="10.138" width="0.483" height="0.483" fill="#000"/>
<rect x="11.103" y="10.138" width="0.483" height="0.483" fill="#000"/>
<rect x="1.931" y="10.621" width="0.483" height="0.483" fill="#000"/>
<rect x="2.897" y="10.621" width="0.483" height="0.483" fill="#000"/>
<rect x="3.379" y="10.621" width="0.483" height="0.483" fill="#000"/>
<rect x="3.862" y="10.621" width="0.483" height="0.483" fill="#000"/>
<rect x="4.828" y="10.621" width="0.483" height="0.483" fill="#000"/>
<rect x="5.793" y="10.621" width="0.483" height="0.483" fill="#000"/>
<rect x="7.241" y="10.621" width="0.483" height="0.483" fill="#000"/>
<rect x="8.690" y="10.621" width="0.483" height="0.483" fill="#000"/>
<rect x="10.138" y="10.621" width="0.483" height="0.483" fill="#000"/>
<rect x="11.586" y="10.621" width="0.483" height="0.483" fill="#000"/>
<rect x="1.931" y="11.103" width="0.483" height="0.483" fill="#000"/>
<rect x="4.828" y="11.103" width="0.483" height="0.483" fill="#000"/>
<rect x="5.793" y="11.103" width="0.483" height="0.483" fill="#000"/>
<rect x="6.276" y="11.103" width="0.483" height="0.483" fill="#000"/>
<rect x="7.241" y="11.103" width="0.483" height="0.483" fill="#000"/>
<rect x="7.724" y="11.103" width="0.483" height="0.483" fill="#000"/>
<rect x="8.207" y="11.103" width="0.483" height="0.483" fill="#000"/>
<rect x="10.621" y="11.103" width="0.483" height="0.483" fill="#000"/>
<rect x="11.103" y="11.103" width="0.483" height="0.483" fill="#000"/>
<rect x="11.586" y="11.103" width="0.483" height="0.483" fill="#000"/>
<rect x="1.931" y="11.586" width="0.483" height="0.483" fill="#000"/>
<rect x="2.414" y="11.586" width="0.483" height="0.483" fill="#000"/>
<rect x="2.897" y="11.586" width="0.483" height="0.483" fill="#000"/>
<rect x="3.379" y="11.586" width="0.483" height="0.483" fill="#000"/>
<rect x="3.862" y="11.586" width="0.483" height="0.483" fill="#000"/>
<rect x="4.345" y="11.586" width="0.483" height="0.483" fill="#000"/>
<rect x="4.828" y="11.586" width="0.483" height="0.483" fill="#000"/>
<rect x="7.241" y="11.586" width="0.483" height="0.483" fill="#000"/>
<rect x="8.690" y="11.586" width="0.483" height="0.483" fill="#000"/>
<rect x="9.172" y="11.586" width="0.483" height="0.483" fill="#000"/>
<rect x="10.621" y="11.586" width="0.483" height="0.483" fill="#000"/>
<rect x="11.586" y="11.586" width="0.483" height="0.483" fill="#000"/>
<text x="21.000" y="3.780" font-family="Consolas, monospace" font-weight="bold" font-size="3.788" text-anchor="middle" fill="#000">K7M3P</text>
<text x="21.000" y="8.326" font-family="Consolas, monospace" font-weight="bold" font-size="3.788" text-anchor="middle" fill="#000">Q9RT5</text>
<text x="21.000" y="12.872" font-family="Consolas, monospace" font-weight="bold" font-size="3.788" text-anchor="middle" fill="#000">VAXY</text>
</svg>
