<svg xmlns="http://www.w3.org/2000/svg" width="22.000mm" height="11.000mm" viewBox="0 0 22.000 11.000">
<rect x="1.517" y="1.517" width="0.379" height="0.379" fill="#000"/>
<rect x="1.897" y="1.517" width="0.379" height="0.379" fill="#000"/>
<rect x="2.276" y="1.517" width="0.379" height="0.379" fill="#000"/>
<rect x="2.655" y="1.517" width="0.379" height="0.379" fill="#000"/>
<rect x="3.034" y="1.517" width="0.379" height="0.379" fill="#000"/>
<rect x="3.414" y="1.517" width="0.379" height="0.379" fill="#000"/>
<rect x="3.793" y="1.517" width="0.379" height="0.379" fill="#000"/>
<rect x="4.552" y="1.517" width="0.379" height="0.379" fill="#000"/>
<rect x="4.931" y="1.517" width="0.379" height="0.379" fill="#000"/>
<rect x="6.069" y="1.517" width="0.379" height="0.379" fill="#000"/>
<rect x="6.828" y="1.517" width="0.379" height="0.379" fill="#000"/>
<rect x="7.207" y="1.517" width="0.379" height="0.379" fill="#000"/>
<rect x="7.586" y="1.517" width="0.379" height="0.379" fill="#000"/>
<rect x="7.966" y="1.517" width="0.379" height="0.379" fill="#000"/>
<rect x="8.345" y="1.517" width="0.379" height="0.379" fill="#000"/>
<rect x="8.724" y="1.517" width="0.379" height="0.379" fill="#000"/>
<rect x="9.103" y="1.517" width="0.379" height="0.379" fill="#000"/>
<rect x="1.517" y="1.897" width="0.379" height="0.379" fill="#000"/>
<rect x="3.793" y="1.897" width="0.379" height="0.379" fill="#000"/>
<rect x="4.552" y="1.897" width="0.379" height="0.379" fill="#000"/>
<rect x="4.931" y="1.897" width="0.379" height="0.379" fill="#000"/>
<rect x="5.690" y="1.897" width="0.379" height="0.379" fill="#000"/>
<rect x="6.069" y="1.897" width="0.379" height="0.379" fill="#000"/>
<rect x="6.828" y="1.897" width="0.379" height="0.379" fill="#000"/>
<rect x="9.103" y="1.897" width="0.379" height="0.379" fill="#000"/>
<rect x="1.517" y="2.276" width="0.379" height="0.379" fill="#000"/>
<rect x="2.276" y="2.276" width="0.379" height="0.379" fill="#000"/>
<rect x="2.655" y="2.276" width="0.379" height="0.379" fill="#000"/>
<rect x="3.034" y="2.276" width="0.379" height="0.379" fill="#000"/>
<rect x="3.793" y="2.276" width="0.379" height="0.379" fill="#000"/>
<rect x="4.552" y="2.276" width="0.379" height="0.379" fill="#000"/>
<rect x="5.690" y="2.276" width="0.379" height="0.379" fill="#000"/>
<rect x="6.828" y="2.276" width="0.379" height="0.379" fill="#000"/>
<rect x="7.586" y="2.276" width="0.379" height="0.379" fill="#000"/>
<rect x="7.966" y="2.276" width="0.379" height="0.379" fill="#000"/>
<rect x="8.345" y="2.276" width="0.379" height="0.379" fill="#000"/>
<rect x="9.103" y="2.276" width="0.379" height="0.379" fill="#000"/>
<rect x="1.517" y="2.655" width="0.379" height="0.379" fill="#000"/>
<rect x="2.276" y="2.655" width="0.379" height="0.379" fill="#000"/>
<rect x="2.655" y="2.655" width="0.379" height="0.379" fill="#000"/>
<rect x="3.034" y="2.655" width="0.379" height="0.379" fill="#000"/>
<rect x="3.793" y="2.655" width="0.379" height="0.379" fill="#000"/>
<rect x="4.552" y="2.655" width="0.379" height="0.379" fill="#000"/>
<rect x="4.931" y="2.655" width="0.379" height="0.379" fill="#000"/>
<rect x="6.069" y="2.655" width="0.379" height="0.379" fill="#000"/>
<rect x="6.828" y="2.655" width="0.379" height="0.379" fill="#000"/>
<rect x="7.586" y="2.655" width="0.379" height="0.379" fill="#000"/>
<rect x="7.966" y="2.655" width="0.379" height="0.379" fill="#000"/>
<rect x="8.345" y="2.655" width="0.379" height="0.379" fill="#000"/>
<rect x="9.103" y="2.655" width="0.379" height="0.379" fill="#000"/>
<rect x="1.517" y="3.034" width="0.379" height="0.379" fill="#000"/>
<rect x="2.276" y="3.034" width="0.379" height="0.379" fill="#000"/>
<rect x="2.655" y="3.034" width="0.379" height="0.379" fill="#000"/>
<rect x="3.034" y="3.034" width="0.379" height="0.379" fill="#000"/>
<rect x="3.793" y="3.034" width="0.379" height="0.379" fill="#000"/>
<rect x="4.552" y="3.034" width="0.379" height="0.379" fill="#000"/>
<rect x="4.931" y="3.034" width="0.379" height="0.379" fill="#000"/>
<rect x="5.690" y="3.034" width="0.379" height="0.379" fill="#000"/>
<rect x="6.069" y="3.034" width="0.379" height="0.379" fill="#000"/>
<rect x="6.828" y="3.034" width="0.379" height="0.379" fill="#000"/>
<rect x="7.586" y="3.034" width="0.379" height="0.379" fill="#000"/>
<rect x="7.966" y="3.034" width="0.379" height="0.379" fill="#000"/>
<rect x="8.345" y="3.034" width="0.379" height="0.379" fill="#000"/>
<rect x="9.103" y="3.034" width="0.379" height="0.379" fill="#000"/>
<rect x="1.517" y="3.414" width="0.379" height="0.379" fill="#000"/>
<rect x="3.793" y="3.414" width="0.379" height="0.379" fill="#000"/>
<rect x="5.310" y="3.414" width="0.379" height="0.379" fill="#000"/>
<rect x="5.690" y="3.414" width="0.379" height="0.379" fill="#000"/>
<rect x="6.069" y="3.414" width="0.379" height="0.379" fill="#000"/>
<rect x="6.828" y="3.414" width="0.379" height="0.379" fill="#000"/>
<rect x="9.103" y="3.414" width="0.379" height="0.379" fill="#000"/>
<rect x="1.517" y="3.793" width="0.379" height="0.379" fill="#000"/>
<rect x="1.897" y="3.793" width="0.379" height="0.379" fill="#000"/>
<rect x="2.276" y="3.793" width="0.379" height="0.379" fill="#000"/>
<rect x="2.655" y="3.793" width="0.379" height="0.379" fill="#000"/>
<rect x="3.034" y="3.793" width="0.379" height="0.379" fill="#000"/>
<rect x="3.414" y="3.793" width="0.379" height="0.379" fill="#000"/>
<rect x="3.793" y="3.793" width="0.379" height="0.379" fill="#000"/>
<rect x="4.552" y="3.793" width="0.379" height="0.379" fill="#000"/>
<rect x="5.310" y="3.793" width="0.379" height="0.379" fill="#000"/>
<rect x="6.069" y="3.793" width="0.379" height="0.379" fill="#000"/>
<rect x="6.828" y="3.793" width="0.379" height="0.379" fill="#000"/>
<rect x="7.207" y="3.793" width="0.379" height="0.379" fill="#000"/>
<rect x="7.586" y="3.793" width="0.379" height="0.379" fill="#000"/>
<rect x="7.966" y="3.793" width="0.379" height="0.379" fill="#000"/>
<rect x="8.345" y="3.793" width="0.379" height="0.379" fill="#000"/>
<rect x="8.724" y="3.793" width="0.379" height="0.379" fill="#000"/>
<rect x="9.103" y="3.793" width="0.379" height="0.379" fill="#000"/>
<rect x="4.552" y="4.172" width="0.379" height="0.379" fill="#000"/>
<rect x="1.897" y="4.552" width="0.379" height="0.379" fill="#000"/>
<rect x="2.276" y="4.552" width="0.379" height="0.379" fill="#000"/>
<rect x="3.034" y="4.552" width="0.379" height="0.379" fill="#000"/>
<rect x="3.793" y="4.552" width="0.379" height="0.379" fill="#000"/>
<rect x="4.172" y="4.552" width="0.379" height="0.379" fill="#000"/>
<rect x="5.690" y="4.552" width="0.379" height="0.379" fill="#000"/>
<rect x="6.828" y="4.552" width="0.379" height="0.379" fill="#000"/>
<rect x="7.586" y="4.552" width="0.379" height="0.379" fill="#000"/>
<rect x="7.966" y="4.552" width="0.379" height="0.379" fill="#000"/>
<rect x="8.345" y="4.552" width="0.379" height="0.379" fill="#000"/>
<rect x="8.724" y="4.552" width="0.379" height="0.379" fill="#000"/>
<rect x="9.103" y="4.552" width="0.379" height="0.379" fill="#000"/>
<rect x="1.517" y="4.931" width="0.379" height="0.379" fill="#000"/>
<rect x="3.414" y="4.931" width="0.379" height="0.379" fill="#000"/>
<rect x="4.172" y="4.931" width="0.379" height="0.379" fill="#000"/>
<rect x="4.552" y="4.931" width="0.379" height="0.379" fill="#000"/>
<rect x="4.931" y="4.931" width="0.379" height="0.379" fill="#000"/>
<rect x="5.310" y="4.931" width="0.379" height="0.379" fill="#000"/>
<rect x="6.828" y="4.931" width="0.379" height="0.379" fill="#000"/>
<rect x="7.207" y="4.931" width="0.379" height="0.379" fill="#000"/>
<rect x="7.586" y="4.931" width="0.379" height="0.379" fill="#000"/>
<rect x="9.103" y="4.931" width="0.379" height="0.379" fill="#000"/>
<rect x="1.517" y="5.310" width="0.379" height="0.379" fill="#000"/>
<rect x="2.655" y="5.310" width="0.379" height="0.379" fill="#000"/>
<rect x="3.034" y="5.310" width="0.379" height="0.379" fill="#000"/>
<rect x="3.414" y="5.310" width="0.379" height="0.379" fill="#000"/>
<rect x="3.793" y="5.310" width="0.379" height="0.379" fill="#000"/>
<rect x="5.690" y="5.310" width="0.379" height="0.379" fill="#000"/>
<rect x="6.448" y="5.310" width="0.379" height="0.379" fill="#000"/>
<rect x="7.966" y="5.310" width="0.379" height="0.379" fill="#000"/>
<rect x="1.517" y="5.690" width="0.379" height="0.379" fill="#000"/>
<rect x="2.276" y="5.690" width="0.379" height="0.379" fill="#000"/>
<rect x="4.552" y="5.690" width="0.379" height="0.379" fill="#000"/>
<rect x="6.069" y="5.690" width="0.379" height="0.379" fill="#000"/>
<rect x="6.448" y="5.690" width="0.379" height="0.379" fill="#000"/>
<rect x="6.828" y="5.690" width="0.379" height="0.379" fill="#000"/>
<rect x="7.207" y="5.690" width="0.379" height="0.379" fill="#000"/>
<rect x="7.586" y="5.690" width="0.379" height="0.379" fill="#000"/>
<rect x="8.345" y="5.690" width="0.379" height="0.379" fill="#000"/>
<rect x="8.724" y="5.690" width="0.379" height="0.379" fill="#000"/>
<rect x="2.655" y="6.069" width="0.379" height="0.379" fill="#000"/>
<rect x="3.034" y="6.069" width="0.379" height="0.379" fill="#000"/>
<rect x="3.793" y="6.069" width="0.379" height="0.379" fill="#000"/>
<rect x="4.552" y="6.069" width="0.379" height="0.379" fill="#000"/>
<rect x="4.931" y="6.069" width="0.379" height="0.379" fill="#000"/>
<rect x="5.690" y="6.069" width="0.379" height="0.379" fill="#000"/>
<rect x="6.448" y="6.069" width="0.379" height="0.379" fill="#000"/>
<rect x="7.207" y="6.069" width="0.379" height="0.379" fill="#000"/>
<rect x="8.345" y="6.069" width="0.379" height="0.379" fill="#000"/>
<rect x="4.552" y="6.448" width="0.379" height="0.379" fill="#000"/>
<rect x="6.069" y="6.448" width="0.379" height="0.379" fill="#000"/>
<rect x="7.966" y="6.448" width="0.379" height="0.379" fill="#000"/>
<rect x="9.103" y="6.448" width="0.379" height="0.379" fill="#000"/>
<rect x="1.517" y="6.828" width="0.379" height="0.379" fill="#000"/>
<rect x="1.897" y="6.828" width="0.379" height="0.379" fill="#000"/>
<rect x="2.276" y="6.828" width="0.379" height="0.379" fill="#000"/>
<rect x="2.655" y="6.828" width="0.379" height="0.379" fill="#000"/>
<rect x="3.034" y="6.828" width="0.379" height="0.379" fill="#000"/>
<rect x="3.414" y="6.828" width="0.379" height="0.379" fill="#000"/>
<rect x="3.793" y="6.828" width="0.379" height="0.379" fill="#000"/>
<rect x="4.552" y="6.828" width="0.379" height="0.379" fill="#000"/>
<rect x="4.931" y="6.828" width="0.379" height="0.379" fill="#000"/>
<rect x="6.448" y="6.828" width="0.379" height="0.379" fill="#000"/>
<rect x="7.586" y="6.828" width="0.379" height="0.379" fill="#000"/>
<rect x="7.966" y="6.828" width="0.379" height="0.379" fill="#000"/>
<rect x="9.103" y="6.828" width="0.379" height="0.379" fill="#000"/>
<rect x="1.517" y="7.207" width="0.379" height="0.379" fill="#000"/>
<rect x="3.793" y="7.207" width="0.379" height="0.379" fill="#000"/>
<rect x="4.931" y="7.207" width="0.379" height="0.379" fill="#000"/>
<rect x="5.310" y="7.207" width="0.379" height="0.379" fill="#000"/>
<rect x="6.448" y="7.207" width="0.379" height="0.379" fill="#000"/>
<rect x="6.828" y="7.207" width="0.379" height="0.379" fill="#000"/>
<rect x="7.966" y="7.207" width="0.379" height="0.379" fill="#000"/>
<rect x="9.103" y="7.207" width="0.379" height="0.379" fill="#000"/>
<rect x="1.517" y="7.586" width="0.379" height="0.379" fill="#000"/>
<rect x="2.276" y="7.586" width="0.379" height="0.379" fill="#000"/>
<rect x="2.655" y="7.586" width="0.379" height="0.379" fill="#000"/>
<rect x="3.034" y="7.586" width="0.379" height="0.379" fill="#000"/>
<rect x="3.793" y="7.586" width="0.379" height="0.379" fill="#000"/>
<rect x="4.552" y="7.586" width="0.379" height="0.379" fill="#000"/>
<rect x="4.931" y="7.586" width="0.379" height="0.379" fill="#000"/>
<rect x="5.690" y="7.586" width="0.379" height="0.379" fill="#000"/>
<rect x="6.069" y="7.586" width="0.379" height="0.379" fill="#000"/>
<rect x="6.448" y="7.586" width="0.379" height="0.379" fill="#000"/>
<rect x="7.207" y="7.586" width="0.379" height="0.379" fill="#000"/>
<rect x="7.586" y="7.586" width="0.379" height="0.379" fill="#000"/>
<rect x="7.966" y="7.586" width="0.379" height="0.379" fill="#000"/>
<rect x="8.345" y="7.586" width="0.379" height="0.379" fill="#000"/>
<rect x="8.724" y="7.586" width="0.379" height="0.379" fill="#000"/>
<rect x="9.103" y="7.586" width="0.379" height="0.379" fill="#000"/>
<rect x="1.517" y="7.966" width="0.379" height="0.379" fill="#000"/>
<rect x="2.276" y="7.966" width="0.379" height="0.379" fill="#000"/>
<rect x="2.655" y="7.966" width="0.379" height="0.379" fill="#000"/>
<rect x="3.034" y="7.966" width="0.379" height="0.379" fill="#000"/>
<rect x="3.793" y="7.966" width="0.379" height="0.379" fill="#000"/>
<rect x="5.310" y="7.966" width="0.379" height="0.379" fill="#000"/>
<rect x="5.690" y="7.966" width="0.379" height="0.379" fill="#000"/>
<rect x="6.828" y="7.966" width="0.379" height="0.379" fill="#000"/>
<rect x="7.207" y="7.966" width="0.379" height="0.379" fill="#000"/>
<rect x="8.345" y="7.966" width="0.379" height="0.379" fill="#000"/>
<rect x="8.724" y="7.966" width="0.379" height="0.379" fill="#000"/>
<rect x="1.517" y="8.345" width="0.379" height="0.379" fill="#000"/>
<rect x="2.276" y="8.345" width="0.379" height="0.379" fill="#000"/>
<rect x="2.655" y="8.345" width="0.379" height="0.379" fill="#000"/>
<rect x="3.034" y="8.345" width="0.379" height="0.379" fill="#000"/>
<rect x="3.793" y="8.345" width="0.379" height="0.379" fill="#000"/>
<rect x="4.552" y="8.345" width="0.379" height="0.379" fill="#000"/>
<rect x="5.690" y="8.345" width="0.379" height="0.379" fill="#000"/>
<rect x="6.828" y="8.345" width="0.379" height="0.379" fill="#000"/>
<rect x="7.966" y="8.345" width="0.379" height="0.379" fill="#000"/>
<rect x="9.103" y="8.345" width="0.379" height="0.379" fill="#000"/>
<rect x="1.517" y="8.724" width="0.379" height="0.379" fill="#000"/>
<rect x="3.793" y="8.724" width="0.379" height="0.379" fill="#000"/>
<rect x="4.552" y="8.724" width="0.379" height="0.379" fill="#000"/>
<rect x="4.931" y="8.724" width="0.379" height="0.379" fill="#000"/>
<rect x="5.690" y="8.724" width="0.379" height="0.379" fill="#000"/>
<rect x="6.069" y="8.724" width="0.379" height="0.379" fill="#000"/>
<rect x="6.448" y="8.724" width="0.379" height="0.379" fill="#000"/>
<rect x="8.345" y="8.724" width="0.379" height="0.379" fill="#000"/>
<rect x="8.724" y="8.724" width="0.379" height="0.379" fill="#000"/>
<rect x="9.103" y="8.724" width="0.379" height="0.379" fill="#000"/>
<rect x="1.517" y="9.103" width="0.379" height="0.379" fill="#000"/>
<rect x="1.897" y="9.103" width="0.379" height="0.379" fill="#000"/>
<rect x="2.276" y="9.103" width="0.379" height="0.379" fill="#000"/>
<rect x="2.655" y="9.103" width="0.379" height="0.379" fill="#000"/>
<rect x="3.034" y="9.103" width="0.379" height="0.379" fill="#000"/>
<rect x="3.414" y="9.103" width="0.379" height="0.379" fill="#000"/>
<rect x="3.793" y="9.103" width="0.379" height="0.379" fill="#000"/>
<rect x="5.690" y="9.103" width="0.379" height="0.379" fill="#000"/>
<rect x="6.828" y="9.103" width="0.379" height="0.379" fill="#000"/>
<rect x="7.207" y="9.103" width="0.379" height="0.379" fill="#000"/>
<rect x="8.345" y="9.103" width="0.379" height="0.379" fill="#000"/>
<rect x="9.103" y="9.103" width="0.379" height="0.379" fill="#000"/>
<text x="16.500" y="2.970" font-family="Consolas, monospace" font-weight="bold" font-size="2.976" text-anchor="middle" fill="#000">K7M3</text>
<text x="16.500" y="6.542" font-family="Consolas, monospace" font-weight="bold" font-size="2.976" text-anchor="middle" fill="#000">PQ9R</text>
<text x="16.500" y="10.114" font-family="Consolas, monospace" font-weight="bold" font-size="2.976" text-anchor="middle" fill="#000">T5VA</text>
</svg>
