<svg xmlns="http://www.w3.org/2000/svg" width="57.823mm" height="11.000mm" viewBox="0 0 57.823 11.000">
<rect x="1.517" y="1.517" width="0.379" height="0.379" fill="#000"/>
<rect x="1.897" y="1.517" width="0.379" height="0.379" fill="#000"/>
<rect x="2.276" y="1.517" width="0.379" height="0.379" fill="#000"/>
<rect x="2.655" y="1.517" width="0.379" height="0.379" fill="#000"/>
<rect x="3.034" y="1.517" width="0.379" height="0.379" fill="#000"/>
<rect x="3.414" y="1.517" width="0.379" height="0.379" fill="#000"/>
<rect x="3.793" y="1.517" width="0.379" height="0.379" fill="#000"/>
<rect x="4.931" y="1.517" width="0.379" height="0.379" fill="#000"/>
<rect x="6.069" y="1.517" width="0.379" height="0.379" fill="#000"/>
<rect x="6.828" y="1.517" width="0.379" height="0.379" fill="#000"/>
<rect x="7.207" y="1.517" width="0.379" height="0.379" fill="#000"/>
<rect x="7.586" y="1.517" width="0.379" height="0.379" fill="#000"/>
<rect x="7.966" y="1.517" width="0.379" height="0.379" fill="#000"/>
<rect x="8.345" y="1.517" width="0.379" height="0.379" fill="#000"/>
<rect x="8.724" y="1.517" width="0.379" height="0.379" fill="#000"/>
<rect x="9.103" y="1.517" width="0.379" height="0.379" fill="#000"/>
<rect x="1.517" y="1.897" width="0.379" height="0.379" fill="#000"/>
<rect x="3.793" y="1.897" width="0.379" height="0.379" fill="#000"/>
<rect x="5.690" y="1.897" width="0.379" height="0.379" fill="#000"/>
<rect x="6.828" y="1.897" width="0.379" height="0.379" fill="#000"/>
<rect x="9.103" y="1.897" width="0.379" height="0.379" fill="#000"/>
<rect x="1.517" y="2.276" width="0.379" height="0.379" fill="#000"/>
<rect x="2.276" y="2.276" width="0.379" height="0.379" fill="#000"/>
<rect x="2.655" y="2.276" width="0.379" height="0.379" fill="#000"/>
<rect x="3.034" y="2.276" width="0.379" height="0.379" fill="#000"/>
<rect x="3.793" y="2.276" width="0.379" height="0.379" fill="#000"/>
<rect x="4.552" y="2.276" width="0.379" height="0.379" fill="#000"/>
<rect x="5.690" y="2.276" width="0.379" height="0.379" fill="#000"/>
<rect x="6.069" y="2.276" width="0.379" height="0.379" fill="#000"/>
<rect x="6.828" y="2.276" width="0.379" height="0.379" fill="#000"/>
<rect x="7.586" y="2.276" width="0.379" height="0.379" fill="#000"/>
<rect x="7.966" y="2.276" width="0.379" height="0.379" fill="#000"/>
<rect x="8.345" y="2.276" width="0.379" height="0.379" fill="#000"/>
<rect x="9.103" y="2.276" width="0.379" height="0.379" fill="#000"/>
<rect x="1.517" y="2.655" width="0.379" height="0.379" fill="#000"/>
<rect x="2.276" y="2.655" width="0.379" height="0.379" fill="#000"/>
<rect x="2.655" y="2.655" width="0.379" height="0.379" fill="#000"/>
<rect x="3.034" y="2.655" width="0.379" height="0.379" fill="#000"/>
<rect x="3.793" y="2.655" width="0.379" height="0.379" fill="#000"/>
<rect x="4.931" y="2.655" width="0.379" height="0.379" fill="#000"/>
<rect x="5.310" y="2.655" width="0.379" height="0.379" fill="#000"/>
<rect x="6.069" y="2.655" width="0.379" height="0.379" fill="#000"/>
<rect x="6.828" y="2.655" width="0.379" height="0.379" fill="#000"/>
<rect x="7.586" y="2.655" width="0.379" height="0.379" fill="#000"/>
<rect x="7.966" y="2.655" width="0.379" height="0.379" fill="#000"/>
<rect x="8.345" y="2.655" width="0.379" height="0.379" fill="#000"/>
<rect x="9.103" y="2.655" width="0.379" height="0.379" fill="#000"/>
<rect x="1.517" y="3.034" width="0.379" height="0.379" fill="#000"/>
<rect x="2.276" y="3.034" width="0.379" height="0.379" fill="#000"/>
<rect x="2.655" y="3.034" width="0.379" height="0.379" fill="#000"/>
<rect x="3.034" y="3.034" width="0.379" height="0.379" fill="#000"/>
<rect x="3.793" y="3.034" width="0.379" height="0.379" fill="#000"/>
<rect x="4.552" y="3.034" width="0.379" height="0.379" fill="#000"/>
<rect x="4.931" y="3.034" width="0.379" height="0.379" fill="#000"/>
<rect x="6.069" y="3.034" width="0.379" height="0.379" fill="#000"/>
<rect x="6.828" y="3.034" width="0.379" height="0.379" fill="#000"/>
<rect x="7.586" y="3.034" width="0.379" height="0.379" fill="#000"/>
<rect x="7.966" y="3.034" width="0.379" height="0.379" fill="#000"/>
<rect x="8.345" y="3.034" width="0.379" height="0.379" fill="#000"/>
<rect x="9.103" y="3.034" width="0.379" height="0.379" fill="#000"/>
<rect x="1.517" y="3.414" width="0.379" height="0.379" fill="#000"/>
<rect x="3.793" y="3.414" width="0.379" height="0.379" fill="#000"/>
<rect x="4.552" y="3.414" width="0.379" height="0.379" fill="#000"/>
<rect x="5.690" y="3.414" width="0.379" height="0.379" fill="#000"/>
<rect x="6.828" y="3.414" width="0.379" height="0.379" fill="#000"/>
<rect x="9.103" y="3.414" width="0.379" height="0.379" fill="#000"/>
<rect x="1.517" y="3.793" width="0.379" height="0.379" fill="#000"/>
<rect x="1.897" y="3.793" width="0.379" height="0.379" fill="#000"/>
<rect x="2.276" y="3.793" width="0.379" height="0.379" fill="#000"/>
<rect x="2.655" y="3.793" width="0.379" height="0.379" fill="#000"/>
<rect x="3.034" y="3.793" width="0.379" height="0.379" fill="#000"/>
<rect x="3.414" y="3.793" width="0.379" height="0.379" fill="#000"/>
<rect x="3.793" y="3.793" width="0.379" height="0.379" fill="#000"/>
<rect x="4.552" y="3.793" width="0.379" height="0.379" fill="#000"/>
<rect x="5.310" y="3.793" width="0.379" height="0.379" fill="#000"/>
<rect x="6.069" y="3.793" width="0.379" height="0.379" fill="#000"/>
<rect x="6.828" y="3.793" width="0.379" height="0.379" fill="#000"/>
<rect x="7.207" y="3.793" width="0.379" height="0.379" fill="#000"/>
<rect x="7.586" y="3.793" width="0.379" height="0.379" fill="#000"/>
<rect x="7.966" y="3.793" width="0.379" height="0.379" fill="#000"/>
<rect x="8.345" y="3.793" width="0.379" height="0.379" fill="#000"/>
<rect x="8.724" y="3.793" width="0.379" height="0.379" fill="#000"/>
<rect x="9.103" y="3.793" width="0.379" height="0.379" fill="#000"/>
<rect x="5.310" y="4.172" width="0.379" height="0.379" fill="#000"/>
<rect x="5.690" y="4.172" width="0.379" height="0.379" fill="#000"/>
<rect x="1.897" y="4.552" width="0.379" height="0.379" fill="#000"/>
<rect x="3.034" y="4.552" width="0.379" height="0.379" fill="#000"/>
<rect x="3.793" y="4.552" width="0.379" height="0.379" fill="#000"/>
<rect x="4.552" y="4.552" width="0.379" height="0.379" fill="#000"/>
<rect x="5.690" y="4.552" width="0.379" height="0.379" fill="#000"/>
<rect x="6.448" y="4.552" width="0.379" height="0.379" fill="#000"/>
<rect x="7.207" y="4.552" width="0.379" height="0.379" fill="#000"/>
<rect x="7.586" y="4.552" width="0.379" height="0.379" fill="#000"/>
<rect x="8.345" y="4.552" width="0.379" height="0.379" fill="#000"/>
<rect x="1.897" y="4.931" width="0.379" height="0.379" fill="#000"/>
<rect x="2.276" y="4.931" width="0.379" height="0.379" fill="#000"/>
<rect x="3.034" y="4.931" width="0.379" height="0.379" fill="#000"/>
<rect x="4.552" y="4.931" width="0.379" height="0.379" fill="#000"/>
<rect x="6.069" y="4.931" width="0.379" height="0.379" fill="#000"/>
<rect x="6.828" y="4.931" width="0.379" height="0.379" fill="#000"/>
<rect x="7.207" y="4.931" width="0.379" height="0.379" fill="#000"/>
<rect x="7.966" y="4.931" width="0.379" height="0.379" fill="#000"/>
<rect x="8.345" y="4.931" width="0.379" height="0.379" fill="#000"/>
<rect x="8.724" y="4.931" width="0.379" height="0.379" fill="#000"/>
<rect x="9.103" y="4.931" width="0.379" height="0.379" fill="#000"/>
<rect x="1.897" y="5.310" width="0.379" height="0.379" fill="#000"/>
<rect x="3.034" y="5.310" width="0.379" height="0.379" fill="#000"/>
<rect x="3.414" y="5.310" width="0.379" height="0.379" fill="#000"/>
<rect x="3.793" y="5.310" width="0.379" height="0.379" fill="#000"/>
<rect x="5.310" y="5.310" width="0.379" height="0.379" fill="#000"/>
<rect x="7.586" y="5.310" width="0.379" height="0.379" fill="#000"/>
<rect x="7.966" y="5.310" width="0.379" height="0.379" fill="#000"/>
<rect x="8.724" y="5.310" width="0.379" height="0.379" fill="#000"/>
<rect x="1.517" y="5.690" width="0.379" height="0.379" fill="#000"/>
<rect x="2.276" y="5.690" width="0.379" height="0.379" fill="#000"/>
<rect x="2.655" y="5.690" width="0.379" height="0.379" fill="#000"/>
<rect x="3.034" y="5.690" width="0.379" height="0.379" fill="#000"/>
<rect x="3.414" y="5.690" width="0.379" height="0.379" fill="#000"/>
<rect x="5.310" y="5.690" width="0.379" height="0.379" fill="#000"/>
<rect x="5.690" y="5.690" width="0.379" height="0.379" fill="#000"/>
<rect x="6.828" y="5.690" width="0.379" height="0.379" fill="#000"/>
<rect x="7.586" y="5.690" width="0.379" height="0.379" fill="#000"/>
<rect x="7.966" y="5.690" width="0.379" height="0.379" fill="#000"/>
<rect x="8.724" y="5.690" width="0.379" height="0.379" fill="#000"/>
<rect x="9.103" y="5.690" width="0.379" height="0.379" fill="#000"/>
<rect x="1.517" y="6.069" width="0.379" height="0.379" fill="#000"/>
<rect x="3.793" y="6.069" width="0.379" height="0.379" fill="#000"/>
<rect x="4.552" y="6.069" width="0.379" height="0.379" fill="#000"/>
<rect x="6.448" y="6.069" width="0.379" height="0.379" fill="#000"/>
<rect x="7.966" y="6.069" width="0.379" height="0.379" fill="#000"/>
<rect x="8.345" y="6.069" width="0.379" height="0.379" fill="#000"/>
<rect x="9.103" y="6.069" width="0.379" height="0.379" fill="#000"/>
<rect x="4.552" y="6.448" width="0.379" height="0.379" fill="#000"/>
<rect x="4.931" y="6.448" width="0.379" height="0.379" fill="#000"/>
<rect x="5.310" y="6.448" width="0.379" height="0.379" fill="#000"/>
<rect x="6.069" y="6.448" width="0.379" height="0.379" fill="#000"/>
<rect x="6.448" y="6.448" width="0.379" height="0.379" fill="#000"/>
<rect x="6.828" y="6.448" width="0.379" height="0.379" fill="#000"/>
<rect x="7.586" y="6.448" width="0.379" height="0.379" fill="#000"/>
<rect x="8.724" y="6.448" width="0.379" height="0.379" fill="#000"/>
<rect x="9.103" y="6.448" width="0.379" height="0.379" fill="#000"/>
<rect x="1.517" y="6.828" width="0.379" height="0.379" fill="#000"/>
<rect x="1.897" y="6.828" width="0.379" height="0.379" fill="#000"/>
<rect x="2.276" y="6.828" width="0.379" height="0.379" fill="#000"/>
<rect x="2.655" y="6.828" width="0.379" height="0.379" fill="#000"/>
<rect x="3.034" y="6.828" width="0.379" height="0.379" fill="#000"/>
<rect x="3.414" y="6.828" width="0.379" height="0.379" fill="#000"/>
<rect x="3.793" y="6.828" width="0.379" height="0.379" fill="#000"/>
<rect x="7.966" y="6.828" width="0.379" height="0.379" fill="#000"/>
<rect x="8.724" y="6.828" width="0.379" height="0.379" fill="#000"/>
<rect x="1.517" y="7.207" width="0.379" height="0.379" fill="#000"/>
<rect x="3.793" y="7.207" width="0.379" height="0.379" fill="#000"/>
<rect x="4.931" y="7.207" width="0.379" height="0.379" fill="#000"/>
<rect x="5.690" y="7.207" width="0.379" height="0.379" fill="#000"/>
<rect x="6.069" y="7.207" width="0.379" height="0.379" fill="#000"/>
<rect x="7.586" y="7.207" width="0.379" height="0.379" fill="#000"/>
<rect x="9.103" y="7.207" width="0.379" height="0.379" fill="#000"/>
<rect x="1.517" y="7.586" width="0.379" height="0.379" fill="#000"/>
<rect x="2.276" y="7.586" width="0.379" height="0.379" fill="#000"/>
<rect x="2.655" y="7.586" width="0.379" height="0.379" fill="#000"/>
<rect x="3.034" y="7.586" width="0.379" height="0.379" fill="#000"/>
<rect x="3.793" y="7.586" width="0.379" height="0.379" fill="#000"/>
<rect x="4.552" y="7.586" width="0.379" height="0.379" fill="#000"/>
<rect x="6.069" y="7.586" width="0.379" height="0.379" fill="#000"/>
<rect x="6.448" y="7.586" width="0.379" height="0.379" fill="#000"/>
<rect x="6.828" y="7.586" width="0.379" height="0.379" fill="#000"/>
<rect x="8.345" y="7.586" width="0.379" height="0.379" fill="#000"/>
<rect x="9.103" y="7.586" width="0.379" height="0.379" fill="#000"/>
<rect x="1.517" y="7.966" width="0.379" height="0.379" fill="#000"/>
<rect x="2.276" y="7.966" width="0.379" height="0.379" fill="#000"/>
<rect x="2.655" y="7.966" width="0.379" height="0.379" fill="#000"/>
<rect x="3.034" y="7.966" width="0.379" height="0.379" fill="#000"/>
<rect x="3.793" y="7.966" width="0.379" height="0.379" fill="#000"/>
<rect x="5.310" y="7.966" width="0.379" height="0.379" fill="#000"/>
<rect x="5.690" y="7.966" width="0.379" height="0.379" fill="#000"/>
<rect x="6.069" y="7.966" width="0.379" height="0.379" fill="#000"/>
<rect x="7.586" y="7.966" width="0.379" height="0.379" fill="#000"/>
<rect x="7.966" y="7.966" width="0.379" height="0.379" fill="#000"/>
<rect x="8.724" y="7.966" width="0.379" height="0.379" fill="#000"/>
<rect x="9.103" y="7.966" width="0.379" height="0.379" fill="#000"/>
<rect x="1.517" y="8.345" width="0.379" height="0.379" fill="#000"/>
<rect x="2.276" y="8.345" width="0.379" height="0.379" fill="#000"/>
<rect x="2.655" y="8.345" width="0.379" height="0.379" fill="#000"/>
<rect x="3.034" y="8.345" width="0.379" height="0.379" fill="#000"/>
<rect x="3.793" y="8.345" width="0.379" height="0.379" fill="#000"/>
<rect x="4.931" y="8.345" width="0.379" height="0.379" fill="#000"/>
<rect x="5.310" y="8.345" width="0.379" height="0.379" fill="#000"/>
<rect x="5.690" y="8.345" width="0.379" height="0.379" fill="#000"/>
<rect x="6.828" y="8.345" width="0.379" height="0.379" fill="#000"/>
<rect x="7.207" y="8.345" width="0.379" height="0.379" fill="#000"/>
<rect x="7.586" y="8.345" width="0.379" height="0.379" fill="#000"/>
<rect x="8.345" y="8.345" width="0.379" height="0.379" fill="#000"/>
<rect x="1.517" y="8.724" width="0.379" height="0.379" fill="#000"/>
<rect x="3.793" y="8.724" width="0.379" height="0.379" fill="#000"/>
<rect x="4.552" y="8.724" width="0.379" height="0.379" fill="#000"/>
<rect x="4.931" y="8.724" width="0.379" height="0.379" fill="#000"/>
<rect x="6.448" y="8.724" width="0.379" height="0.379" fill="#000"/>
<rect x="6.828" y="8.724" width="0.379" height="0.379" fill="#000"/>
<rect x="7.207" y="8.724" width="0.379" height="0.379" fill="#000"/>
<rect x="7.966" y="8.724" width="0.379" height="0.379" fill="#000"/>
<rect x="8.345" y="8.724" width="0.379" height="0.379" fill="#000"/>
<rect x="9.103" y="8.724" width="0.379" height="0.379" fill="#000"/>
<rect x="1.517" y="9.103" width="0.379" height="0.379" fill="#000"/>
<rect x="1.897" y="9.103" width="0.379" height="0.379" fill="#000"/>
<rect x="2.276" y="9.103" width="0.379" height="0.379" fill="#000"/>
<rect x="2.655" y="9.103" width="0.379" height="0.379" fill="#000"/>
<rect x="3.034" y="9.103" width="0.379" height="0.379" fill="#000"/>
<rect x="3.414" y="9.103" width="0.379" height="0.379" fill="#000"/>
<rect x="3.793" y="9.103" width="0.379" height="0.379" fill="#000"/>
<rect x="4.931" y="9.103" width="0.379" height="0.379" fill="#000"/>
<rect x="6.069" y="9.103" width="0.379" height="0.379" fill="#000"/>
<rect x="6.448" y="9.103" width="0.379" height="0.379" fill="#000"/>
<rect x="6.828" y="9.103" width="0.379" height="0.379" fill="#000"/>
<rect x="7.207" y="9.103" width="0.379" height="0.379" fill="#000"/>
<rect x="7.966" y="9.103" width="0.379" height="0.379" fill="#000"/>
<rect x="8.345" y="9.103" width="0.379" height="0.379" fill="#000"/>
<rect x="8.724" y="9.103" width="0.379" height="0.379" fill="#000"/>
<rect x="9.103" y="9.103" width="0.379" height="0.379" fill="#000"/>
<text x="16.500" y="3.178" font-family="Courier, monospace" font-size="2.444" text-anchor="middle" fill="#000">PFBT</text>
<text x="16.500" y="6.356" font-family="Courier, monospace" font-size="2.444" text-anchor="middle" fill="#000">73FX</text>
<text x="16.500" y="9.533" font-family="Courier, monospace" font-size="2.444" text-anchor="middle" fill="#000">AVF2</text>
<rect x="22.000" y="0" width="13.823" height="11.000" fill="none" stroke="#888" stroke-width="0.1" stroke-dasharray="0.6,0.6"/>
<text x="28.912" y="6.000" font-family="Courier, monospace" font-size="1.5" text-anchor="middle" fill="#888">wrap d4</text>
<text x="41.323" y="3.178" font-family="Courier, monospace" font-size="2.444" text-anchor="middle" fill="#000">PFBT</text>
<text x="41.323" y="6.356" font-family="Courier, monospace" font-size="2.444" text-anchor="middle" fill="#000">73FX</text>
<text x="41.323" y="9.533" font-family="Courier, monospace" font-size="2.444" text-anchor="middle" fill="#000">AVF2</text>
<rect x="48.340" y="1.517" width="0.379" height="0.379" fill="#000"/>
<rect x="48.720" y="1.517" width="0.379" height="0.379" fill="#000"/>
<rect x="49.099" y="1.517" width="0.379" height="0.379" fill="#000"/>
<rect x="49.478" y="1.517" width="0.379" height="0.379" fill="#000"/>
<rect x="49.857" y="1.517" width="0.379" height="0.379" fill="#000"/>
<rect x="50.237" y="1.517" width="0.379" height="0.379" fill="#000"/>
<rect x="50.616" y="1.517" width="0.379" height="0.379" fill="#000"/>
<rect x="51.754" y="1.517" width="0.379" height="0.379" fill="#000"/>
<rect x="52.892" y="1.517" width="0.379" height="0.379" fill="#000"/>
<rect x="53.651" y="1.517" width="0.379" height="0.379" fill="#000"/>
<rect x="54.030" y="1.517" width="0.379" height="0.379" fill="#000"/>
<rect x="54.409" y="1.517" width="0.379" height="0.379" fill="#000"/>
<rect x="54.789" y="1.517" width="0.379" height="0.379" fill="#000"/>
<rect x="55.168" y="1.517" width="0.379" height="0.379" fill="#000"/>
<rect x="55.547" y="1.517" width="0.379" height="0.379" fill="#000"/>
<rect x="55.926" y="1.517" width="0.379" height="0.379" fill="#000"/>
<rect x="48.340" y="1.897" width="0.379" height="0.379" fill="#000"/>
<rect x="50.616" y="1.897" width="0.379" height="0.379" fill="#000"/>
<rect x="52.513" y="1.897" width="0.379" height="0.379" fill="#000"/>
<rect x="53.651" y="1.897" width="0.379" height="0.379" fill="#000"/>
<rect x="55.926" y="1.897" width="0.379" height="0.379" fill="#000"/>
<rect x="48.340" y="2.276" width="0.379" height="0.379" fill="#000"/>
<rect x="49.099" y="2.276" width="0.379" height="0.379" fill="#000"/>
<rect x="49.478" y="2.276" width="0.379" height="0.379" fill="#000"/>
<rect x="49.857" y="2.276" width="0.379" height="0.379" fill="#000"/>
<rect x="50.616" y="2.276" width="0.379" height="0.379" fill="#000"/>
<rect x="51.375" y="2.276" width="0.379" height="0.379" fill="#000"/>
<rect x="52.513" y="2.276" width="0.379" height="0.379" fill="#000"/>
<rect x="52.892" y="2.276" width="0.379" height="0.379" fill="#000"/>
<rect x="53.651" y="2.276" width="0.379" height="0.379" fill="#000"/>
<rect x="54.409" y="2.276" width="0.379" height="0.379" fill="#000"/>
<rect x="54.789" y="2.276" width="0.379" height="0.379" fill="#000"/>
<rect x="55.168" y="2.276" width="0.379" height="0.379" fill="#000"/>
<rect x="55.926" y="2.276" width="0.379" height="0.379" fill="#000"/>
<rect x="48.340" y="2.655" width="0.379" height="0.379" fill="#000"/>
<rect x="49.099" y="2.655" width="0.379" height="0.379" fill="#000"/>
<rect x="49.478" y="2.655" width="0.379" height="0.379" fill="#000"/>
<rect x="49.857" y="2.655" width="0.379" height="0.379" fill="#000"/>
<rect x="50.616" y="2.655" width="0.379" height="0.379" fill="#000"/>
<rect x="51.754" y="2.655" width="0.379" height="0.379" fill="#000"/>
<rect x="52.133" y="2.655" width="0.379" height="0.379" fill="#000"/>
<rect x="52.892" y="2.655" width="0.379" height="0.379" fill="#000"/>
<rect x="53.651" y="2.655" width="0.379" height="0.379" fill="#000"/>
<rect x="54.409" y="2.655" width="0.379" height="0.379" fill="#000"/>
<rect x="54.789" y="2.655" width="0.379" height="0.379" fill="#000"/>
<rect x="55.168" y="2.655" width="0.379" height="0.379" fill="#000"/>
<rect x="55.926" y="2.655" width="0.379" height="0.379" fill="#000"/>
<rect x="48.340" y="3.034" width="0.379" height="0.379" fill="#000"/>
<rect x="49.099" y="3.034" width="0.379" height="0.379" fill="#000"/>
<rect x="49.478" y="3.034" width="0.379" height="0.379" fill="#000"/>
<rect x="49.857" y="3.034" width="0.379" height="0.379" fill="#000"/>
<rect x="50.616" y="3.034" width="0.379" height="0.379" fill="#000"/>
<rect x="51.375" y="3.034" width="0.379" height="0.379" fill="#000"/>
<rect x="51.754" y="3.034" width="0.379" height="0.379" fill="#000"/>
<rect x="52.892" y="3.034" width="0.379" height="0.379" fill="#000"/>
<rect x="53.651" y="3.034" width="0.379" height="0.379" fill="#000"/>
<rect x="54.409" y="3.034" width="0.379" height="0.379" fill="#000"/>
<rect x="54.789" y="3.034" width="0.379" height="0.379" fill="#000"/>
<rect x="55.168" y="3.034" width="0.379" height="0.379" fill="#000"/>
<rect x="55.926" y="3.034" width="0.379" height="0.379" fill="#000"/>
<rect x="48.340" y="3.414" width="0.379" height="0.379" fill="#000"/>
<rect x="50.616" y="3.414" width="0.379" height="0.379" fill="#000"/>
<rect x="51.375" y="3.414" width="0.379" height="0.379" fill="#000"/>
<rect x="52.513" y="3.414" width="0.379" height="0.379" fill="#000"/>
<rect x="53.651" y="3.414" width="0.379" height="0.379" fill="#000"/>
<rect x="55.926" y="3.414" width="0.379" height="0.379" fill="#000"/>
<rect x="48.340" y="3.793" width="0.379" height="0.379" fill="#000"/>
<rect x="48.720" y="3.793" width="0.379" height="0.379" fill="#000"/>
<rect x="49.099" y="3.793" width="0.379" height="0.379" fill="#000"/>
<rect x="49.478" y="3.793" width="0.379" height="0.379" fill="#000"/>
<rect x="49.857" y="3.793" width="0.379" height="0.379" fill="#000"/>
<rect x="50.237" y="3.793" width="0.379" height="0.379" fill="#000"/>
<rect x="50.616" y="3.793" width="0.379" height="0.379" fill="#000"/>
<rect x="51.375" y="3.793" width="0.379" height="0.379" fill="#000"/>
<rect x="52.133" y="3.793" width="0.379" height="0.379" fill="#000"/>
<rect x="52.892" y="3.793" width="0.379" height="0.379" fill="#000"/>
<rect x="53.651" y="3.793" width="0.379" height="0.379" fill="#000"/>
<rect x="54.030" y="3.793" width="0.379" height="0.379" fill="#000"/>
<rect x="54.409" y="3.793" width="0.379" height="0.379" fill="#000"/>
<rect x="54.789" y="3.793" width="0.379" height="0.379" fill="#000"/>
<rect x="55.168" y="3.793" width="0.379" height="0.379" fill="#000"/>
<rect x="55.547" y="3.793" width="0.379" height="0.379" fill="#000"/>
<rect x="55.926" y="3.793" width="0.379" height="0.379" fill="#000"/>
<rect x="52.133" y="4.172" width="0.379" height="0.379" fill="#000"/>
<rect x="52.513" y="4.172" width="0.379" height="0.379" fill="#000"/>
<rect x="48.720" y="4.552" width="0.379" height="0.379" fill="#000"/>
<rect x="49.857" y="4.552" width="0.379" height="0.379" fill="#000"/>
<rect x="50.616" y="4.552" width="0.379" height="0.379" fill="#000"/>
<rect x="51.375" y="4.552" width="0.379" height="0.379" fill="#000"/>
<rect x="52.513" y="4.552" width="0.379" height="0.379" fill="#000"/>
<rect x="53.271" y="4.552" width="0.379" height="0.379" fill="#000"/>
<rect x="54.030" y="4.552" width="0.379" height="0.379" fill="#000"/>
<rect x="54.409" y="4.552" width="0.379" height="0.379" fill="#000"/>
<rect x="55.168" y="4.552" width="0.379" height="0.379" fill="#000"/>
<rect x="48.720" y="4.931" width="0.379" height="0.379" fill="#000"/>
<rect x="49.099" y="4.931" width="0.379" height="0.379" fill="#000"/>
<rect x="49.857" y="4.931" width="0.379" height="0.379" fill="#000"/>
<rect x="51.375" y="4.931" width="0.379" height="0.379" fill="#000"/>
<rect x="52.892" y="4.931" width="0.379" height="0.379" fill="#000"/>
<rect x="53.651" y="4.931" width="0.379" height="0.379" fill="#000"/>
<rect x="54.030" y="4.931" width="0.379" height="0.379" fill="#000"/>
<rect x="54.789" y="4.931" width="0.379" height="0.379" fill="#000"/>
<rect x="55.168" y="4.931" width="0.379" height="0.379" fill="#000"/>
<rect x="55.547" y="4.931" width="0.379" height="0.379" fill="#000"/>
<rect x="55.926" y="4.931" width="0.379" height="0.379" fill="#000"/>
<rect x="48.720" y="5.310" width="0.379" height="0.379" fill="#000"/>
<rect x="49.857" y="5.310" width="0.379" height="0.379" fill="#000"/>
<rect x="50.237" y="5.310" width="0.379" height="0.379" fill="#000"/>
<rect x="50.616" y="5.310" width="0.379" height="0.379" fill="#000"/>
<rect x="52.133" y="5.310" width="0.379" height="0.379" fill="#000"/>
<rect x="54.409" y="5.310" width="0.379" height="0.379" fill="#000"/>
<rect x="54.789" y="5.310" width="0.379" height="0.379" fill="#000"/>
<rect x="55.547" y="5.310" width="0.379" height="0.379" fill="#000"/>
<rect x="48.340" y="5.690" width="0.379" height="0.379" fill="#000"/>
<rect x="49.099" y="5.690" width="0.379" height="0.379" fill="#000"/>
<rect x="49.478" y="5.690" width="0.379" height="0.379" fill="#000"/>
<rect x="49.857" y="5.690" width="0.379" height="0.379" fill="#000"/>
<rect x="50.237" y="5.690" width="0.379" height="0.379" fill="#000"/>
<rect x="52.133" y="5.690" width="0.379" height="0.379" fill="#000"/>
<rect x="52.513" y="5.690" width="0.379" height="0.379" fill="#000"/>
<rect x="53.651" y="5.690" width="0.379" height="0.379" fill="#000"/>
<rect x="54.409" y="5.690" width="0.379" height="0.379" fill="#000"/>
<rect x="54.789" y="5.690" width="0.379" height="0.379" fill="#000"/>
<rect x="55.547" y="5.690" width="0.379" height="0.379" fill="#000"/>
<rect x="55.926" y="5.690" width="0.379" height="0.379" fill="#000"/>
<rect x="48.340" y="6.069" width="0.379" height="0.379" fill="#000"/>
<rect x="50.616" y="6.069" width="0.379" height="0.379" fill="#000"/>
<rect x="51.375" y="6.069" width="0.379" height="0.379" fill="#000"/>
<rect x="53.271" y="6.069" width="0.379" height="0.379" fill="#000"/>
<rect x="54.789" y="6.069" width="0.379" height="0.379" fill="#000"/>
<rect x="55.168" y="6.069" width="0.379" height="0.379" fill="#000"/>
<rect x="55.926" y="6.069" width="0.379" height="0.379" fill="#000"/>
<rect x="51.375" y="6.448" width="0.379" height="0.379" fill="#000"/>
<rect x="51.754" y="6.448" width="0.379" height="0.379" fill="#000"/>
<rect x="52.133" y="6.448" width="0.379" height="0.379" fill="#000"/>
<rect x="52.892" y="6.448" width="0.379" height="0.379" fill="#000"/>
<rect x="53.271" y="6.448" width="0.379" height="0.379" fill="#000"/>
<rect x="53.651" y="6.448" width="0.379" height="0.379" fill="#000"/>
<rect x="54.409" y="6.448" width="0.379" height="0.379" fill="#000"/>
<rect x="55.547" y="6.448" width="0.379" height="0.379" fill="#000"/>
<rect x="55.926" y="6.448" width="0.379" height="0.379" fill="#000"/>
<rect x="48.340" y="6.828" width="0.379" height="0.379" fill="#000"/>
<rect x="48.720" y="6.828" width="0.379" height="0.379" fill="#000"/>
<rect x="49.099" y="6.828" width="0.379" height="0.379" fill="#000"/>
<rect x="49.478" y="6.828" width="0.379" height="0.379" fill="#000"/>
<rect x="49.857" y="6.828" width="0.379" height="0.379" fill="#000"/>
<rect x="50.237" y="6.828" width="0.379" height="0.379" fill="#000"/>
<rect x="50.616" y="6.828" width="0.379" height="0.379" fill="#000"/>
<rect x="54.789" y="6.828" width="0.379" height="0.379" fill="#000"/>
<rect x="55.547" y="6.828" width="0.379" height="0.379" fill="#000"/>
<rect x="48.340" y="7.207" width="0.379" height="0.379" fill="#000"/>
<rect x="50.616" y="7.207" width="0.379" height="0.379" fill="#000"/>
<rect x="51.754" y="7.207" width="0.379" height="0.379" fill="#000"/>
<rect x="52.513" y="7.207" width="0.379" height="0.379" fill="#000"/>
<rect x="52.892" y="7.207" width="0.379" height="0.379" fill="#000"/>
<rect x="54.409" y="7.207" width="0.379" height="0.379" fill="#000"/>
<rect x="55.926" y="7.207" width="0.379" height="0.379" fill="#000"/>
<rect x="48.340" y="7.586" width="0.379" height="0.379" fill="#000"/>
<rect x="49.099" y="7.586" width="0.379" height="0.379" fill="#000"/>
<rect x="49.478" y="7.586" width="0.379" height="0.379" fill="#000"/>
<rect x="49.857" y="7.586" width="0.379" height="0.379" fill="#000"/>
<rect x="50.616" y="7.586" width="0.379" height="0.379" fill="#000"/>
<rect x="51.375" y="7.586" width="0.379" height="0.379" fill="#000"/>
<rect x="52.892" y="7.586" width="0.379" height="0.379" fill="#000"/>
<rect x="53.271" y="7.586" width="0.379" height="0.379" fill="#000"/>
<rect x="53.651" y="7.586" width="0.379" height="0.379" fill="#000"/>
<rect x="55.168" y="7.586" width="0.379" height="0.379" fill="#000"/>
<rect x="55.926" y="7.586" width="0.379" height="0.379" fill="#000"/>
<rect x="48.340" y="7.966" width="0.379" height="0.379" fill="#000"/>
<rect x="49.099" y="7.966" width="0.379" height="0.379" fill="#000"/>
<rect x="49.478" y="7.966" width="0.379" height="0.379" fill="#000"/>
<rect x="49.857" y="7.966" width="0.379" height="0.379" fill="#000"/>
<rect x="50.616" y="7.966" width="0.379" height="0.379" fill="#000"/>
<rect x="52.133" y="7.966" width="0.379" height="0.379" fill="#000"/>
<rect x="52.513" y="7.966" width="0.379" height="0.379" fill="#000"/>
<rect x="52.892" y="7.966" width="0.379" height="0.379" fill="#000"/>
<rect x="54.409" y="7.966" width="0.379" height="0.379" fill="#000"/>
<rect x="54.789" y="7.966" width="0.379" height="0.379" fill="#000"/>
<rect x="55.547" y="7.966" width="0.379" height="0.379" fill="#000"/>
<rect x="55.926" y="7.966" width="0.379" height="0.379" fill="#000"/>
<rect x="48.340" y="8.345" width="0.379" height="0.379" fill="#000"/>
<rect x="49.099" y="8.345" width="0.379" height="0.379" fill="#000"/>
<rect x="49.478" y="8.345" width="0.379" height="0.379" fill="#000"/>
<rect x="49.857" y="8.345" width="0.379" height="0.379" fill="#000"/>
<rect x="50.616" y="8.345" width="0.379" height="0.379" fill="#000"/>
<rect x="51.754" y="8.345" width="0.379" height="0.379" fill="#000"/>
<rect x="52.133" y="8.345" width="0.379" height="0.379" fill="#000"/>
<rect x="52.513" y="8.345" width="0.379" height="0.379" fill="#000"/>
<rect x="53.651" y="8.345" width="0.379" height="0.379" fill="#000"/>
<rect x="54.030" y="8.345" width="0.379" height="0.379" fill="#000"/>
<rect x="54.409" y="8.345" width="0.379" height="0.379" fill="#000"/>
<rect x="55.168" y="8.345" width="0.379" height="0.379" fill="#000"/>
<rect x="48.340" y="8.724" width="0.379" height="0.379" fill="#000"/>
<rect x="50.616" y="8.724" width="0.379" height="0.379" fill="#000"/>
<rect x="51.375" y="8.724" width="0.379" height="0.379" fill="#000"/>
<rect x="51.754" y="8.724" width="0.379" height="0.379" fill="#000"/>
<rect x="53.271" y="8.724" width="0.379" height="0.379" fill="#000"/>
<rect x="53.651" y="8.724" width="0.379" height="0.379" fill="#000"/>
<rect x="54.030" y="8.724" width="0.379" height="0.379" fill="#000"/>
<rect x="54.789" y="8.724" width="0.379" height="0.379" fill="#000"/>
<rect x="55.168" y="8.724" width="0.379" height="0.379" fill="#000"/>
<rect x="55.926" y="8.724" width="0.379" height="0.379" fill="#000"/>
<rect x="48.340" y="9.103" width="0.379" height="0.379" fill="#000"/>
<rect x="48.720" y="9.103" width="0.379" height="0.379" fill="#000"/>
<rect x="49.099" y="9.103" width="0.379" height="0.379" fill="#000"/>
<rect x="49.478" y="9.103" width="0.379" height="0.379" fill="#000"/>
<rect x="49.857" y="9.103" width="0.379" height="0.379" fill="#000"/>
<rect x="50.237" y="9.103" width="0.379" height="0.379" fill="#000"/>
<rect x="50.616" y="9.103" width="0.379" height="0.379" fill="#000"/>
<rect x="51.754" y="9.103" width="0.379" height="0.379" fill="#000"/>
<rect x="52.892" y="9.103" width="0.379" height="0.379" fill="#000"/>
<rect x="53.271" y="9.103" width="0.379" height="0.379" fill="#000"/>
<rect x="53.651" y="9.103" width="0.379" height="0.379" fill="#000"/>
<rect x="54.030" y="9.103" width="0.379" height="0.379" fill="#000"/>
<rect x="54.789" y="9.103" width="0.379" height="0.379" fill="#000"/>
<rect x="55.168" y="9.103" width="0.379" height="0.379" fill="#000"/>
<rect x="55.547" y="9.103" width="0.379" height="0.379" fill="#000"/>
<rect x="55.926" y="9.103" width="0.379" height="0.379" fill="#000"/>
</svg>
